<?xml version="1.0" encoding="utf-8" standalone="no"?>
<!DOCTYPE svg PUBLIC "-//W3C//DTD SVG 1.1//EN"
  "http://www.w3.org/Graphics/SVG/1.1/DTD/svg11.dtd">
<svg xmlns:xlink="http://www.w3.org/1999/xlink" width="631.08pt" height="372.096pt" viewBox="0 0 631.08 372.096" xmlns="http://www.w3.org/2000/svg" version="1.1">
 <metadata>
  <rdf:RDF xmlns:dc="http://purl.org/dc/elements/1.1/" xmlns:cc="http://creativecommons.org/ns#" xmlns:rdf="http://www.w3.org/1999/02/22-rdf-syntax-ns#">
   <cc:Work>
    <dc:type rdf:resource="http://purl.org/dc/dcmitype/StillImage"/>
    <dc:date>2026-07-22T16:22:53.491857</dc:date>
    <dc:format>image/svg+xml</dc:format>
    <dc:creator>
     <cc:Agent>
      <dc:title>Matplotlib v3.11.0, https://matplotlib.org/</dc:title>
     </cc:Agent>
    </dc:creator>
   </cc:Work>
  </rdf:RDF>
 </metadata>
 <defs>
  <style type="text/css">*{stroke-linejoin: round; stroke-linecap: butt}</style>
 </defs>
 <g id="figure_1">
  <g id="patch_1">
   <path d="M 0 372.096 
L 631.08 372.096 
L 631.08 0 
L 0 0 
z
" style="fill: #fffdf7"/>
  </g>
  <g id="axes_1">
   <g id="patch_2">
    <path d="M 53.4474 160.146432 
L 577.6326 160.146432 
Q 592.9776 160.146432 592.9776 151.276032 
L 592.9776 107.278848 
Q 592.9776 98.408448 577.6326 98.408448 
L 53.4474 98.408448 
Q 38.1024 98.408448 38.1024 107.278848 
L 38.1024 151.276032 
Q 38.1024 160.146432 53.4474 160.146432 
z
" clip-path="url(#pc75b7638aa)" style="fill: #ffffff; stroke: #c23b3b; stroke-width: 2; stroke-linejoin: miter"/>
   </g>
   <g id="patch_3">
    <path d="M 53.4474 231.109632 
L 577.6326 231.109632 
Q 592.9776 231.109632 592.9776 222.239232 
L 592.9776 178.242048 
Q 592.9776 169.371648 577.6326 169.371648 
L 53.4474 169.371648 
Q 38.1024 169.371648 38.1024 178.242048 
L 38.1024 222.239232 
Q 38.1024 231.109632 53.4474 231.109632 
z
" clip-path="url(#pc75b7638aa)" style="fill: #ffffff; stroke: #009e73; stroke-width: 2; stroke-linejoin: miter"/>
   </g>
   <g id="patch_4">
    <path d="M 53.4474 302.072832 
L 577.6326 302.072832 
Q 592.9776 302.072832 592.9776 293.202432 
L 592.9776 249.205248 
Q 592.9776 240.334848 577.6326 240.334848 
L 53.4474 240.334848 
Q 38.1024 240.334848 38.1024 249.205248 
L 38.1024 293.202432 
Q 38.1024 302.072832 53.4474 302.072832 
z
" clip-path="url(#pc75b7638aa)" style="fill: #ffffff; stroke: #7e57c2; stroke-width: 2; stroke-linejoin: miter"/>
   </g>
   <g id="text_1">
    <text style="font-weight: 700; font-size: 25px; font-family: 'DejaVu Sans'; text-anchor: start; fill: #13294b" x="33.192" y="58.826061" transform="rotate(-0 33.192 58.826061)">The certificate–endpoint gap</text>
   </g>
   <g id="text_2">
    <text style="font-weight: 700; font-size: 13px; font-family: 'DejaVu Sans'; text-anchor: start; fill: #15243a" x="63.882" y="132.813846" transform="rotate(-0 63.882 132.813846)">Original certificate</text>
   </g>
   <g id="text_3">
    <text style="font-weight: 700; font-size: 18px; font-family: 'DejaVu Sans'; text-anchor: middle; fill: #c23b3b" x="364.644" y="134.174002" transform="rotate(-0 364.644 134.174002)">0 layers</text>
   </g>
   <g id="text_4">
    <text style="font-weight: 700; font-size: 13px; font-family: 'DejaVu Sans'; text-anchor: end; fill: #c23b3b" x="561.06" y="134.124002" transform="rotate(-0 561.06 134.124002)">all 6 cells</text>
   </g>
   <g id="text_5">
    <text style="font-weight: 700; font-size: 13px; font-family: 'DejaVu Sans'; text-anchor: start; fill: #15243a" x="63.882" y="203.827827" transform="rotate(-0 63.882 203.827827)">Held-out endpoint · omit 1</text>
   </g>
   <g id="text_6">
    <text style="font-weight: 700; font-size: 18px; font-family: 'DejaVu Sans'; text-anchor: middle; fill: #009e73" x="364.644" y="205.137202" transform="rotate(-0 364.644 205.137202)">1 layer</text>
   </g>
   <g id="text_7">
    <text style="font-weight: 700; font-size: 13px; font-family: 'DejaVu Sans'; text-anchor: end; fill: #009e73" x="561.06" y="203.706968" transform="rotate(-0 561.06 203.706968)">passes 6 / 6</text>
   </g>
   <g id="text_8">
    <text style="font-weight: 700; font-size: 13px; font-family: 'DejaVu Sans'; text-anchor: start; fill: #15243a" x="63.882" y="274.791027" transform="rotate(-0 63.882 274.791027)">Held-out endpoint · omit 2</text>
   </g>
   <g id="text_9">
    <text style="font-weight: 700; font-size: 18px; font-family: 'DejaVu Sans'; text-anchor: middle; fill: #7e57c2" x="364.644" y="276.100402" transform="rotate(-0 364.644 276.100402)">2 layers</text>
   </g>
   <g id="text_10">
    <text style="font-weight: 700; font-size: 13px; font-family: 'DejaVu Sans'; text-anchor: end; fill: #7e57c2" x="561.06" y="274.676262" transform="rotate(-0 561.06 274.676262)">passes 2 / 6</text>
   </g>
   <g id="text_11">
    <text style="font-weight: 700; font-size: 8.5px; font-family: 'DejaVu Sans'; text-anchor: start; fill: #5d6b7e" x="20.916" y="352.579467" transform="rotate(-0 20.916 352.579467)">VERIFIED FROZEN CERTIFICATE AND ENDPOINT COMPARISON</text>
   </g>
  </g>
 </g>
 <defs>
  <clipPath id="pc75b7638aa">
   <rect x="8.64" y="8.64" width="613.8" height="354.816"/>
  </clipPath>
 </defs>
</svg>
