<?xml version="1.0" encoding="utf-8" standalone="no"?>
<!DOCTYPE svg PUBLIC "-//W3C//DTD SVG 1.1//EN"
  "http://www.w3.org/Graphics/SVG/1.1/DTD/svg11.dtd">
<svg xmlns:xlink="http://www.w3.org/1999/xlink" width="798.48pt" height="338.832pt" viewBox="0 0 798.48 338.832" xmlns="http://www.w3.org/2000/svg" version="1.1">
 <metadata>
  <rdf:RDF xmlns:dc="http://purl.org/dc/elements/1.1/" xmlns:cc="http://creativecommons.org/ns#" xmlns:rdf="http://www.w3.org/1999/02/22-rdf-syntax-ns#">
   <cc:Work>
    <dc:type rdf:resource="http://purl.org/dc/dcmitype/StillImage"/>
    <dc:date>2026-07-22T16:22:51.615813</dc:date>
    <dc:format>image/svg+xml</dc:format>
    <dc:creator>
     <cc:Agent>
      <dc:title>Matplotlib v3.11.0, https://matplotlib.org/</dc:title>
     </cc:Agent>
    </dc:creator>
   </cc:Work>
  </rdf:RDF>
 </metadata>
 <defs>
  <style type="text/css">*{stroke-linejoin: round; stroke-linecap: butt}</style>
 </defs>
 <g id="figure_1">
  <g id="patch_1">
   <path d="M 0 338.832 
L 798.48 338.832 
L 798.48 0 
L 0 0 
z
" style="fill: #fffdf7"/>
  </g>
  <g id="axes_1">
   <g id="patch_2">
    <path d="M 50.0436 253.662624 
L 157.8492 253.662624 
Q 177.3792 253.662624 177.3792 245.623824 
L 177.3792 144.656496 
Q 177.3792 136.617696 157.8492 136.617696 
L 50.0436 136.617696 
Q 30.5136 136.617696 30.5136 144.656496 
L 30.5136 245.623824 
Q 30.5136 253.662624 50.0436 253.662624 
z
" clip-path="url(#pac51d292d6)" style="fill: #ffffff; stroke: #7e57c2; stroke-width: 2; stroke-linejoin: miter"/>
   </g>
   <g id="patch_3">
    <path d="M 75.042 166.20048 
C 80.221417 166.20048 85.189395 165.353461 88.851795 163.84597 
C 92.514196 162.338479 94.572 160.293595 94.572 158.16168 
C 94.572 156.029765 92.514196 153.984881 88.851795 152.47739 
C 85.189395 150.969899 80.221417 150.12288 75.042 150.12288 
C 69.862583 150.12288 64.894605 150.969899 61.232205 152.47739 
C 57.569804 153.984881 55.512 156.029765 55.512 158.16168 
C 55.512 160.293595 57.569804 162.338479 61.232205 163.84597 
C 64.894605 165.353461 69.862583 166.20048 75.042 166.20048 
z
" clip-path="url(#pac51d292d6)" style="fill: #7e57c2"/>
   </g>
   <g id="patch_4">
    <path d="M 197.6904 253.662624 
L 305.496 253.662624 
Q 325.026 253.662624 325.026 245.623824 
L 325.026 144.656496 
Q 325.026 136.617696 305.496 136.617696 
L 197.6904 136.617696 
Q 178.1604 136.617696 178.1604 144.656496 
L 178.1604 245.623824 
Q 178.1604 253.662624 197.6904 253.662624 
z
" clip-path="url(#pac51d292d6)" style="fill: #ffffff; stroke: #0072b2; stroke-width: 2; stroke-linejoin: miter"/>
   </g>
   <g id="patch_5">
    <path d="M 222.6888 166.20048 
C 227.868217 166.20048 232.836195 165.353461 236.498595 163.84597 
C 240.160996 162.338479 242.2188 160.293595 242.2188 158.16168 
C 242.2188 156.029765 240.160996 153.984881 236.498595 152.47739 
C 232.836195 150.969899 227.868217 150.12288 222.6888 150.12288 
C 217.509383 150.12288 212.541405 150.969899 208.879005 152.47739 
C 205.216604 153.984881 203.1588 156.029765 203.1588 158.16168 
C 203.1588 160.293595 205.216604 162.338479 208.879005 163.84597 
C 212.541405 165.353461 217.509383 166.20048 222.6888 166.20048 
z
" clip-path="url(#pac51d292d6)" style="fill: #0072b2"/>
   </g>
   <g id="patch_6">
    <path d="M 345.3372 253.662624 
L 453.1428 253.662624 
Q 472.6728 253.662624 472.6728 245.623824 
L 472.6728 144.656496 
Q 472.6728 136.617696 453.1428 136.617696 
L 345.3372 136.617696 
Q 325.8072 136.617696 325.8072 144.656496 
L 325.8072 245.623824 
Q 325.8072 253.662624 345.3372 253.662624 
z
" clip-path="url(#pac51d292d6)" style="fill: #ffffff; stroke: #ff5f05; stroke-width: 2; stroke-linejoin: miter"/>
   </g>
   <g id="patch_7">
    <path d="M 370.3356 166.20048 
C 375.515017 166.20048 380.482995 165.353461 384.145395 163.84597 
C 387.807796 162.338479 389.8656 160.293595 389.8656 158.16168 
C 389.8656 156.029765 387.807796 153.984881 384.145395 152.47739 
C 380.482995 150.969899 375.515017 150.12288 370.3356 150.12288 
C 365.156183 150.12288 360.188205 150.969899 356.525805 152.47739 
C 352.863404 153.984881 350.8056 156.029765 350.8056 158.16168 
C 350.8056 160.293595 352.863404 162.338479 356.525805 163.84597 
C 360.188205 165.353461 365.156183 166.20048 370.3356 166.20048 
z
" clip-path="url(#pac51d292d6)" style="fill: #ff5f05"/>
   </g>
   <g id="patch_8">
    <path d="M 492.984 253.662624 
L 600.7896 253.662624 
Q 620.3196 253.662624 620.3196 245.623824 
L 620.3196 144.656496 
Q 620.3196 136.617696 600.7896 136.617696 
L 492.984 136.617696 
Q 473.454 136.617696 473.454 144.656496 
L 473.454 245.623824 
Q 473.454 253.662624 492.984 253.662624 
z
" clip-path="url(#pac51d292d6)" style="fill: #ffffff; stroke: #c23b3b; stroke-width: 2; stroke-linejoin: miter"/>
   </g>
   <g id="patch_9">
    <path d="M 517.9824 166.20048 
C 523.161817 166.20048 528.129795 165.353461 531.792195 163.84597 
C 535.454596 162.338479 537.5124 160.293595 537.5124 158.16168 
C 537.5124 156.029765 535.454596 153.984881 531.792195 152.47739 
C 528.129795 150.969899 523.161817 150.12288 517.9824 150.12288 
C 512.802983 150.12288 507.835005 150.969899 504.172605 152.47739 
C 500.510204 153.984881 498.4524 156.029765 498.4524 158.16168 
C 498.4524 160.293595 500.510204 162.338479 504.172605 163.84597 
C 507.835005 165.353461 512.802983 166.20048 517.9824 166.20048 
z
" clip-path="url(#pac51d292d6)" style="fill: #c23b3b"/>
   </g>
   <g id="patch_10">
    <path d="M 640.6308 253.662624 
L 748.4364 253.662624 
Q 767.9664 253.662624 767.9664 245.623824 
L 767.9664 144.656496 
Q 767.9664 136.617696 748.4364 136.617696 
L 640.6308 136.617696 
Q 621.1008 136.617696 621.1008 144.656496 
L 621.1008 245.623824 
Q 621.1008 253.662624 640.6308 253.662624 
z
" clip-path="url(#pac51d292d6)" style="fill: #ffffff; stroke: #009e73; stroke-width: 2; stroke-linejoin: miter"/>
   </g>
   <g id="patch_11">
    <path d="M 665.6292 166.20048 
C 670.808617 166.20048 675.776595 165.353461 679.438995 163.84597 
C 683.101396 162.338479 685.1592 160.293595 685.1592 158.16168 
C 685.1592 156.029765 683.101396 153.984881 679.438995 152.47739 
C 675.776595 150.969899 670.808617 150.12288 665.6292 150.12288 
C 660.449783 150.12288 655.481805 150.969899 651.819405 152.47739 
C 648.157004 153.984881 646.0992 156.029765 646.0992 158.16168 
C 646.0992 160.293595 648.157004 162.338479 651.819405 163.84597 
C 655.481805 165.353461 660.449783 166.20048 665.6292 166.20048 
z
" clip-path="url(#pac51d292d6)" style="fill: #009e73"/>
   </g>
   <g id="patch_12">
    <path d="M 171.569788 195.14016 
Q 177.381169 195.14016 180.956482 195.14016 
" clip-path="url(#pac51d292d6)" style="fill: none; stroke: #0072b2; stroke-width: 2; stroke-linecap: round"/>
    <path d="M 174.156482 191.74016 
L 180.956482 195.14016 
L 174.156482 198.54016 
z
" clip-path="url(#pac51d292d6)" style="fill: #0072b2; stroke: #0072b2; stroke-width: 2; stroke-linecap: round"/>
   </g>
   <g id="patch_13">
    <path d="M 319.216588 195.14016 
Q 325.027969 195.14016 328.603282 195.14016 
" clip-path="url(#pac51d292d6)" style="fill: none; stroke: #ff5f05; stroke-width: 2; stroke-linecap: round"/>
    <path d="M 321.803282 191.74016 
L 328.603282 195.14016 
L 321.803282 198.54016 
z
" clip-path="url(#pac51d292d6)" style="fill: #ff5f05; stroke: #ff5f05; stroke-width: 2; stroke-linecap: round"/>
   </g>
   <g id="patch_14">
    <path d="M 466.863388 195.14016 
Q 472.674769 195.14016 476.250082 195.14016 
" clip-path="url(#pac51d292d6)" style="fill: none; stroke: #c23b3b; stroke-width: 2; stroke-linecap: round"/>
    <path d="M 469.450082 191.74016 
L 476.250082 195.14016 
L 469.450082 198.54016 
z
" clip-path="url(#pac51d292d6)" style="fill: #c23b3b; stroke: #c23b3b; stroke-width: 2; stroke-linecap: round"/>
   </g>
   <g id="patch_15">
    <path d="M 614.510188 195.14016 
Q 620.321569 195.14016 623.896882 195.14016 
" clip-path="url(#pac51d292d6)" style="fill: none; stroke: #009e73; stroke-width: 2; stroke-linecap: round"/>
    <path d="M 617.096882 191.74016 
L 623.896882 195.14016 
L 617.096882 198.54016 
z
" clip-path="url(#pac51d292d6)" style="fill: #009e73; stroke: #009e73; stroke-width: 2; stroke-linecap: round"/>
   </g>
   <g id="text_1">
    <text style="font-weight: 700; font-size: 25px; font-family: 'DejaVu Sans'; text-anchor: start; fill: #13294b" x="39.888" y="56.262598" transform="rotate(-0 39.888 56.262598)">The stored-root factor endpoint</text>
   </g>
   <g id="text_2">
    <text style="font-weight: 700; font-size: 10px; font-family: 'DejaVu Sans'; text-anchor: middle; fill: #ffffff" x="75.042" y="161.806993" transform="rotate(-0 75.042 161.806993)">1</text>
   </g>
   <g id="text_3">
    <text style="font-weight: 700; font-size: 13px; font-family: 'DejaVu Sans'; text-anchor: start; fill: #13294b" x="63.324" y="191.709123" transform="rotate(-0 63.324 191.709123)">Candidate z</text>
   </g>
   <g id="text_4">
    <text style="font-size: 9.5px; font-family: 'DejaVu Sans'; fill: #5d6b7e" transform="translate(63.324 217.243959)">from LLL</text>
    <text style="font-size: 9.5px; font-family: 'DejaVu Sans'; fill: #5d6b7e" transform="translate(63.324 228.643959)">transform</text>
   </g>
   <g id="text_5">
    <text style="font-weight: 700; font-size: 10px; font-family: 'DejaVu Sans'; text-anchor: middle; fill: #ffffff" x="222.6888" y="161.872618" transform="rotate(-0 222.6888 161.872618)">2</text>
   </g>
   <g id="text_6">
    <text style="font-weight: 700; font-size: 13px; font-family: 'DejaVu Sans'; text-anchor: start; fill: #13294b" x="210.9708" y="191.709123" transform="rotate(-0 210.9708 191.709123)">Check L</text>
   </g>
   <g id="text_7">
    <text style="font-size: 9.5px; font-family: 'DejaVu Sans'; text-anchor: start; fill: #5d6b7e" x="210.9708" y="216.400092" transform="rotate(-0 210.9708 216.400092)">∏aᵢᶻⁱ=1 mod N</text>
   </g>
   <g id="text_8">
    <text style="font-weight: 700; font-size: 10px; font-family: 'DejaVu Sans'; text-anchor: middle; fill: #ffffff" x="370.3356" y="161.801524" transform="rotate(-0 370.3356 161.801524)">3</text>
   </g>
   <g id="text_9">
    <text style="font-weight: 700; font-size: 13px; font-family: 'DejaVu Sans'; text-anchor: start; fill: #13294b" x="358.6176" y="190.538107" transform="rotate(-0 358.6176 190.538107)">Compute β</text>
   </g>
   <g id="text_10">
    <text style="font-size: 9.5px; font-family: 'DejaVu Sans'; text-anchor: start; fill: #5d6b7e" x="358.6176" y="216.400092" transform="rotate(-0 358.6176 216.400092)">∏bᵢᶻⁱ mod N</text>
   </g>
   <g id="text_11">
    <text style="font-weight: 700; font-size: 10px; font-family: 'DejaVu Sans'; text-anchor: middle; fill: #ffffff" x="517.9824" y="161.806993" transform="rotate(-0 517.9824 161.806993)">4</text>
   </g>
   <g id="text_12">
    <text style="font-weight: 700; font-size: 13px; font-family: 'DejaVu Sans'; text-anchor: start; fill: #13294b" x="506.2644" y="191.709123" transform="rotate(-0 506.2644 191.709123)">Check L₀</text>
   </g>
   <g id="text_13">
    <text style="font-size: 9.5px; font-family: 'DejaVu Sans'; fill: #5d6b7e" transform="translate(506.2644 216.353334)">β=±1 is valid</text>
    <text style="font-size: 9.5px; font-family: 'DejaVu Sans'; fill: #5d6b7e" transform="translate(506.2644 228.643959)">but useless</text>
   </g>
   <g id="text_14">
    <text style="font-weight: 700; font-size: 10px; font-family: 'DejaVu Sans'; text-anchor: middle; fill: #ffffff" x="665.6292" y="161.735899" transform="rotate(-0 665.6292 161.735899)">5</text>
   </g>
   <g id="text_15">
    <text style="font-weight: 700; font-size: 13px; font-family: 'DejaVu Sans'; text-anchor: start; fill: #13294b" x="653.9112" y="191.509044" transform="rotate(-0 653.9112 191.509044)">Extract</text>
   </g>
   <g id="text_16">
    <text style="font-size: 9.5px; font-family: 'DejaVu Sans'; fill: #5d6b7e" transform="translate(653.9112 216.353334)">β≠±1 →</text>
    <text style="font-size: 9.5px; font-family: 'DejaVu Sans'; fill: #5d6b7e" transform="translate(653.9112 227.753334)">gcd(β±1,N)</text>
   </g>
   <g id="text_17">
    <text style="font-weight: 700; font-size: 8.5px; font-family: 'DejaVu Sans'; text-anchor: start; fill: #5d6b7e" x="24.264" y="320.147067" transform="rotate(-0 24.264 320.147067)">VERIFIED IMPLEMENTATION SCHEMATIC</text>
   </g>
  </g>
 </g>
 <defs>
  <clipPath id="pac51d292d6">
   <rect x="8.64" y="8.64" width="781.2" height="321.552"/>
  </clipPath>
 </defs>
</svg>
