<?xml version="1.0" encoding="utf-8" standalone="no"?>
<!DOCTYPE svg PUBLIC "-//W3C//DTD SVG 1.1//EN"
  "http://www.w3.org/Graphics/SVG/1.1/DTD/svg11.dtd">
<svg xmlns:xlink="http://www.w3.org/1999/xlink" width="631.08pt" height="405.36pt" viewBox="0 0 631.08 405.36" xmlns="http://www.w3.org/2000/svg" version="1.1">
 <metadata>
  <rdf:RDF xmlns:dc="http://purl.org/dc/elements/1.1/" xmlns:cc="http://creativecommons.org/ns#" xmlns:rdf="http://www.w3.org/1999/02/22-rdf-syntax-ns#">
   <cc:Work>
    <dc:type rdf:resource="http://purl.org/dc/dcmitype/StillImage"/>
    <dc:date>2026-07-22T16:22:52.500046</dc:date>
    <dc:format>image/svg+xml</dc:format>
    <dc:creator>
     <cc:Agent>
      <dc:title>Matplotlib v3.11.0, https://matplotlib.org/</dc:title>
     </cc:Agent>
    </dc:creator>
   </cc:Work>
  </rdf:RDF>
 </metadata>
 <defs>
  <style type="text/css">*{stroke-linejoin: round; stroke-linecap: butt}</style>
 </defs>
 <g id="figure_1">
  <g id="patch_1">
   <path d="M 0 405.36 
L 631.08 405.36 
L 631.08 0 
L 0 0 
z
" style="fill: #fffdf7"/>
  </g>
  <g id="axes_1">
   <g id="patch_2">
    <path d="M 200.7594 226.74096 
L 283.0086 226.74096 
Q 298.3536 226.74096 298.3536 217.03896 
L 298.3536 165.03624 
Q 298.3536 155.33424 283.0086 155.33424 
L 200.7594 155.33424 
Q 185.4144 155.33424 185.4144 165.03624 
L 185.4144 217.03896 
Q 185.4144 226.74096 200.7594 226.74096 
z
" clip-path="url(#pd3629e21f3)" style="fill: #e9f5fa; stroke: #0072b2; stroke-width: 2; stroke-linejoin: miter"/>
   </g>
   <g id="patch_3">
    <path d="M 323.5194 226.74096 
L 405.7686 226.74096 
Q 421.1136 226.74096 421.1136 217.03896 
L 421.1136 165.03624 
Q 421.1136 155.33424 405.7686 155.33424 
L 323.5194 155.33424 
Q 308.1744 155.33424 308.1744 165.03624 
L 308.1744 217.03896 
Q 308.1744 226.74096 323.5194 226.74096 
z
" clip-path="url(#pd3629e21f3)" style="fill: #e9f5fa; stroke: #0072b2; stroke-width: 2; stroke-linejoin: miter"/>
   </g>
   <g id="patch_4">
    <path d="M 446.2794 226.74096 
L 528.5286 226.74096 
Q 543.8736 226.74096 543.8736 217.03896 
L 543.8736 165.03624 
Q 543.8736 155.33424 528.5286 155.33424 
L 446.2794 155.33424 
Q 430.9344 155.33424 430.9344 165.03624 
L 430.9344 217.03896 
Q 430.9344 226.74096 446.2794 226.74096 
z
" clip-path="url(#pd3629e21f3)" style="fill: #e9f5fa; stroke: #0072b2; stroke-width: 2; stroke-linejoin: miter"/>
   </g>
   <g id="patch_5">
    <path d="M 200.7594 315.99936 
L 283.0086 315.99936 
Q 298.3536 315.99936 298.3536 306.29736 
L 298.3536 254.29464 
Q 298.3536 244.59264 283.0086 244.59264 
L 200.7594 244.59264 
Q 185.4144 244.59264 185.4144 254.29464 
L 185.4144 306.29736 
Q 185.4144 315.99936 200.7594 315.99936 
z
" clip-path="url(#pd3629e21f3)" style="fill: #f0ecfa; stroke: #7e57c2; stroke-width: 2; stroke-linejoin: miter"/>
   </g>
   <g id="patch_6">
    <path d="M 323.5194 315.99936 
L 405.7686 315.99936 
Q 421.1136 315.99936 421.1136 306.29736 
L 421.1136 254.29464 
Q 421.1136 244.59264 405.7686 244.59264 
L 323.5194 244.59264 
Q 308.1744 244.59264 308.1744 254.29464 
L 308.1744 306.29736 
Q 308.1744 315.99936 323.5194 315.99936 
z
" clip-path="url(#pd3629e21f3)" style="fill: #f0ecfa; stroke: #7e57c2; stroke-width: 2; stroke-linejoin: miter"/>
   </g>
   <g id="patch_7">
    <path d="M 446.2794 315.99936 
L 528.5286 315.99936 
Q 543.8736 315.99936 543.8736 306.29736 
L 543.8736 254.29464 
Q 543.8736 244.59264 528.5286 244.59264 
L 446.2794 244.59264 
Q 430.9344 244.59264 430.9344 254.29464 
L 430.9344 306.29736 
Q 430.9344 315.99936 446.2794 315.99936 
z
" clip-path="url(#pd3629e21f3)" style="fill: #f0ecfa; stroke: #7e57c2; stroke-width: 2; stroke-linejoin: miter"/>
   </g>
   <g id="text_1">
    <text style="font-weight: 700; font-size: 25px; font-family: 'DejaVu Sans'; text-anchor: start; fill: #13294b" x="33.192" y="61.487181" transform="rotate(-0 33.192 61.487181)">A 3 × 2 primary comparison grid</text>
   </g>
   <g id="text_2">
    <text style="font-weight: 700; font-size: 14px; font-family: 'DejaVu Sans'; text-anchor: middle; fill: #13294b" x="241.884" y="130.159781" transform="rotate(-0 241.884 130.159781)">M = 8</text>
   </g>
   <g id="text_3">
    <text style="font-weight: 700; font-size: 14px; font-family: 'DejaVu Sans'; text-anchor: middle; fill: #13294b" x="364.644" y="130.153219" transform="rotate(-0 364.644 130.153219)">M = 16</text>
   </g>
   <g id="text_4">
    <text style="font-weight: 700; font-size: 14px; font-family: 'DejaVu Sans'; text-anchor: middle; fill: #13294b" x="487.404" y="130.159781" transform="rotate(-0 487.404 130.159781)">M = 32</text>
   </g>
   <g id="text_5">
    <text style="font-weight: 700; font-size: 13px; font-family: 'DejaVu Sans'; fill: #0072b2" transform="translate(57.744 188.084162)">Uniform hard-box</text>
    <text style="font-weight: 700; font-size: 13px; font-family: 'DejaVu Sans'; fill: #0072b2" transform="translate(57.744 202.919397)">(Model A)</text>
   </g>
   <g id="text_6">
    <text style="font-weight: 700; font-size: 11px; font-family: 'DejaVu Sans'; fill: #0072b2" transform="translate(215.447906 188.441428)">8 N × 64</text>
    <text style="font-weight: 700; font-size: 11px; font-family: 'DejaVu Sans'; fill: #0072b2" transform="translate(201.340406 200.672912)">paired draws</text>
   </g>
   <g id="text_7">
    <text style="font-weight: 700; font-size: 11px; font-family: 'DejaVu Sans'; fill: #0072b2" transform="translate(338.207906 188.441428)">8 N × 64</text>
    <text style="font-weight: 700; font-size: 11px; font-family: 'DejaVu Sans'; fill: #0072b2" transform="translate(324.100406 200.672912)">paired draws</text>
   </g>
   <g id="text_8">
    <text style="font-weight: 700; font-size: 11px; font-family: 'DejaVu Sans'; fill: #0072b2" transform="translate(460.967906 188.441428)">8 N × 64</text>
    <text style="font-weight: 700; font-size: 11px; font-family: 'DejaVu Sans'; fill: #0072b2" transform="translate(446.860406 200.672912)">paired draws</text>
   </g>
   <g id="text_9">
    <text style="font-weight: 700; font-size: 13px; font-family: 'DejaVu Sans'; fill: #7e57c2" transform="translate(57.744 277.342562)">Finite discrete</text>
    <text style="font-weight: 700; font-size: 13px; font-family: 'DejaVu Sans'; fill: #7e57c2" transform="translate(57.744 292.177797)">Gaussian (Model B)</text>
   </g>
   <g id="text_10">
    <text style="font-weight: 700; font-size: 11px; font-family: 'DejaVu Sans'; fill: #7e57c2" transform="translate(215.447906 277.699828)">8 N × 64</text>
    <text style="font-weight: 700; font-size: 11px; font-family: 'DejaVu Sans'; fill: #7e57c2" transform="translate(201.340406 289.931312)">paired draws</text>
   </g>
   <g id="text_11">
    <text style="font-weight: 700; font-size: 11px; font-family: 'DejaVu Sans'; fill: #7e57c2" transform="translate(338.207906 277.699828)">8 N × 64</text>
    <text style="font-weight: 700; font-size: 11px; font-family: 'DejaVu Sans'; fill: #7e57c2" transform="translate(324.100406 289.931312)">paired draws</text>
   </g>
   <g id="text_12">
    <text style="font-weight: 700; font-size: 11px; font-family: 'DejaVu Sans'; fill: #7e57c2" transform="translate(460.967906 277.699828)">8 N × 64</text>
    <text style="font-weight: 700; font-size: 11px; font-family: 'DejaVu Sans'; fill: #7e57c2" transform="translate(446.860406 289.931312)">paired draws</text>
   </g>
   <g id="text_13">
    <text style="font-weight: 700; font-size: 12px; font-family: 'DejaVu Sans'; text-anchor: middle; fill: #009e73" x="315.54" y="341.772375" transform="rotate(-0 315.54 341.772375)">Every cutoff compared with exact QFT using coupled random draws</text>
   </g>
   <g id="text_14">
    <text style="font-weight: 700; font-size: 8.5px; font-family: 'DejaVu Sans'; text-anchor: start; fill: #5d6b7e" x="20.916" y="385.011867" transform="rotate(-0 20.916 385.011867)">VERIFIED FROZEN FACTORIAL DESIGN</text>
   </g>
  </g>
 </g>
 <defs>
  <clipPath id="pd3629e21f3">
   <rect x="8.64" y="8.64" width="613.8" height="388.08"/>
  </clipPath>
 </defs>
</svg>
