<?xml version="1.0" encoding="utf-8" standalone="no"?>
<!DOCTYPE svg PUBLIC "-//W3C//DTD SVG 1.1//EN"
  "http://www.w3.org/Graphics/SVG/1.1/DTD/svg11.dtd">
<svg xmlns:xlink="http://www.w3.org/1999/xlink" width="686.88pt" height="405.36pt" viewBox="0 0 686.88 405.36" xmlns="http://www.w3.org/2000/svg" version="1.1">
 <metadata>
  <rdf:RDF xmlns:dc="http://purl.org/dc/elements/1.1/" xmlns:cc="http://creativecommons.org/ns#" xmlns:rdf="http://www.w3.org/1999/02/22-rdf-syntax-ns#">
   <cc:Work>
    <dc:type rdf:resource="http://purl.org/dc/dcmitype/StillImage"/>
    <dc:date>2026-07-22T16:22:54.811943</dc:date>
    <dc:format>image/svg+xml</dc:format>
    <dc:creator>
     <cc:Agent>
      <dc:title>Matplotlib v3.11.0, https://matplotlib.org/</dc:title>
     </cc:Agent>
    </dc:creator>
   </cc:Work>
  </rdf:RDF>
 </metadata>
 <defs>
  <style type="text/css">*{stroke-linejoin: round; stroke-linecap: butt}</style>
 </defs>
 <g id="figure_1">
  <g id="patch_1">
   <path d="M 0 405.36 
L 686.88 405.36 
L 686.88 0 
L 0 0 
z
" style="fill: #fffdf7"/>
  </g>
  <g id="axes_1">
   <g id="patch_2">
    <path d="M 57.5208 174.35016 
L 629.3592 174.35016 
Q 646.0992 174.35016 646.0992 164.64816 
L 646.0992 116.52624 
Q 646.0992 106.82424 629.3592 106.82424 
L 57.5208 106.82424 
Q 40.7808 106.82424 40.7808 116.52624 
L 40.7808 164.64816 
Q 40.7808 174.35016 57.5208 174.35016 
z
" clip-path="url(#paf78567c9b)" style="fill: #ffffff; stroke: #0072b2; stroke-width: 2; stroke-linejoin: miter"/>
   </g>
   <g id="patch_3">
    <path d="M 57.5208 251.96616 
L 629.3592 251.96616 
Q 646.0992 251.96616 646.0992 242.26416 
L 646.0992 194.14224 
Q 646.0992 184.44024 629.3592 184.44024 
L 57.5208 184.44024 
Q 40.7808 184.44024 40.7808 194.14224 
L 40.7808 242.26416 
Q 40.7808 251.96616 57.5208 251.96616 
z
" clip-path="url(#paf78567c9b)" style="fill: #ffffff; stroke: #009e73; stroke-width: 2; stroke-linejoin: miter"/>
   </g>
   <g id="patch_4">
    <path d="M 57.5208 329.58216 
L 629.3592 329.58216 
Q 646.0992 329.58216 646.0992 319.88016 
L 646.0992 271.75824 
Q 646.0992 262.05624 629.3592 262.05624 
L 57.5208 262.05624 
Q 40.7808 262.05624 40.7808 271.75824 
L 40.7808 319.88016 
Q 40.7808 329.58216 57.5208 329.58216 
z
" clip-path="url(#paf78567c9b)" style="fill: #ffffff; stroke: #ff5f05; stroke-width: 2; stroke-linejoin: miter"/>
   </g>
   <g id="text_1">
    <text style="font-weight: 700; font-size: 25px; font-family: 'DejaVu Sans'; text-anchor: start; fill: #13294b" x="35.424" y="62.409056" transform="rotate(-0 35.424 62.409056)">Three claims, three evidence labels</text>
   </g>
   <g id="text_2">
    <text style="font-weight: 700; font-size: 10px; font-family: 'DejaVu Sans'; text-anchor: start; fill: #0072b2" x="68.904" y="134.525044" transform="rotate(-0 68.904 134.525044)">VERIFIED CORRECTION</text>
   </g>
   <g id="text_3">
    <text style="font-weight: 700; font-size: 13px; font-family: 'DejaVu Sans'; text-anchor: start; fill: #15243a" x="68.904" y="157.706406" transform="rotate(-0 68.904 157.706406)">QFT gate-order bug fixed before holdout</text>
   </g>
   <g id="text_4">
    <text style="font-weight: 700; font-size: 10px; font-family: 'DejaVu Sans'; text-anchor: start; fill: #009e73" x="68.904" y="212.141044" transform="rotate(-0 68.904 212.141044)">VERIFIED EMPIRICAL RESULT</text>
   </g>
   <g id="text_5">
    <text style="font-weight: 700; font-size: 13px; font-family: 'DejaVu Sans'; text-anchor: start; fill: #15243a" x="68.904" y="235.322406" transform="rotate(-0 68.904 235.322406)">One omitted layer passed all six frozen cells</text>
   </g>
   <g id="text_6">
    <text style="font-weight: 700; font-size: 10px; font-family: 'DejaVu Sans'; text-anchor: start; fill: #ff5f05" x="68.904" y="289.757044" transform="rotate(-0 68.904 289.757044)">UNVERIFIED GENERALIZATION</text>
   </g>
   <g id="text_7">
    <text style="font-weight: 700; font-size: 13px; font-family: 'DejaVu Sans'; text-anchor: start; fill: #15243a" x="68.904" y="312.938406" transform="rotate(-0 68.904 312.938406)">Full asymptotic Regev sampling may behave differently</text>
   </g>
   <g id="text_8">
    <text style="font-weight: 700; font-size: 8.5px; font-family: 'DejaVu Sans'; text-anchor: start; fill: #5d6b7e" x="22.032" y="385.011867" transform="rotate(-0 22.032 385.011867)">EVIDENCE-CALIBRATED CLAIM LANGUAGE</text>
   </g>
  </g>
 </g>
 <defs>
  <clipPath id="paf78567c9b">
   <rect x="8.64" y="8.64" width="669.6" height="388.08"/>
  </clipPath>
 </defs>
</svg>
