<?xml version="1.0" encoding="utf-8" standalone="no"?>
<!DOCTYPE svg PUBLIC "-//W3C//DTD SVG 1.1//EN"
  "http://www.w3.org/Graphics/SVG/1.1/DTD/svg11.dtd">
<svg xmlns:xlink="http://www.w3.org/1999/xlink" width="463.68pt" height="460.8pt" viewBox="0 0 463.68 460.8" xmlns="http://www.w3.org/2000/svg" version="1.1">
 <metadata>
  <rdf:RDF xmlns:dc="http://purl.org/dc/elements/1.1/" xmlns:cc="http://creativecommons.org/ns#" xmlns:rdf="http://www.w3.org/1999/02/22-rdf-syntax-ns#">
   <cc:Work>
    <dc:type rdf:resource="http://purl.org/dc/dcmitype/StillImage"/>
    <dc:date>2026-07-22T16:22:55.025521</dc:date>
    <dc:format>image/svg+xml</dc:format>
    <dc:creator>
     <cc:Agent>
      <dc:title>Matplotlib v3.11.0, https://matplotlib.org/</dc:title>
     </cc:Agent>
    </dc:creator>
   </cc:Work>
  </rdf:RDF>
 </metadata>
 <defs>
  <style type="text/css">*{stroke-linejoin: round; stroke-linecap: butt}</style>
 </defs>
 <g id="figure_1">
  <g id="patch_1">
   <path d="M 0 460.8 
L 463.68 460.8 
L 463.68 0 
L 0 0 
z
" style="fill: #13294b"/>
  </g>
  <g id="axes_1">
   <g id="patch_2">
    <path d="M 231.84 241.488 
C 234.799667 241.488 237.638511 240.319698 239.731312 238.2404 
C 241.824112 236.161102 243 233.340572 243 230.4 
C 243 227.459428 241.824112 224.638898 239.731312 222.5596 
C 237.638511 220.480302 234.799667 219.312 231.84 219.312 
C 228.880333 219.312 226.041489 220.480302 223.948688 222.5596 
C 221.855888 224.638898 220.68 227.459428 220.68 230.4 
C 220.68 233.340572 221.855888 236.161102 223.948688 238.2404 
C 226.041489 240.319698 228.880333 241.488 231.84 241.488 
z
" clip-path="url(#p26d7386994)" style="fill: #ff5f05; stroke: #ffffff; stroke-linejoin: miter"/>
   </g>
   <g id="line2d_1">
    <path d="M 267.552 230.4 
L 268.364055 228.112339 
L 268.846664 226.215385 
L 269.132576 224.280197 
L 269.186263 222.333792 
L 268.983607 220.407779 
L 268.513736 218.535491 
L 267.779767 216.748879 
L 266.798406 215.075465 
L 265.598444 213.535662 
L 264.218298 212.140709 
L 262.70281 210.891448 
L 260.690623 209.518833 
L 257.811837 207.871847 
L 252.82199 205.110123 
L 250.769118 203.710064 
L 248.829622 202.130298 
L 245.943949 199.434941 
L 243.171356 196.90261 
L 241.257721 195.405915 
L 239.184062 194.0906 
L 237.415438 193.232298 
L 235.565282 192.59184 
L 233.656744 192.201237 
L 231.718591 192.080413 
L 229.782439 192.23559 
L 227.879716 192.658782 
L 226.038628 193.328445 
L 224.281453 194.211219 
L 222.622411 195.26461 
L 220.693033 196.747574 
L 218.234033 198.960586 
L 214.051219 202.811984 
L 212.073074 204.312968 
L 209.956183 205.653152 
L 206.476906 207.54699 
L 203.194601 209.391833 
L 201.173775 210.745158 
L 199.28082 212.307024 
L 197.920843 213.72035 
L 196.746274 215.277673 
L 195.79449 216.966521 
L 195.092888 218.765466 
L 194.656537 220.646276 
L 194.486802 222.576655 
L 194.571092 224.523318 
L 194.883741 226.455082 
L 195.538825 228.809483 
L 196.403722 231.065058 
L 197.980375 234.443454 
L 199.808831 238.374953 
L 200.662435 240.702558 
L 201.314709 243.102457 
L 201.9838 246.503994 
L 202.901441 251.069 
L 203.580789 253.395926 
L 204.295559 255.218478 
L 205.19017 256.961377 
L 206.278547 258.581919 
L 207.562704 260.039996 
L 209.032852 261.301514 
L 210.668534 262.341402 
L 212.440674 263.145922 
L 214.314318 263.714067 
L 216.251825 264.057895 
L 218.216178 264.201765 
L 220.659298 264.154271 
L 223.971997 263.817295 
L 230.077193 263.097204 
L 232.564291 263.052354 
L 235.073539 263.217426 
L 239.47804 263.786928 
L 242.779018 264.138493 
L 245.218107 264.207327 
L 247.183369 264.08619 
L 249.126207 263.768926 
L 251.009912 263.229745 
L 252.796738 262.454985 
L 254.451217 261.444019 
L 255.943375 260.209047 
L 257.25155 258.773834 
L 258.364537 257.171498 
L 259.282847 255.441577 
L 260.018946 253.626646 
L 260.719699 251.302211 
L 261.413643 248.070384 
L 262.615134 242.089421 
L 263.34745 239.728127 
L 264.287647 237.408183 
L 266.399414 232.999042 
L 267.552 230.4 
L 267.552 230.4 
" clip-path="url(#p26d7386994)" style="fill: none; stroke: #28a9c7; stroke-opacity: 0.8; stroke-width: 3; stroke-linecap: square"/>
   </g>
   <g id="line2d_2">
    <path d="M 289.234286 230.4 
L 290.304163 227.471903 
L 291.148152 224.444131 
L 291.588214 222.124854 
L 291.832913 219.782364 
L 291.860779 217.436452 
L 291.656467 215.108917 
L 291.211405 212.822443 
L 290.524139 210.59941 
L 289.60034 208.460698 
L 288.452493 206.424557 
L 287.099261 204.505595 
L 285.564586 202.713955 
L 283.876551 201.054711 
L 281.440945 199.046969 
L 278.864352 197.257601 
L 275.558834 195.278386 
L 263.882126 188.662476 
L 261.208324 186.693543 
L 258.633993 184.513512 
L 254.507061 180.634726 
L 250.636714 177.067115 
L 248.236232 175.095511 
L 245.673432 173.270206 
L 243.642956 172.045607 
L 241.524617 170.980608 
L 239.328105 170.104147 
L 237.06735 169.440692 
L 234.759768 169.009131 
L 232.425316 168.821911 
L 230.085417 168.884469 
L 227.761787 169.194988 
L 225.475259 169.744471 
L 223.244646 170.517162 
L 221.08573 171.491259 
L 219.010399 172.639905 
L 216.385339 174.389525 
L 213.925232 176.315744 
L 211.062661 178.849803 
L 202.732323 186.485231 
L 200.071725 188.474413 
L 197.254989 190.282619 
L 193.630161 192.316983 
L 186.464085 196.236645 
L 183.837762 197.904713 
L 181.305043 199.773067 
L 179.512747 201.322003 
L 177.848184 203.003439 
L 176.341896 204.816794 
L 175.021361 206.756119 
L 173.909716 208.81048 
L 173.024651 210.964597 
L 172.377548 213.199709 
L 171.972906 215.494603 
L 171.808075 217.826767 
L 171.873321 220.173582 
L 172.152224 222.513508 
L 172.622379 224.827189 
L 173.498827 227.843812 
L 174.591362 230.758104 
L 176.137878 234.238821 
L 180.613531 243.837394 
L 181.7332 246.957682 
L 182.62629 250.159327 
L 183.475547 254.183084 
L 185.331601 263.618035 
L 186.177051 266.61344 
L 187.259147 269.563874 
L 188.253065 271.707705 
L 189.417557 273.760106 
L 190.759093 275.692371 
L 192.278011 277.477563 
L 193.968607 279.091823 
L 195.819527 280.515549 
L 197.81443 281.734396 
L 199.932888 282.740043 
L 202.151469 283.530682 
L 204.444948 284.111199 
L 206.787576 284.493045 
L 209.154347 284.693777 
L 212.308131 284.719953 
L 215.418145 284.531202 
L 219.932612 284.008203 
L 227.661273 283.04726 
L 231.008725 282.869699 
L 234.338343 282.930015 
L 237.720524 283.21477 
L 244.115422 284.057563 
L 248.646941 284.564062 
L 251.76453 284.729889 
L 254.92078 284.671986 
L 257.285196 284.442527 
L 259.621404 284.028631 
L 261.90419 283.413715 
L 264.107803 282.5874 
L 266.207229 281.545914 
L 268.179456 280.292173 
L 270.004665 278.835542 
L 271.667291 277.191304 
L 273.156881 275.379844 
L 274.46872 273.425622 
L 275.60417 271.355961 
L 276.57071 269.199732 
L 277.620507 266.240191 
L 278.440183 263.243448 
L 279.23151 259.53015 
L 281.133943 249.833751 
L 282.048132 246.64309 
L 283.191418 243.527134 
L 284.856731 239.782981 
L 289.234286 230.4 
L 289.234286 230.4 
" clip-path="url(#p26d7386994)" style="fill: none; stroke: #0072b2; stroke-opacity: 0.8; stroke-width: 2; stroke-linecap: square"/>
   </g>
   <g id="line2d_3">
    <path d="M 310.916571 230.4 
L 312.390624 226.365732 
L 313.297707 223.248037 
L 313.985886 220.06863 
L 314.416418 216.849009 
L 314.557183 213.615204 
L 314.384103 210.396492 
L 314.086559 208.274368 
L 313.640603 206.182033 
L 313.046131 204.128588 
L 312.304986 202.122725 
L 311.420914 200.172518 
L 310.399469 198.285222 
L 308.626005 195.585627 
L 306.590841 193.057537 
L 304.330956 190.71034 
L 301.887858 188.54609 
L 299.305665 186.5593 
L 296.629107 184.737139 
L 292.988089 182.528989 
L 287.554892 179.560203 
L 280.704236 175.839546 
L 276.748375 173.405879 
L 273.754476 171.300857 
L 270.873867 169.016291 
L 267.350267 165.897118 
L 256.110958 155.542682 
L 252.693526 152.913098 
L 249.980891 151.10366 
L 247.141904 149.484994 
L 244.185612 148.100089 
L 241.12741 146.986951 
L 237.988218 146.176883 
L 235.862791 145.817025 
L 233.72087 145.606987 
L 231.571165 145.549487 
L 229.422575 145.645269 
L 227.283973 145.893092 
L 224.113557 146.54238 
L 221.01194 147.507418 
L 218.0024 148.760808 
L 215.103218 150.267699 
L 212.326695 151.987362 
L 209.678509 153.875033 
L 206.344119 156.572353 
L 202.458231 160.080349 
L 193.160759 168.71735 
L 190.290837 171.025549 
L 187.313507 173.151613 
L 184.189541 175.127164 
L 180.05285 177.468199 
L 169.322073 183.330489 
L 165.703584 185.628716 
L 163.068656 187.531147 
L 160.55041 189.605514 
L 158.193521 191.861023 
L 156.041048 194.299391 
L 154.132465 196.914846 
L 152.501824 199.694533 
L 151.582819 201.629657 
L 150.805519 203.622334 
L 150.174131 205.664677 
L 149.690979 207.748131 
L 149.356449 209.863675 
L 149.129348 213.076879 
L 149.219242 216.310268 
L 149.603508 219.534166 
L 150.251278 222.721905 
L 151.124799 225.851153 
L 152.181109 228.904985 
L 153.793704 232.841767 
L 155.980282 237.538954 
L 160.181949 246.347081 
L 161.59597 249.769173 
L 162.803964 253.212807 
L 163.810805 256.728664 
L 164.840317 261.285139 
L 166.44942 270.030248 
L 167.51255 275.135313 
L 168.607644 279.264778 
L 169.627007 282.339833 
L 170.848737 285.355201 
L 172.294969 288.271402 
L 173.980113 291.048293 
L 175.910282 293.64693 
L 178.083131 296.03142 
L 179.661637 297.486512 
L 181.338458 298.824781 
L 183.107216 300.039966 
L 184.960326 301.12739 
L 186.88918 302.084076 
L 189.903685 303.271853 
L 193.033134 304.166863 
L 196.242096 304.781914 
L 199.495588 305.138486 
L 202.760761 305.265836 
L 206.008422 305.199715 
L 210.270344 304.881326 
L 215.434265 304.260191 
L 225.148883 303.020891 
L 228.858298 302.751577 
L 232.527087 302.68487 
L 236.205385 302.830306 
L 240.890408 303.275856 
L 257.133788 305.172684 
L 260.376024 305.267205 
L 263.640186 305.174736 
L 266.897825 304.858592 
L 270.116602 304.288336 
L 273.261773 303.441118 
L 276.297861 302.30264 
L 278.244205 301.378896 
L 280.117094 300.323946 
L 281.907694 299.140327 
L 283.608148 297.832302 
L 285.211759 296.405748 
L 286.713156 294.868018 
L 288.765481 292.372229 
L 290.572904 289.679745 
L 292.137301 286.828212 
L 293.468979 283.857408 
L 294.586309 280.807375 
L 295.514948 277.716582 
L 296.515242 273.592297 
L 297.686959 267.533477 
L 299.127364 259.896412 
L 300.224729 255.398894 
L 301.304547 251.915544 
L 302.590843 248.486274 
L 304.476488 244.195012 
L 310.916571 230.4 
L 310.916571 230.4 
" clip-path="url(#p26d7386994)" style="fill: none; stroke: #7e57c2; stroke-opacity: 0.8; stroke-width: 4; stroke-linecap: square"/>
   </g>
   <g id="line2d_4">
    <path d="M 332.598857 230.4 
L 334.039315 226.562537 
L 335.275969 222.621093 
L 336.25166 218.593408 
L 336.731309 215.872522 
L 337.058339 213.133414 
L 337.221059 210.386189 
L 337.209813 207.641771 
L 337.017164 204.911659 
L 336.638035 202.207662 
L 336.0698 199.541622 
L 335.312328 196.925136 
L 334.367966 194.369279 
L 333.241487 191.884337 
L 331.939969 189.479558 
L 330.472645 187.16292 
L 328.850702 184.940934 
L 327.087039 182.818475 
L 325.195995 180.79865 
L 322.154699 177.963576 
L 318.917215 175.358013 
L 315.540566 172.968673 
L 312.080858 170.773361 
L 307.42912 168.095267 
L 291.039187 159.04642 
L 287.133002 156.463909 
L 283.397725 153.670887 
L 279.775005 150.639055 
L 275.28934 146.526319 
L 265.850726 137.6601 
L 261.704004 134.156683 
L 258.411428 131.66669 
L 254.955007 129.361115 
L 251.337588 127.298622 
L 248.841883 126.085957 
L 246.28503 125.02056 
L 243.673958 124.115632 
L 241.016904 123.382548 
L 238.323221 122.830633 
L 235.603145 122.466967 
L 232.867555 122.296243 
L 230.127704 122.320672 
L 227.394948 122.539937 
L 224.680471 122.951201 
L 221.995016 123.549162 
L 219.348621 124.326164 
L 216.750379 125.272352 
L 214.208219 126.375868 
L 211.728713 127.623099 
L 208.137557 129.730047 
L 204.708484 132.070499 
L 201.442872 134.585397 
L 197.32903 138.106649 
L 192.51254 142.589366 
L 184.353542 150.243203 
L 180.739856 153.305184 
L 177.022265 156.127188 
L 173.139862 158.733375 
L 169.0553 161.178843 
L 163.656084 164.132526 
L 154.507468 169.070693 
L 149.862309 171.848472 
L 146.437271 174.137504 
L 143.123075 176.632718 
L 139.9766 179.351961 
L 138.000132 181.293884 
L 136.139521 183.339558 
L 134.409995 185.487261 
L 132.82556 187.733433 
L 131.398712 190.072777 
L 130.140169 192.498398 
L 129.058643 195.001981 
L 128.16065 197.573995 
L 127.450362 200.203933 
L 126.929514 202.880564 
L 126.597348 205.592203 
L 126.45062 208.326991 
L 126.483652 211.073171 
L 126.688438 213.819363 
L 127.054793 216.554825 
L 127.880177 220.616621 
L 128.993211 224.603889 
L 130.339154 228.495062 
L 131.859074 232.276413 
L 134.05183 237.139263 
L 141.466346 252.900761 
L 143.13844 257.266324 
L 144.546359 261.692752 
L 145.715072 266.239076 
L 146.933516 272.152526 
L 149.57482 286.089709 
L 150.887941 291.348499 
L 152.108655 295.281364 
L 153.575835 299.154357 
L 155.320715 302.917971 
L 156.649408 305.341027 
L 158.115306 307.677664 
L 159.720186 309.913273 
L 161.463687 312.034018 
L 163.343344 314.027132 
L 165.354666 315.881201 
L 167.491261 317.586415 
L 169.745002 319.134795 
L 172.106222 320.520384 
L 174.563955 321.739388 
L 177.106187 322.790281 
L 179.720135 323.673863 
L 182.392541 324.393261 
L 185.109964 324.953886 
L 189.241457 325.514331 
L 193.401358 325.769266 
L 197.550718 325.761696 
L 201.656388 325.541579 
L 207.018952 325.012291 
L 216.006706 323.813403 
L 223.314221 322.93307 
L 228.040735 322.589913 
L 232.715482 322.504915 
L 237.402345 322.690229 
L 242.163586 323.119262 
L 249.554577 324.07299 
L 258.654561 325.235133 
L 264.069181 325.674872 
L 268.200418 325.79531 
L 272.359592 325.677487 
L 276.510455 325.274658 
L 279.252879 324.828235 
L 281.960306 324.228546 
L 284.619356 323.468522 
L 287.216604 322.543314 
L 289.738884 321.450377 
L 292.173579 320.189494 
L 294.508911 318.762765 
L 296.734215 317.174536 
L 298.84019 315.431286 
L 300.819123 313.541469 
L 302.665084 311.515319 
L 304.37408 309.364615 
L 305.944166 307.102416 
L 307.375512 304.742782 
L 308.670431 302.300464 
L 310.367247 298.515085 
L 311.790943 294.628752 
L 312.974207 290.690483 
L 314.248777 285.435346 
L 315.513732 278.9807 
L 317.577125 267.984138 
L 318.669843 263.380867 
L 319.983164 258.915648 
L 321.555641 254.534934 
L 323.388717 250.173089 
L 325.987005 244.64226 
L 331.014641 234.12389 
L 332.598857 230.4 
L 332.598857 230.4 
" clip-path="url(#p26d7386994)" style="fill: none; stroke: #ff5f05; stroke-opacity: 0.8; stroke-width: 2; stroke-linecap: square"/>
   </g>
   <g id="line2d_5">
    <path d="M 354.281143 230.4 
L 356.031573 225.736754 
L 357.534342 220.947151 
L 358.364058 217.694146 
L 359.03363 214.403041 
L 359.525684 211.084115 
L 359.82488 207.749043 
L 359.918218 204.410638 
L 359.795286 201.082563 
L 359.448464 197.779022 
L 358.87306 194.514427 
L 358.067398 191.303061 
L 357.032829 188.158741 
L 355.773693 185.094487 
L 354.297209 182.122203 
L 352.613318 179.252388 
L 350.734459 176.493874 
L 348.675305 173.853602 
L 346.45245 171.336438 
L 344.084062 168.945043 
L 341.589507 166.679789 
L 338.988955 164.538728 
L 334.934362 161.550126 
L 330.756421 158.807428 
L 326.520911 156.277144 
L 320.886298 153.160617 
L 307.500752 145.919296 
L 302.569258 142.927943 
L 299.031496 140.553611 
L 295.611171 138.034624 
L 292.279536 135.354257 
L 287.912218 131.525007 
L 282.434319 126.376851 
L 274.380746 118.789962 
L 270.690362 115.551806 
L 266.818627 112.41709 
L 262.751433 109.457894 
L 259.929122 107.61857 
L 257.01964 105.910628 
L 254.02664 104.35415 
L 250.955787 102.96788 
L 247.814625 101.768847 
L 244.612396 100.772022 
L 241.359821 99.990013 
L 238.068837 99.432812 
L 234.752314 99.107593 
L 231.423739 99.01856 
L 228.096891 99.166868 
L 224.785507 99.550595 
L 221.50295 100.164782 
L 218.261885 101.001538 
L 215.073972 102.050195 
L 211.949583 103.297527 
L 208.897557 104.728019 
L 205.924982 106.324179 
L 203.037031 108.066892 
L 198.870056 110.910986 
L 194.901718 113.967064 
L 191.123047 117.162348 
L 186.345649 121.517959 
L 173.044075 133.951871 
L 168.629364 137.59937 
L 165.226043 140.144431 
L 161.709474 142.541193 
L 156.809771 145.553665 
L 151.653445 148.441082 
L 136.451804 156.685793 
L 132.22154 159.248776 
L 128.059469 162.030384 
L 124.032091 165.062543 
L 121.456119 167.234344 
L 118.99124 169.531041 
L 116.65746 171.954004 
L 114.473881 174.502282 
L 112.458315 177.172655 
L 110.626904 179.959722 
L 108.993792 182.856051 
L 107.570817 185.852372 
L 106.367256 188.937807 
L 105.389622 192.100145 
L 104.641516 195.326138 
L 104.123533 198.60182 
L 103.833239 201.912843 
L 103.765201 205.244816 
L 103.911085 208.583641 
L 104.259811 211.915838 
L 104.797767 215.228852 
L 105.509076 218.511337 
L 106.375907 221.753396 
L 107.924911 226.523176 
L 109.709572 231.163955 
L 112.329092 237.135247 
L 116.428772 245.649182 
L 120.291946 253.762897 
L 122.556865 259.066441 
L 124.050763 263.047685 
L 125.363131 267.070758 
L 126.504472 271.166964 
L 127.804186 276.785257 
L 129.206331 284.107886 
L 131.527828 296.484694 
L 132.622083 301.265141 
L 133.931835 306.061592 
L 135.510204 310.822968 
L 136.734179 313.949599 
L 138.108374 317.017197 
L 139.641242 320.007332 
L 141.338789 322.90156 
L 143.204471 325.681802 
L 145.239147 328.33073 
L 147.44109 330.832134 
L 149.80606 333.171282 
L 152.327422 335.335241 
L 154.996325 337.313172 
L 157.801926 339.096581 
L 160.731651 340.679524 
L 163.771495 342.058758 
L 166.90635 343.233837 
L 170.120349 344.207149 
L 173.397223 344.983892 
L 176.720665 345.571995 
L 180.074682 345.981972 
L 183.443941 346.226724 
L 188.495334 346.317475 
L 193.506166 346.128928 
L 198.441822 345.725924 
L 204.863988 344.973581 
L 221.47956 342.84525 
L 227.223172 342.428248 
L 231.4854 342.319755 
L 235.744853 342.397425 
L 240.034522 342.654999 
L 245.853535 343.240035 
L 254.906963 344.444193 
L 264.424784 345.642693 
L 269.345204 346.074832 
L 274.345665 346.303763 
L 279.393072 346.263816 
L 282.763852 346.058096 
L 286.123085 345.690724 
L 289.45565 345.148235 
L 292.745688 344.419499 
L 295.976938 343.495925 
L 299.133089 342.371622 
L 302.198138 341.043496 
L 305.156755 339.511284 
L 307.994627 337.777537 
L 310.698793 335.847537 
L 313.257952 333.729157 
L 315.662731 331.432671 
L 317.905925 328.970515 
L 319.98268 326.357 
L 321.890632 323.607999 
L 323.629989 320.740596 
L 325.203562 317.772716 
L 326.616726 314.722749 
L 327.877335 311.609163 
L 329.505081 306.859073 
L 330.856112 302.064724 
L 331.982311 297.278395 
L 333.235347 290.984175 
L 336.337853 274.654937 
L 337.726032 269.107965 
L 338.950681 265.051926 
L 340.353407 261.053956 
L 341.937437 257.080706 
L 344.309401 251.760018 
L 348.271547 243.565769 
L 351.688201 236.402433 
L 354.281143 230.4 
L 354.281143 230.4 
" clip-path="url(#p26d7386994)" style="fill: none; stroke: #009e73; stroke-opacity: 0.8; stroke-width: 3; stroke-linecap: square"/>
   </g>
   <g id="line2d_6">
    <path d="M 375.963429 230.4 
L 378.023831 224.91097 
L 379.240651 221.167654 
L 380.303239 217.364971 
L 381.188324 213.51209 
L 381.874405 209.620189 
L 382.342181 205.702225 
L 382.574932 201.77265 
L 382.558846 197.84709 
L 382.283285 193.941994 
L 381.740986 190.074251 
L 380.928195 186.260801 
L 379.844722 182.518232 
L 378.493927 178.862386 
L 376.882633 175.307976 
L 375.020968 171.868228 
L 372.922138 168.554556 
L 370.602144 165.376273 
L 368.079435 162.34035 
L 365.374525 159.451234 
L 362.509561 156.710718 
L 359.507871 154.117874 
L 356.393485 151.669056 
L 353.190655 149.357961 
L 348.272871 146.129577 
L 343.287323 143.151221 
L 336.654913 139.48281 
L 320.89901 130.959172 
L 316.517318 128.337284 
L 312.301339 125.59244 
L 308.232512 122.687046 
L 304.280449 119.596614 
L 300.405261 116.31156 
L 295.276753 111.64218 
L 279.040637 96.4752 
L 274.556866 92.735508 
L 269.847232 89.173873 
L 266.577284 86.940739 
L 263.2035 84.849991 
L 259.728955 82.925876 
L 256.159148 81.191305 
L 252.501878 79.667383 
L 248.767053 78.372992 
L 244.966458 77.324405 
L 241.113468 76.534957 
L 237.222727 76.014776 
L 233.309794 75.770575 
L 229.390767 75.805518 
L 225.481887 76.11915 
L 221.599155 76.707413 
L 217.757934 77.562725 
L 213.972585 78.674133 
L 210.256112 80.027541 
L 206.619858 81.605989 
L 203.073223 83.390003 
L 199.623445 85.357984 
L 196.275428 87.486644 
L 193.031629 89.751473 
L 188.360564 93.348732 
L 183.912753 97.109848 
L 178.289357 102.236765 
L 162.632297 116.872515 
L 158.747389 120.125137 
L 154.778411 123.183643 
L 150.686876 126.060198 
L 146.444218 128.781618 
L 140.525881 132.238756 
L 132.715527 136.458902 
L 122.888491 141.740735 
L 117.896036 144.61202 
L 112.935054 147.709796 
L 108.079876 151.078674 
L 104.941107 153.492369 
L 101.908973 156.048759 
L 99.007606 158.752163 
L 96.260552 161.604192 
L 93.690298 164.603728 
L 91.317808 167.746979 
L 89.162085 171.027589 
L 87.239777 174.43681 
L 85.564816 177.963729 
L 84.148124 181.595544 
L 82.997368 185.317879 
L 82.116784 189.115142 
L 81.507076 192.970892 
L 81.165376 196.868242 
L 81.085289 200.790252 
L 81.257006 204.720327 
L 81.667485 208.6426 
L 82.300705 212.542295 
L 83.137975 216.406053 
L 84.158308 220.222227 
L 85.338831 223.981127 
L 87.356547 229.496221 
L 89.594332 234.850316 
L 92.771383 241.733971 
L 101.237423 259.464841 
L 103.204643 264.14279 
L 104.963085 268.829046 
L 106.507852 273.564538 
L 107.851306 278.386114 
L 109.022145 283.323757 
L 110.391484 290.121967 
L 114.169553 310.057431 
L 115.534695 315.696812 
L 117.175261 321.335972 
L 118.451803 325.064535 
L 119.892523 328.74484 
L 121.510065 332.355659 
L 123.314378 335.875297 
L 125.312532 339.282044 
L 127.508596 342.554621 
L 129.903579 345.67263 
L 132.49545 348.616991 
L 135.279217 351.370363 
L 138.247069 353.917523 
L 141.388591 356.245712 
L 144.691017 358.344934 
L 148.139547 360.20819 
L 151.717698 361.831663 
L 155.407683 363.214829 
L 159.190827 364.360498 
L 163.047981 365.27479 
L 166.959949 365.967036 
L 170.907907 366.449612 
L 174.873805 366.737707 
L 178.840741 366.849024 
L 184.759867 366.728513 
L 190.602898 366.329464 
L 198.219293 365.502091 
L 221.346753 362.60312 
L 226.405608 362.266584 
L 231.422606 362.138878 
L 236.436337 362.230302 
L 241.485635 362.533489 
L 248.335099 363.222124 
L 257.178573 364.387948 
L 268.290459 365.841516 
L 274.044097 366.411979 
L 279.902437 366.770029 
L 285.830219 366.836714 
L 289.798404 366.682987 
L 293.761452 366.34784 
L 297.702142 365.814164 
L 301.602193 365.067452 
L 305.442649 364.096067 
L 309.204288 362.89147 
L 312.868038 361.44836 
L 316.415406 359.764762 
L 319.828897 357.84203 
L 323.092411 355.68479 
L 326.191625 353.300808 
L 329.114335 350.700798 
L 331.850752 347.898162 
L 334.393756 344.908688 
L 336.739082 341.75019 
L 338.885453 338.442116 
L 340.834647 335.005127 
L 342.591489 331.460651 
L 344.163784 327.830438 
L 345.562175 324.136105 
L 346.799939 320.398701 
L 348.390215 314.755353 
L 349.715845 309.121444 
L 351.190773 301.712622 
L 354.476648 284.15959 
L 355.622567 279.200309 
L 356.934839 274.361247 
L 358.444738 269.613814 
L 360.167436 264.922121 
L 362.100941 260.245714 
L 364.970901 253.961708 
L 374.470232 233.969454 
L 375.963429 230.4 
L 375.963429 230.4 
" clip-path="url(#p26d7386994)" style="fill: none; stroke: #28a9c7; stroke-opacity: 0.8; stroke-width: 2; stroke-linecap: square"/>
   </g>
   <g id="line2d_7">
    <path d="M 397.645714 230.4 
L 400.016089 224.085187 
L 401.41597 219.778717 
L 402.638417 215.403949 
L 403.656656 210.971431 
L 404.445952 206.494023 
L 404.984102 201.986631 
L 405.251869 197.46588 
L 405.233363 192.94975 
L 404.916346 188.457161 
L 404.292462 184.007546 
L 403.357393 179.620391 
L 402.110919 175.314781 
L 400.556907 171.10894 
L 398.703206 167.019795 
L 396.561467 163.062563 
L 394.146885 159.250375 
L 391.477865 155.593942 
L 388.575633 152.101288 
L 385.46379 148.777526 
L 382.167814 145.624719 
L 378.714542 142.641802 
L 375.13162 139.824578 
L 371.446948 137.165796 
L 365.789321 133.451726 
L 360.053734 130.025299 
L 352.423528 125.805002 
L 334.297268 115.999047 
L 329.256384 112.982716 
L 324.406142 109.824931 
L 319.725191 106.482442 
L 315.17857 102.927078 
L 310.720389 99.147813 
L 304.820335 93.775959 
L 286.141618 76.327221 
L 280.983298 72.024921 
L 277.400958 69.264433 
L 273.699233 66.624232 
L 269.877353 64.13348 
L 265.937429 61.820642 
L 261.884408 59.712912 
L 257.725961 57.835671 
L 253.472304 56.211981 
L 249.135953 54.862112 
L 244.731424 53.803142 
L 240.274884 53.0486 
L 235.783759 52.608199 
L 231.276313 52.487634 
L 226.771206 52.688467 
L 222.28704 53.208097 
L 217.841911 54.03981 
L 213.452969 55.172917 
L 209.136003 56.592973 
L 204.905061 58.282068 
L 200.772108 60.219192 
L 196.746746 62.380659 
L 192.835979 64.740583 
L 189.044052 67.271403 
L 185.372357 69.944425 
L 180.086226 74.156592 
L 175.049797 78.524865 
L 168.669441 84.431293 
L 155.172091 97.175787 
L 150.738365 101.065412 
L 146.242264 104.73248 
L 141.6336 108.178917 
L 136.871579 111.424532 
L 131.927747 114.505343 
L 126.788359 117.471135 
L 117.802995 122.32617 
L 106.497557 128.402616 
L 100.754023 131.705864 
L 95.046699 135.269676 
L 91.303864 137.816145 
L 87.642021 140.513696 
L 84.088897 143.371781 
L 80.672379 146.396899 
L 77.419964 149.592467 
L 74.3582 152.958766 
L 71.512143 156.492961 
L 68.904846 160.189194 
L 66.556868 164.038747 
L 64.485848 168.030276 
L 62.706121 172.150095 
L 61.228411 176.382523 
L 60.059584 180.710269 
L 59.202492 185.114852 
L 58.65589 189.577043 
L 58.414438 194.077326 
L 58.468795 198.596357 
L 58.805784 203.115407 
L 59.408647 207.6168 
L 60.257367 212.084308 
L 61.329065 216.503508 
L 62.598449 220.862095 
L 64.038317 225.150135 
L 66.455045 231.434523 
L 69.091715 237.530732 
L 72.779301 245.368774 
L 80.785344 262.037256 
L 83.12386 267.426569 
L 85.228528 272.809285 
L 87.087021 278.233304 
L 88.707015 283.742954 
L 90.115435 289.375695 
L 91.356795 295.159162 
L 93.22193 305.168545 
L 95.557863 317.747034 
L 96.959862 324.19985 
L 98.627751 330.694998 
L 99.924814 335.016605 
L 101.393402 339.306102 
L 103.050868 343.540082 
L 104.911756 347.69412 
L 106.987515 351.743262 
L 109.286276 355.662529 
L 111.812721 359.42744 
L 114.568011 363.01453 
L 117.54981 366.401849 
L 120.752373 369.569445 
L 124.166717 372.499805 
L 127.780856 375.178253 
L 131.580108 377.593286 
L 135.547444 379.736855 
L 139.6639 381.604568 
L 143.909016 383.195821 
L 148.261305 384.513847 
L 152.698739 385.565687 
L 157.199233 386.362077 
L 161.741132 386.917253 
L 166.30367 387.248689 
L 170.867402 387.376753 
L 175.4146 387.32431 
L 182.170766 386.962093 
L 188.812323 386.340052 
L 197.440878 385.268143 
L 215.841052 382.868829 
L 221.716074 382.337893 
L 227.515169 382.028251 
L 233.280667 381.96505 
L 239.057435 382.153378 
L 244.88949 382.578028 
L 252.819412 383.449089 
L 278.171971 386.677739 
L 284.875361 387.181434 
L 289.399755 387.353012 
L 293.952641 387.362592 
L 298.51781 387.185738 
L 303.077069 386.80017 
L 307.610606 386.186207 
L 312.09739 385.327157 
L 316.515614 384.209635 
L 320.843163 382.823815 
L 325.058097 381.1636 
L 329.13914 379.226717 
L 333.066165 377.014725 
L 336.820649 374.532944 
L 340.386117 371.790311 
L 343.748526 368.799148 
L 346.896618 365.574877 
L 349.822197 362.135659 
L 352.520359 358.501989 
L 354.989636 354.69624 
L 357.232072 350.742181 
L 359.253218 346.664466 
L 361.062053 342.488114 
L 362.67082 338.237997 
L 364.094797 333.938329 
L 365.351987 329.612188 
L 366.970125 323.119833 
L 368.335628 316.679638 
L 370.275071 306.194845 
L 372.520861 294.183966 
L 373.786296 288.427043 
L 375.227335 282.817036 
L 376.885713 277.324484 
L 378.785238 271.910565 
L 380.930279 266.530123 
L 383.305169 261.134993 
L 386.765451 253.836631 
L 394.134439 238.528294 
L 396.798088 232.463787 
L 397.645714 230.4 
L 397.645714 230.4 
" clip-path="url(#p26d7386994)" style="fill: none; stroke: #0072b2; stroke-opacity: 0.8; stroke-width: 2; stroke-linecap: square"/>
   </g>
   <g id="line2d_8">
    <path d="M 419.328 230.4 
L 421.15158 225.662302 
L 422.822931 220.834882 
L 424.309461 215.925326 
L 425.579964 210.944161 
L 426.605246 205.904656 
L 427.358703 200.822551 
L 427.816848 195.715722 
L 427.959771 190.603789 
L 427.771532 185.507675 
L 427.24046 180.449128 
L 426.359374 175.450216 
L 425.125703 170.532812 
L 423.54152 165.718073 
L 421.613467 161.025933 
L 419.352602 156.474623 
L 416.774144 152.080219 
L 413.897141 147.856245 
L 410.744061 143.813328 
L 407.340313 139.958921 
L 403.713719 136.297098 
L 399.893933 132.828427 
L 395.911837 129.549928 
L 391.798915 126.455114 
L 387.586622 123.534112 
L 383.30577 120.773875 
L 376.820145 116.899377 
L 370.338019 113.286086 
L 345.770765 99.91614 
L 340.144176 96.458413 
L 334.726979 92.822717 
L 329.489606 88.965518 
L 324.388039 84.861206 
L 319.367043 80.504139 
L 312.688772 74.331253 
L 296.980517 59.49713 
L 291.329616 54.538702 
L 287.409729 51.314334 
L 283.35893 48.192859 
L 279.173132 45.2074 
L 274.851468 42.390936 
L 270.396323 39.77565 
L 265.813292 37.392293 
L 261.111049 35.269567 
L 256.301144 33.433547 
L 251.397732 31.907158 
L 246.417226 30.709707 
L 241.377907 29.856494 
L 236.299481 29.358502 
L 231.2026 29.222171 
L 226.108364 29.449267 
L 221.037807 30.036848 
L 216.011392 30.977323 
L 211.048511 32.258606 
L 206.167019 33.864361 
L 201.382799 35.774338 
L 196.709384 37.964778 
L 192.157629 40.408898 
L 187.735453 43.077429 
L 183.447659 45.939202 
L 179.295819 48.961773 
L 175.278255 52.112067 
L 169.492165 57.004846 
L 163.96736 62.002691 
L 155.218672 70.299536 
L 146.812653 78.23481 
L 141.80874 82.713802 
L 136.754922 86.945089 
L 131.591738 90.923855 
L 126.269121 94.665922 
L 120.749912 98.206175 
L 115.012773 101.596075 
L 107.021193 105.995479 
L 87.942758 116.28091 
L 81.451655 120.107125 
L 77.158344 122.829557 
L 72.926062 125.709026 
L 68.785363 128.759333 
L 64.767599 131.991167 
L 60.904306 135.411878 
L 57.226575 139.025328 
L 53.764426 142.831836 
L 50.546193 146.828195 
L 47.597941 151.007781 
L 44.94292 155.360737 
L 42.601074 159.874235 
L 40.588614 164.532799 
L 38.917664 169.318699 
L 37.595991 174.212381 
L 36.626818 179.192948 
L 36.008737 184.238656 
L 35.735711 189.327438 
L 35.797176 194.437419 
L 36.178233 199.547422 
L 36.859931 204.637459 
L 37.819638 209.689179 
L 39.031481 214.686274 
L 40.466862 219.614831 
L 42.09502 224.463614 
L 43.88365 229.224288 
L 46.79475 236.18935 
L 49.879735 242.940148 
L 55.116556 253.75031 
L 60.097495 264.131963 
L 62.822964 270.240695 
L 65.29367 276.323684 
L 67.488131 282.435582 
L 69.407529 288.628285 
L 71.075214 294.947135 
L 72.53516 301.427425 
L 74.268116 310.355223 
L 77.736353 329.169339 
L 79.32169 336.465985 
L 81.207688 343.810498 
L 82.674367 348.697238 
L 84.335 353.547669 
L 86.209212 358.335323 
L 88.313448 363.032582 
L 90.660651 367.611227 
L 93.26002 372.043014 
L 96.116846 376.30026 
L 99.232443 380.35643 
L 102.60417 384.186706 
L 106.225529 387.768526 
L 110.086364 391.082088 
L 114.173122 394.110794 
L 118.469199 396.841639 
L 122.95534 399.265521 
L 127.610102 401.377473 
L 132.410349 403.176813 
L 137.331784 404.667196 
L 142.349497 405.856585 
L 147.438518 406.757118 
L 152.574357 407.384894 
L 157.733534 407.759671 
L 162.894062 407.904483 
L 168.035894 407.845181 
L 173.141317 407.609922 
L 180.69904 406.99282 
L 188.103329 406.152278 
L 202.378048 404.219876 
L 211.507973 403.054762 
L 218.189493 402.38105 
L 224.770482 401.943255 
L 231.297019 401.777125 
L 237.819306 401.896057 
L 244.387862 402.290468 
L 251.049711 402.928248 
L 260.144836 404.062648 
L 279.257853 406.59383 
L 286.742675 407.335937 
L 294.363701 407.80172 
L 299.497993 407.907728 
L 304.655641 407.816468 
L 309.817148 407.50146 
L 314.960973 406.938921 
L 320.063964 406.108235 
L 325.101835 404.992357 
L 330.049687 403.578135 
L 334.882542 401.856547 
L 339.575899 399.822853 
L 344.106281 397.476654 
L 348.451772 394.821854 
L 352.592527 391.866542 
L 356.511239 388.622772 
L 360.193557 385.106278 
L 363.628448 381.3361 
L 366.808479 377.334156 
L 369.73003 373.124749 
L 372.393421 368.734037 
L 374.802955 364.189471 
L 376.966862 359.519209 
L 378.897169 354.751531 
L 380.609476 349.914259 
L 382.122644 345.034198 
L 383.458421 340.136609 
L 385.182913 332.807543 
L 386.652267 325.55849 
L 391.852337 298.165372 
L 393.409454 291.769462 
L 395.19874 285.518802 
L 397.254112 279.372666 
L 399.587965 273.281972 
L 402.190145 267.192963 
L 406.017541 258.982959 
L 416.380154 237.329264 
L 419.328 230.4 
L 419.328 230.4 
" clip-path="url(#p26d7386994)" style="fill: none; stroke: #7e57c2; stroke-opacity: 0.8; stroke-width: 3; stroke-linecap: square"/>
   </g>
   <g id="text_1">
    <text style="font-weight: 700; font-size: 8.5px; font-family: 'DejaVu Sans'; text-anchor: start; fill: #bdd0e4" x="17.568" y="439.065867" transform="rotate(-0 17.568 439.065867)">DECORATIVE FOURIER MOTIF · NOT DATA</text>
   </g>
  </g>
 </g>
 <defs>
  <clipPath id="p26d7386994">
   <rect x="8.64" y="8.64" width="446.4" height="443.52"/>
  </clipPath>
 </defs>
</svg>
