<?xml version="1.0" encoding="utf-8" standalone="no"?>
<!DOCTYPE svg PUBLIC "-//W3C//DTD SVG 1.1//EN"
  "http://www.w3.org/Graphics/SVG/1.1/DTD/svg11.dtd">
<svg xmlns:xlink="http://www.w3.org/1999/xlink" width="686.88pt" height="294.48pt" viewBox="0 0 686.88 294.48" xmlns="http://www.w3.org/2000/svg" version="1.1">
 <metadata>
  <rdf:RDF xmlns:dc="http://purl.org/dc/elements/1.1/" xmlns:cc="http://creativecommons.org/ns#" xmlns:rdf="http://www.w3.org/1999/02/22-rdf-syntax-ns#">
   <cc:Work>
    <dc:type rdf:resource="http://purl.org/dc/dcmitype/StillImage"/>
    <dc:date>2026-07-22T16:22:55.084624</dc:date>
    <dc:format>image/svg+xml</dc:format>
    <dc:creator>
     <cc:Agent>
      <dc:title>Matplotlib v3.11.0, https://matplotlib.org/</dc:title>
     </cc:Agent>
    </dc:creator>
   </cc:Work>
  </rdf:RDF>
 </metadata>
 <defs>
  <style type="text/css">*{stroke-linejoin: round; stroke-linecap: butt}</style>
 </defs>
 <g id="figure_1">
  <g id="patch_1">
   <path d="M 0 294.48 
L 686.88 294.48 
L 686.88 0 
L 0 0 
z
" style="fill: #13294b"/>
  </g>
  <g id="axes_1">
   <g id="patch_2">
    <path d="M 62.208 85.7016 
C 65.40444 85.7016 68.470392 85.175864 70.730617 84.24018 
C 72.990841 83.304496 74.2608 82.035257 74.2608 80.712 
C 74.2608 79.388743 72.990841 78.119504 70.730617 77.18382 
C 68.470392 76.248136 65.40444 75.7224 62.208 75.7224 
C 59.01156 75.7224 55.945608 76.248136 53.685383 77.18382 
C 51.425159 78.119504 50.1552 79.388743 50.1552 80.712 
C 50.1552 82.035257 51.425159 83.304496 53.685383 84.24018 
C 55.945608 85.175864 59.01156 85.7016 62.208 85.7016 
z
" clip-path="url(#p95d03a0337)" style="fill: #28a9c7"/>
   </g>
   <g id="patch_3">
    <path d="M 122.472 85.7016 
C 125.66844 85.7016 128.734392 85.175864 130.994617 84.24018 
C 133.254841 83.304496 134.5248 82.035257 134.5248 80.712 
C 134.5248 79.388743 133.254841 78.119504 130.994617 77.18382 
C 128.734392 76.248136 125.66844 75.7224 122.472 75.7224 
C 119.27556 75.7224 116.209608 76.248136 113.949383 77.18382 
C 111.689159 78.119504 110.4192 79.388743 110.4192 80.712 
C 110.4192 82.035257 111.689159 83.304496 113.949383 84.24018 
C 116.209608 85.175864 119.27556 85.7016 122.472 85.7016 
z
" clip-path="url(#p95d03a0337)" style="fill: #28a9c7"/>
   </g>
   <g id="patch_4">
    <path d="M 182.736 85.7016 
C 185.93244 85.7016 188.998392 85.175864 191.258617 84.24018 
C 193.518841 83.304496 194.7888 82.035257 194.7888 80.712 
C 194.7888 79.388743 193.518841 78.119504 191.258617 77.18382 
C 188.998392 76.248136 185.93244 75.7224 182.736 75.7224 
C 179.53956 75.7224 176.473608 76.248136 174.213383 77.18382 
C 171.953159 78.119504 170.6832 79.388743 170.6832 80.712 
C 170.6832 82.035257 171.953159 83.304496 174.213383 84.24018 
C 176.473608 85.175864 179.53956 85.7016 182.736 85.7016 
z
" clip-path="url(#p95d03a0337)" style="fill: #28a9c7"/>
   </g>
   <g id="patch_5">
    <path d="M 243 85.7016 
C 246.19644 85.7016 249.262392 85.175864 251.522617 84.24018 
C 253.782841 83.304496 255.0528 82.035257 255.0528 80.712 
C 255.0528 79.388743 253.782841 78.119504 251.522617 77.18382 
C 249.262392 76.248136 246.19644 75.7224 243 75.7224 
C 239.80356 75.7224 236.737608 76.248136 234.477383 77.18382 
C 232.217159 78.119504 230.9472 79.388743 230.9472 80.712 
C 230.9472 82.035257 232.217159 83.304496 234.477383 84.24018 
C 236.737608 85.175864 239.80356 85.7016 243 85.7016 
z
" clip-path="url(#p95d03a0337)" style="fill: #28a9c7"/>
   </g>
   <g id="patch_6">
    <path d="M 62.208 130.0536 
C 65.40444 130.0536 68.470392 129.527864 70.730617 128.59218 
C 72.990841 127.656496 74.2608 126.387257 74.2608 125.064 
C 74.2608 123.740743 72.990841 122.471504 70.730617 121.53582 
C 68.470392 120.600136 65.40444 120.0744 62.208 120.0744 
C 59.01156 120.0744 55.945608 120.600136 53.685383 121.53582 
C 51.425159 122.471504 50.1552 123.740743 50.1552 125.064 
C 50.1552 126.387257 51.425159 127.656496 53.685383 128.59218 
C 55.945608 129.527864 59.01156 130.0536 62.208 130.0536 
z
" clip-path="url(#p95d03a0337)" style="fill: #7e57c2"/>
   </g>
   <g id="patch_7">
    <path d="M 122.472 130.0536 
C 125.66844 130.0536 128.734392 129.527864 130.994617 128.59218 
C 133.254841 127.656496 134.5248 126.387257 134.5248 125.064 
C 134.5248 123.740743 133.254841 122.471504 130.994617 121.53582 
C 128.734392 120.600136 125.66844 120.0744 122.472 120.0744 
C 119.27556 120.0744 116.209608 120.600136 113.949383 121.53582 
C 111.689159 122.471504 110.4192 123.740743 110.4192 125.064 
C 110.4192 126.387257 111.689159 127.656496 113.949383 128.59218 
C 116.209608 129.527864 119.27556 130.0536 122.472 130.0536 
z
" clip-path="url(#p95d03a0337)" style="fill: #7e57c2"/>
   </g>
   <g id="patch_8">
    <path d="M 182.736 130.0536 
C 185.93244 130.0536 188.998392 129.527864 191.258617 128.59218 
C 193.518841 127.656496 194.7888 126.387257 194.7888 125.064 
C 194.7888 123.740743 193.518841 122.471504 191.258617 121.53582 
C 188.998392 120.600136 185.93244 120.0744 182.736 120.0744 
C 179.53956 120.0744 176.473608 120.600136 174.213383 121.53582 
C 171.953159 122.471504 170.6832 123.740743 170.6832 125.064 
C 170.6832 126.387257 171.953159 127.656496 174.213383 128.59218 
C 176.473608 129.527864 179.53956 130.0536 182.736 130.0536 
z
" clip-path="url(#p95d03a0337)" style="fill: #7e57c2"/>
   </g>
   <g id="patch_9">
    <path d="M 243 130.0536 
C 246.19644 130.0536 249.262392 129.527864 251.522617 128.59218 
C 253.782841 127.656496 255.0528 126.387257 255.0528 125.064 
C 255.0528 123.740743 253.782841 122.471504 251.522617 121.53582 
C 249.262392 120.600136 246.19644 120.0744 243 120.0744 
C 239.80356 120.0744 236.737608 120.600136 234.477383 121.53582 
C 232.217159 122.471504 230.9472 123.740743 230.9472 125.064 
C 230.9472 126.387257 232.217159 127.656496 234.477383 128.59218 
C 236.737608 129.527864 239.80356 130.0536 243 130.0536 
z
" clip-path="url(#p95d03a0337)" style="fill: #7e57c2"/>
   </g>
   <g id="patch_10">
    <path d="M 62.208 174.4056 
C 65.40444 174.4056 68.470392 173.879864 70.730617 172.94418 
C 72.990841 172.008496 74.2608 170.739257 74.2608 169.416 
C 74.2608 168.092743 72.990841 166.823504 70.730617 165.88782 
C 68.470392 164.952136 65.40444 164.4264 62.208 164.4264 
C 59.01156 164.4264 55.945608 164.952136 53.685383 165.88782 
C 51.425159 166.823504 50.1552 168.092743 50.1552 169.416 
C 50.1552 170.739257 51.425159 172.008496 53.685383 172.94418 
C 55.945608 173.879864 59.01156 174.4056 62.208 174.4056 
z
" clip-path="url(#p95d03a0337)" style="fill: #ff5f05"/>
   </g>
   <g id="patch_11">
    <path d="M 122.472 174.4056 
C 125.66844 174.4056 128.734392 173.879864 130.994617 172.94418 
C 133.254841 172.008496 134.5248 170.739257 134.5248 169.416 
C 134.5248 168.092743 133.254841 166.823504 130.994617 165.88782 
C 128.734392 164.952136 125.66844 164.4264 122.472 164.4264 
C 119.27556 164.4264 116.209608 164.952136 113.949383 165.88782 
C 111.689159 166.823504 110.4192 168.092743 110.4192 169.416 
C 110.4192 170.739257 111.689159 172.008496 113.949383 172.94418 
C 116.209608 173.879864 119.27556 174.4056 122.472 174.4056 
z
" clip-path="url(#p95d03a0337)" style="fill: #ff5f05"/>
   </g>
   <g id="patch_12">
    <path d="M 182.736 174.4056 
C 185.93244 174.4056 188.998392 173.879864 191.258617 172.94418 
C 193.518841 172.008496 194.7888 170.739257 194.7888 169.416 
C 194.7888 168.092743 193.518841 166.823504 191.258617 165.88782 
C 188.998392 164.952136 185.93244 164.4264 182.736 164.4264 
C 179.53956 164.4264 176.473608 164.952136 174.213383 165.88782 
C 171.953159 166.823504 170.6832 168.092743 170.6832 169.416 
C 170.6832 170.739257 171.953159 172.008496 174.213383 172.94418 
C 176.473608 173.879864 179.53956 174.4056 182.736 174.4056 
z
" clip-path="url(#p95d03a0337)" style="fill: #ff5f05"/>
   </g>
   <g id="patch_13">
    <path d="M 243 174.4056 
C 246.19644 174.4056 249.262392 173.879864 251.522617 172.94418 
C 253.782841 172.008496 255.0528 170.739257 255.0528 169.416 
C 255.0528 168.092743 253.782841 166.823504 251.522617 165.88782 
C 249.262392 164.952136 246.19644 164.4264 243 164.4264 
C 239.80356 164.4264 236.737608 164.952136 234.477383 165.88782 
C 232.217159 166.823504 230.9472 168.092743 230.9472 169.416 
C 230.9472 170.739257 232.217159 172.008496 234.477383 172.94418 
C 236.737608 173.879864 239.80356 174.4056 243 174.4056 
z
" clip-path="url(#p95d03a0337)" style="fill: #ff5f05"/>
   </g>
   <g id="patch_14">
    <path d="M 62.208 218.7576 
C 65.40444 218.7576 68.470392 218.231864 70.730617 217.29618 
C 72.990841 216.360496 74.2608 215.091257 74.2608 213.768 
C 74.2608 212.444743 72.990841 211.175504 70.730617 210.23982 
C 68.470392 209.304136 65.40444 208.7784 62.208 208.7784 
C 59.01156 208.7784 55.945608 209.304136 53.685383 210.23982 
C 51.425159 211.175504 50.1552 212.444743 50.1552 213.768 
C 50.1552 215.091257 51.425159 216.360496 53.685383 217.29618 
C 55.945608 218.231864 59.01156 218.7576 62.208 218.7576 
z
" clip-path="url(#p95d03a0337)" style="fill: #009e73"/>
   </g>
   <g id="patch_15">
    <path d="M 122.472 218.7576 
C 125.66844 218.7576 128.734392 218.231864 130.994617 217.29618 
C 133.254841 216.360496 134.5248 215.091257 134.5248 213.768 
C 134.5248 212.444743 133.254841 211.175504 130.994617 210.23982 
C 128.734392 209.304136 125.66844 208.7784 122.472 208.7784 
C 119.27556 208.7784 116.209608 209.304136 113.949383 210.23982 
C 111.689159 211.175504 110.4192 212.444743 110.4192 213.768 
C 110.4192 215.091257 111.689159 216.360496 113.949383 217.29618 
C 116.209608 218.231864 119.27556 218.7576 122.472 218.7576 
z
" clip-path="url(#p95d03a0337)" style="fill: #009e73"/>
   </g>
   <g id="patch_16">
    <path d="M 182.736 218.7576 
C 185.93244 218.7576 188.998392 218.231864 191.258617 217.29618 
C 193.518841 216.360496 194.7888 215.091257 194.7888 213.768 
C 194.7888 212.444743 193.518841 211.175504 191.258617 210.23982 
C 188.998392 209.304136 185.93244 208.7784 182.736 208.7784 
C 179.53956 208.7784 176.473608 209.304136 174.213383 210.23982 
C 171.953159 211.175504 170.6832 212.444743 170.6832 213.768 
C 170.6832 215.091257 171.953159 216.360496 174.213383 217.29618 
C 176.473608 218.231864 179.53956 218.7576 182.736 218.7576 
z
" clip-path="url(#p95d03a0337)" style="fill: #009e73"/>
   </g>
   <g id="patch_17">
    <path d="M 243 218.7576 
C 246.19644 218.7576 249.262392 218.231864 251.522617 217.29618 
C 253.782841 216.360496 255.0528 215.091257 255.0528 213.768 
C 255.0528 212.444743 253.782841 211.175504 251.522617 210.23982 
C 249.262392 209.304136 246.19644 208.7784 243 208.7784 
C 239.80356 208.7784 236.737608 209.304136 234.477383 210.23982 
C 232.217159 211.175504 230.9472 212.444743 230.9472 213.768 
C 230.9472 215.091257 232.217159 216.360496 234.477383 217.29618 
C 236.737608 218.231864 239.80356 218.7576 243 218.7576 
z
" clip-path="url(#p95d03a0337)" style="fill: #009e73"/>
   </g>
   <g id="patch_18">
    <path d="M 517.536 166.644 
C 529.9666 166.644 541.889748 164.599472 550.679509 160.9607 
C 559.46927 157.321928 564.408 152.386001 564.408 147.24 
C 564.408 142.093999 559.46927 137.158072 550.679509 133.5193 
C 541.889748 129.880528 529.9666 127.836 517.536 127.836 
C 505.1054 127.836 493.182252 129.880528 484.392491 133.5193 
C 475.60273 137.158072 470.664 142.093999 470.664 147.24 
C 470.664 152.386001 475.60273 157.321928 484.392491 160.9607 
C 493.182252 164.599472 505.1054 166.644 517.536 166.644 
L 517.536 166.644 
z
" clip-path="url(#p95d03a0337)" style="fill: none; stroke: #ffffff; stroke-width: 2; stroke-linejoin: miter"/>
   </g>
   <g id="patch_19">
    <path d="M 77.581404 80.450328 
Q 293.062614 52.268164 487.738436 145.789504 
" clip-path="url(#p95d03a0337)" style="fill: none; stroke: #28a9c7; stroke-width: 1.2; stroke-linecap: round"/>
    <path d="M 483.081295 139.780258 
L 487.738436 145.789504 
L 480.136755 145.909669 
z
" clip-path="url(#p95d03a0337)" style="fill: #28a9c7; stroke: #28a9c7; stroke-width: 1.2; stroke-linecap: round"/>
   </g>
   <g id="patch_20">
    <path d="M 137.851035 80.503223 
Q 323.181514 61.304381 487.780929 145.713112 
" clip-path="url(#p95d03a0337)" style="fill: none; stroke: #28a9c7; stroke-width: 1.2; stroke-linecap: round"/>
    <path d="M 483.28161 139.584806 
L 487.780929 145.713112 
L 480.178693 145.635583 
z
" clip-path="url(#p95d03a0337)" style="fill: #28a9c7; stroke: #28a9c7; stroke-width: 1.2; stroke-linecap: round"/>
   </g>
   <g id="patch_21">
    <path d="M 198.11926 80.577123 
Q 353.290386 70.338772 487.835374 145.604396 
" clip-path="url(#p95d03a0337)" style="fill: none; stroke: #28a9c7; stroke-width: 1.2; stroke-linecap: round"/>
    <path d="M 483.560753 139.317297 
L 487.835374 145.604396 
L 480.240922 145.251834 
z
" clip-path="url(#p95d03a0337)" style="fill: #28a9c7; stroke: #28a9c7; stroke-width: 1.2; stroke-linecap: round"/>
   </g>
   <g id="patch_22">
    <path d="M 258.389272 80.686637 
Q 383.395746 79.370156 487.932145 145.452323 
" clip-path="url(#p95d03a0337)" style="fill: none; stroke: #28a9c7; stroke-width: 1.2; stroke-linecap: round"/>
    <path d="M 484.001029 138.944918 
L 487.932145 145.452323 
L 480.367551 144.692773 
z
" clip-path="url(#p95d03a0337)" style="fill: #28a9c7; stroke: #28a9c7; stroke-width: 1.2; stroke-linecap: round"/>
   </g>
   <g id="patch_23">
    <path d="M 77.596491 124.972438 
Q 284.27268 115.592114 487.447377 146.732542 
" clip-path="url(#p95d03a0337)" style="fill: none; stroke: #7e57c2; stroke-width: 1.2; stroke-linecap: round"/>
    <path d="M 481.240968 142.341587 
L 487.447377 146.732542 
L 480.210767 149.063096 
z
" clip-path="url(#p95d03a0337)" style="fill: #7e57c2; stroke: #7e57c2; stroke-width: 1.2; stroke-linecap: round"/>
   </g>
   <g id="patch_24">
    <path d="M 137.860989 124.99066 
Q 314.404633 118.60495 487.455706 146.703652 
" clip-path="url(#p95d03a0337)" style="fill: none; stroke: #7e57c2; stroke-width: 1.2; stroke-linecap: round"/>
    <path d="M 481.288541 142.257747 
L 487.455706 146.703652 
L 480.198682 148.969841 
z
" clip-path="url(#p95d03a0337)" style="fill: #7e57c2; stroke: #7e57c2; stroke-width: 1.2; stroke-linecap: round"/>
   </g>
   <g id="patch_25">
    <path d="M 198.125384 125.016303 
Q 344.531701 121.617775 487.458266 146.661511 
" clip-path="url(#p95d03a0337)" style="fill: none; stroke: #7e57c2; stroke-width: 1.2; stroke-linecap: round"/>
    <path d="M 481.347121 142.13891 
L 487.458266 146.661511 
L 480.173499 148.836866 
z
" clip-path="url(#p95d03a0337)" style="fill: #7e57c2; stroke: #7e57c2; stroke-width: 1.2; stroke-linecap: round"/>
   </g>
   <g id="patch_26">
    <path d="M 258.395329 125.05501 
Q 374.663504 124.630785 487.471612 146.599458 
" clip-path="url(#p95d03a0337)" style="fill: none; stroke: #7e57c2; stroke-width: 1.2; stroke-linecap: round"/>
    <path d="M 481.446921 141.962314 
L 487.471612 146.599458 
L 480.147083 148.636924 
z
" clip-path="url(#p95d03a0337)" style="fill: #7e57c2; stroke: #7e57c2; stroke-width: 1.2; stroke-linecap: round"/>
   </g>
   <g id="patch_27">
    <path d="M 77.596491 169.507562 
Q 284.27268 178.887886 487.447377 147.747458 
" clip-path="url(#p95d03a0337)" style="fill: none; stroke: #ff5f05; stroke-width: 1.2; stroke-linecap: round"/>
    <path d="M 480.210767 145.416904 
L 487.447377 147.747458 
L 481.240968 152.138413 
z
" clip-path="url(#p95d03a0337)" style="fill: #ff5f05; stroke: #ff5f05; stroke-width: 1.2; stroke-linecap: round"/>
   </g>
   <g id="patch_28">
    <path d="M 137.860989 169.48934 
Q 314.404633 175.87505 487.455706 147.776348 
" clip-path="url(#p95d03a0337)" style="fill: none; stroke: #ff5f05; stroke-width: 1.2; stroke-linecap: round"/>
    <path d="M 480.198682 145.510159 
L 487.455706 147.776348 
L 481.288541 152.222253 
z
" clip-path="url(#p95d03a0337)" style="fill: #ff5f05; stroke: #ff5f05; stroke-width: 1.2; stroke-linecap: round"/>
   </g>
   <g id="patch_29">
    <path d="M 198.125384 169.463697 
Q 344.531701 172.862225 487.458266 147.818489 
" clip-path="url(#p95d03a0337)" style="fill: none; stroke: #ff5f05; stroke-width: 1.2; stroke-linecap: round"/>
    <path d="M 480.173499 145.643134 
L 487.458266 147.818489 
L 481.347121 152.34109 
z
" clip-path="url(#p95d03a0337)" style="fill: #ff5f05; stroke: #ff5f05; stroke-width: 1.2; stroke-linecap: round"/>
   </g>
   <g id="patch_30">
    <path d="M 258.395329 169.42499 
Q 374.663504 169.849215 487.471612 147.880542 
" clip-path="url(#p95d03a0337)" style="fill: none; stroke: #ff5f05; stroke-width: 1.2; stroke-linecap: round"/>
    <path d="M 480.147083 145.843076 
L 487.471612 147.880542 
L 481.446921 152.517686 
z
" clip-path="url(#p95d03a0337)" style="fill: #ff5f05; stroke: #ff5f05; stroke-width: 1.2; stroke-linecap: round"/>
   </g>
   <g id="patch_31">
    <path d="M 77.581404 214.029672 
Q 293.062614 242.211836 487.738436 148.690496 
" clip-path="url(#p95d03a0337)" style="fill: none; stroke: #009e73; stroke-width: 1.2; stroke-linecap: round"/>
    <path d="M 480.136755 148.570331 
L 487.738436 148.690496 
L 483.081295 154.699742 
z
" clip-path="url(#p95d03a0337)" style="fill: #009e73; stroke: #009e73; stroke-width: 1.2; stroke-linecap: round"/>
   </g>
   <g id="patch_32">
    <path d="M 137.851035 213.976777 
Q 323.181514 233.175619 487.780929 148.766888 
" clip-path="url(#p95d03a0337)" style="fill: none; stroke: #009e73; stroke-width: 1.2; stroke-linecap: round"/>
    <path d="M 480.178693 148.844417 
L 487.780929 148.766888 
L 483.28161 154.895194 
z
" clip-path="url(#p95d03a0337)" style="fill: #009e73; stroke: #009e73; stroke-width: 1.2; stroke-linecap: round"/>
   </g>
   <g id="patch_33">
    <path d="M 198.11926 213.902877 
Q 353.290386 224.141228 487.835374 148.875604 
" clip-path="url(#p95d03a0337)" style="fill: none; stroke: #009e73; stroke-width: 1.2; stroke-linecap: round"/>
    <path d="M 480.240922 149.228166 
L 487.835374 148.875604 
L 483.560753 155.162703 
z
" clip-path="url(#p95d03a0337)" style="fill: #009e73; stroke: #009e73; stroke-width: 1.2; stroke-linecap: round"/>
   </g>
   <g id="patch_34">
    <path d="M 258.389272 213.793363 
Q 383.395746 215.109844 487.932145 149.027677 
" clip-path="url(#p95d03a0337)" style="fill: none; stroke: #009e73; stroke-width: 1.2; stroke-linecap: round"/>
    <path d="M 480.367551 149.787227 
L 487.932145 149.027677 
L 484.001029 155.535082 
z
" clip-path="url(#p95d03a0337)" style="fill: #009e73; stroke: #009e73; stroke-width: 1.2; stroke-linecap: round"/>
   </g>
   <g id="patch_35">
    <path d="M 566.408544 147.24 
Q 601.236927 147.24 632.711208 147.24 
" clip-path="url(#p95d03a0337)" style="fill: none; stroke: #ff5f05; stroke-width: 3; stroke-linecap: round"/>
    <path d="M 625.911208 143.84 
L 632.711208 147.24 
L 625.911208 150.64 
z
" clip-path="url(#p95d03a0337)" style="fill: #ff5f05; stroke: #ff5f05; stroke-width: 3; stroke-linecap: round"/>
   </g>
   <g id="text_1">
    <text style="font-weight: 700; font-size: 8.5px; font-family: 'DejaVu Sans'; text-anchor: start; fill: #bdd0e4" x="22.032" y="276.903867" transform="rotate(-0 22.032 276.903867)">DECORATIVE FIBER MOTIF · NOT DATA</text>
   </g>
  </g>
 </g>
 <defs>
  <clipPath id="p95d03a0337">
   <rect x="8.64" y="8.64" width="669.6" height="277.2"/>
  </clipPath>
 </defs>
</svg>
