<?xml version="1.0" encoding="utf-8" standalone="no"?>
<!DOCTYPE svg PUBLIC "-//W3C//DTD SVG 1.1//EN"
  "http://www.w3.org/Graphics/SVG/1.1/DTD/svg11.dtd">
<svg xmlns:xlink="http://www.w3.org/1999/xlink" width="851.4pt" height="313.776pt" viewBox="0 0 851.4 313.776" xmlns="http://www.w3.org/2000/svg" version="1.1">
 <metadata>
  <rdf:RDF xmlns:dc="http://purl.org/dc/elements/1.1/" xmlns:cc="http://creativecommons.org/ns#" xmlns:rdf="http://www.w3.org/1999/02/22-rdf-syntax-ns#">
   <cc:Work>
    <dc:type rdf:resource="http://purl.org/dc/dcmitype/StillImage"/>
    <dc:date>2026-07-22T16:49:53.243720</dc:date>
    <dc:format>image/svg+xml</dc:format>
    <dc:creator>
     <cc:Agent>
      <dc:title>Matplotlib v3.11.0, https://matplotlib.org/</dc:title>
     </cc:Agent>
    </dc:creator>
   </cc:Work>
  </rdf:RDF>
 </metadata>
 <defs>
  <style type="text/css">*{stroke-linejoin: round; stroke-linecap: butt}</style>
 </defs>
 <g id="figure_1">
  <g id="patch_1">
   <path d="M 0 313.776 
L 851.4 313.776 
L 851.4 0 
L 0 0 
z
" style="fill: #ffffff"/>
  </g>
  <g id="axes_1">
   <g id="patch_2">
    <path d="M 36.774 160.7688 
L 814.626 160.7688 
Q 825.786 160.7688 825.786 149.6808 
L 825.786 78.1632 
Q 825.786 67.0752 814.626 67.0752 
L 36.774 67.0752 
Q 25.614 67.0752 25.614 78.1632 
L 25.614 149.6808 
Q 25.614 160.7688 36.774 160.7688 
z
" clip-path="url(#pe673a3dede)" style="fill: #eaf5fb; stroke: #0072b2; stroke-width: 2.8; stroke-linejoin: miter"/>
   </g>
   <g id="patch_3">
    <path d="M 36.774 277.1928 
L 814.626 277.1928 
Q 825.786 277.1928 825.786 266.1048 
L 825.786 194.5872 
Q 825.786 183.4992 814.626 183.4992 
L 36.774 183.4992 
Q 25.614 183.4992 25.614 194.5872 
L 25.614 266.1048 
Q 25.614 277.1928 36.774 277.1928 
z
" clip-path="url(#pe673a3dede)" style="fill: #f3edfa; stroke: #7e57c2; stroke-width: 2.8; stroke-linejoin: miter"/>
   </g>
   <g id="patch_4">
    <path d="M 156.186 132.4944 
C 157.221883 132.4944 158.215479 132.085494 158.947959 131.35774 
C 159.680439 130.629986 160.092 129.6428 160.092 128.6136 
C 160.092 127.5844 159.680439 126.597214 158.947959 125.86946 
C 158.215479 125.141706 157.221883 124.7328 156.186 124.7328 
C 155.150117 124.7328 154.156521 125.141706 153.424041 125.86946 
C 152.691561 126.597214 152.28 127.5844 152.28 128.6136 
C 152.28 129.6428 152.691561 130.629986 153.424041 131.35774 
C 154.156521 132.085494 155.150117 132.4944 156.186 132.4944 
z
" clip-path="url(#pe673a3dede)" style="fill: #0072b2"/>
   </g>
   <g id="patch_5">
    <path d="M 173.0655 132.4944 
C 174.101383 132.4944 175.094979 132.085494 175.827459 131.35774 
C 176.559939 130.629986 176.9715 129.6428 176.9715 128.6136 
C 176.9715 127.5844 176.559939 126.597214 175.827459 125.86946 
C 175.094979 125.141706 174.101383 124.7328 173.0655 124.7328 
C 172.029617 124.7328 171.036021 125.141706 170.303541 125.86946 
C 169.571061 126.597214 169.1595 127.5844 169.1595 128.6136 
C 169.1595 129.6428 169.571061 130.629986 170.303541 131.35774 
C 171.036021 132.085494 172.029617 132.4944 173.0655 132.4944 
z
" clip-path="url(#pe673a3dede)" style="fill: #0072b2"/>
   </g>
   <g id="patch_6">
    <path d="M 189.945 132.4944 
C 190.980883 132.4944 191.974479 132.085494 192.706959 131.35774 
C 193.439439 130.629986 193.851 129.6428 193.851 128.6136 
C 193.851 127.5844 193.439439 126.597214 192.706959 125.86946 
C 191.974479 125.141706 190.980883 124.7328 189.945 124.7328 
C 188.909117 124.7328 187.915521 125.141706 187.183041 125.86946 
C 186.450561 126.597214 186.039 127.5844 186.039 128.6136 
C 186.039 129.6428 186.450561 130.629986 187.183041 131.35774 
C 187.915521 132.085494 188.909117 132.4944 189.945 132.4944 
z
" clip-path="url(#pe673a3dede)" style="fill: #0072b2"/>
   </g>
   <g id="patch_7">
    <path d="M 206.8245 132.4944 
C 207.860383 132.4944 208.853979 132.085494 209.586459 131.35774 
C 210.318939 130.629986 210.7305 129.6428 210.7305 128.6136 
C 210.7305 127.5844 210.318939 126.597214 209.586459 125.86946 
C 208.853979 125.141706 207.860383 124.7328 206.8245 124.7328 
C 205.788617 124.7328 204.795021 125.141706 204.062541 125.86946 
C 203.330061 126.597214 202.9185 127.5844 202.9185 128.6136 
C 202.9185 129.6428 203.330061 130.629986 204.062541 131.35774 
C 204.795021 132.085494 205.788617 132.4944 206.8245 132.4944 
z
" clip-path="url(#pe673a3dede)" style="fill: #0072b2"/>
   </g>
   <g id="patch_8">
    <path d="M 223.704 132.4944 
C 224.739883 132.4944 225.733479 132.085494 226.465959 131.35774 
C 227.198439 130.629986 227.61 129.6428 227.61 128.6136 
C 227.61 127.5844 227.198439 126.597214 226.465959 125.86946 
C 225.733479 125.141706 224.739883 124.7328 223.704 124.7328 
C 222.668117 124.7328 221.674521 125.141706 220.942041 125.86946 
C 220.209561 126.597214 219.798 127.5844 219.798 128.6136 
C 219.798 129.6428 220.209561 130.629986 220.942041 131.35774 
C 221.674521 132.085494 222.668117 132.4944 223.704 132.4944 
z
" clip-path="url(#pe673a3dede)" style="fill: #0072b2"/>
   </g>
   <g id="patch_9">
    <path d="M 246.346798 113.6448 
Q 262.481393 113.6448 275.485493 113.6448 
" clip-path="url(#pe673a3dede)" style="fill: none; stroke: #0072b2; stroke-width: 2.8; stroke-linecap: round"/>
    <path d="M 268.285493 110.0448 
L 275.485493 113.6448 
L 268.285493 117.2448 
z
" clip-path="url(#pe673a3dede)" style="fill: #0072b2; stroke: #0072b2; stroke-width: 2.8; stroke-linecap: round"/>
   </g>
   <g id="patch_10">
    <path d="M 586.729608 113.6448 
Q 633.55504 113.6448 677.249977 113.6448 
" clip-path="url(#pe673a3dede)" style="fill: none; stroke: #0072b2; stroke-width: 2.8; stroke-linecap: round"/>
    <path d="M 670.049977 110.0448 
L 677.249977 113.6448 
L 670.049977 117.2448 
z
" clip-path="url(#pe673a3dede)" style="fill: #0072b2; stroke: #0072b2; stroke-width: 2.8; stroke-linecap: round"/>
   </g>
   <g id="patch_11">
    <path d="M 702.468 139.1472 
L 786.726 139.1472 
Q 794.538 139.1472 794.538 131.3856 
L 794.538 97.0128 
Q 794.538 89.2512 786.726 89.2512 
L 702.468 89.2512 
Q 694.656 89.2512 694.656 97.0128 
L 694.656 131.3856 
Q 694.656 139.1472 702.468 139.1472 
z
" clip-path="url(#pe673a3dede)" style="fill: #ffffff; stroke: #0072b2; stroke-width: 2; stroke-linejoin: miter"/>
   </g>
   <g id="patch_12">
    <path d="M 151.164 209.8332 
C 152.273875 209.8332 153.338442 209.395087 154.123242 208.61535 
C 154.908042 207.835613 155.349 206.777914 155.349 205.6752 
C 155.349 204.572486 154.908042 203.514787 154.123242 202.73505 
C 153.338442 201.955313 152.273875 201.5172 151.164 201.5172 
C 150.054125 201.5172 148.989558 201.955313 148.204758 202.73505 
C 147.419958 203.514787 146.979 204.572486 146.979 205.6752 
C 146.979 206.777914 147.419958 207.835613 148.204758 208.61535 
C 148.989558 209.395087 150.054125 209.8332 151.164 209.8332 
z
" clip-path="url(#pe673a3dede)" style="fill: #0072b2"/>
   </g>
   <g id="patch_13">
    <path d="M 171.252 209.8332 
C 172.361875 209.8332 173.426442 209.395087 174.211242 208.61535 
C 174.996042 207.835613 175.437 206.777914 175.437 205.6752 
C 175.437 204.572486 174.996042 203.514787 174.211242 202.73505 
C 173.426442 201.955313 172.361875 201.5172 171.252 201.5172 
C 170.142125 201.5172 169.077558 201.955313 168.292758 202.73505 
C 167.507958 203.514787 167.067 204.572486 167.067 205.6752 
C 167.067 206.777914 167.507958 207.835613 168.292758 208.61535 
C 169.077558 209.395087 170.142125 209.8332 171.252 209.8332 
z
" clip-path="url(#pe673a3dede)" style="fill: #0072b2"/>
   </g>
   <g id="patch_14">
    <path d="M 191.34 209.8332 
C 192.449875 209.8332 193.514442 209.395087 194.299242 208.61535 
C 195.084042 207.835613 195.525 206.777914 195.525 205.6752 
C 195.525 204.572486 195.084042 203.514787 194.299242 202.73505 
C 193.514442 201.955313 192.449875 201.5172 191.34 201.5172 
C 190.230125 201.5172 189.165558 201.955313 188.380758 202.73505 
C 187.595958 203.514787 187.155 204.572486 187.155 205.6752 
C 187.155 206.777914 187.595958 207.835613 188.380758 208.61535 
C 189.165558 209.395087 190.230125 209.8332 191.34 209.8332 
z
" clip-path="url(#pe673a3dede)" style="fill: #0072b2"/>
   </g>
   <g id="patch_15">
    <path d="M 211.428 209.8332 
C 212.537875 209.8332 213.602442 209.395087 214.387242 208.61535 
C 215.172042 207.835613 215.613 206.777914 215.613 205.6752 
C 215.613 204.572486 215.172042 203.514787 214.387242 202.73505 
C 213.602442 201.955313 212.537875 201.5172 211.428 201.5172 
C 210.318125 201.5172 209.253558 201.955313 208.468758 202.73505 
C 207.683958 203.514787 207.243 204.572486 207.243 205.6752 
C 207.243 206.777914 207.683958 207.835613 208.468758 208.61535 
C 209.253558 209.395087 210.318125 209.8332 211.428 209.8332 
z
" clip-path="url(#pe673a3dede)" style="fill: #0072b2"/>
   </g>
   <g id="patch_16">
    <path d="M 157.86 228.6828 
C 158.969875 228.6828 160.034442 228.244687 160.819242 227.46495 
C 161.604042 226.685213 162.045 225.627514 162.045 224.5248 
C 162.045 223.422086 161.604042 222.364387 160.819242 221.58465 
C 160.034442 220.804913 158.969875 220.3668 157.86 220.3668 
C 156.750125 220.3668 155.685558 220.804913 154.900758 221.58465 
C 154.115958 222.364387 153.675 223.422086 153.675 224.5248 
C 153.675 225.627514 154.115958 226.685213 154.900758 227.46495 
C 155.685558 228.244687 156.750125 228.6828 157.86 228.6828 
z
" clip-path="url(#pe673a3dede)" style="fill: #7e57c2"/>
   </g>
   <g id="patch_17">
    <path d="M 177.948 228.6828 
C 179.057875 228.6828 180.122442 228.244687 180.907242 227.46495 
C 181.692042 226.685213 182.133 225.627514 182.133 224.5248 
C 182.133 223.422086 181.692042 222.364387 180.907242 221.58465 
C 180.122442 220.804913 179.057875 220.3668 177.948 220.3668 
C 176.838125 220.3668 175.773558 220.804913 174.988758 221.58465 
C 174.203958 222.364387 173.763 223.422086 173.763 224.5248 
C 173.763 225.627514 174.203958 226.685213 174.988758 227.46495 
C 175.773558 228.244687 176.838125 228.6828 177.948 228.6828 
z
" clip-path="url(#pe673a3dede)" style="fill: #7e57c2"/>
   </g>
   <g id="patch_18">
    <path d="M 198.036 228.6828 
C 199.145875 228.6828 200.210442 228.244687 200.995242 227.46495 
C 201.780042 226.685213 202.221 225.627514 202.221 224.5248 
C 202.221 223.422086 201.780042 222.364387 200.995242 221.58465 
C 200.210442 220.804913 199.145875 220.3668 198.036 220.3668 
C 196.926125 220.3668 195.861558 220.804913 195.076758 221.58465 
C 194.291958 222.364387 193.851 223.422086 193.851 224.5248 
C 193.851 225.627514 194.291958 226.685213 195.076758 227.46495 
C 195.861558 228.244687 196.926125 228.6828 198.036 228.6828 
z
" clip-path="url(#pe673a3dede)" style="fill: #7e57c2"/>
   </g>
   <g id="patch_19">
    <path d="M 218.124 228.6828 
C 219.233875 228.6828 220.298442 228.244687 221.083242 227.46495 
C 221.868042 226.685213 222.309 225.627514 222.309 224.5248 
C 222.309 223.422086 221.868042 222.364387 221.083242 221.58465 
C 220.298442 220.804913 219.233875 220.3668 218.124 220.3668 
C 217.014125 220.3668 215.949558 220.804913 215.164758 221.58465 
C 214.379958 222.364387 213.939 223.422086 213.939 224.5248 
C 213.939 225.627514 214.379958 226.685213 215.164758 227.46495 
C 215.949558 228.244687 217.014125 228.6828 218.124 228.6828 
z
" clip-path="url(#pe673a3dede)" style="fill: #7e57c2"/>
   </g>
   <g id="patch_20">
    <path d="M 151.164 247.5324 
C 152.273875 247.5324 153.338442 247.094287 154.123242 246.31455 
C 154.908042 245.534813 155.349 244.477114 155.349 243.3744 
C 155.349 242.271686 154.908042 241.213987 154.123242 240.43425 
C 153.338442 239.654513 152.273875 239.2164 151.164 239.2164 
C 150.054125 239.2164 148.989558 239.654513 148.204758 240.43425 
C 147.419958 241.213987 146.979 242.271686 146.979 243.3744 
C 146.979 244.477114 147.419958 245.534813 148.204758 246.31455 
C 148.989558 247.094287 150.054125 247.5324 151.164 247.5324 
z
" clip-path="url(#pe673a3dede)" style="fill: #ff5f05"/>
   </g>
   <g id="patch_21">
    <path d="M 171.252 247.5324 
C 172.361875 247.5324 173.426442 247.094287 174.211242 246.31455 
C 174.996042 245.534813 175.437 244.477114 175.437 243.3744 
C 175.437 242.271686 174.996042 241.213987 174.211242 240.43425 
C 173.426442 239.654513 172.361875 239.2164 171.252 239.2164 
C 170.142125 239.2164 169.077558 239.654513 168.292758 240.43425 
C 167.507958 241.213987 167.067 242.271686 167.067 243.3744 
C 167.067 244.477114 167.507958 245.534813 168.292758 246.31455 
C 169.077558 247.094287 170.142125 247.5324 171.252 247.5324 
z
" clip-path="url(#pe673a3dede)" style="fill: #ff5f05"/>
   </g>
   <g id="patch_22">
    <path d="M 191.34 247.5324 
C 192.449875 247.5324 193.514442 247.094287 194.299242 246.31455 
C 195.084042 245.534813 195.525 244.477114 195.525 243.3744 
C 195.525 242.271686 195.084042 241.213987 194.299242 240.43425 
C 193.514442 239.654513 192.449875 239.2164 191.34 239.2164 
C 190.230125 239.2164 189.165558 239.654513 188.380758 240.43425 
C 187.595958 241.213987 187.155 242.271686 187.155 243.3744 
C 187.155 244.477114 187.595958 245.534813 188.380758 246.31455 
C 189.165558 247.094287 190.230125 247.5324 191.34 247.5324 
z
" clip-path="url(#pe673a3dede)" style="fill: #ff5f05"/>
   </g>
   <g id="patch_23">
    <path d="M 211.428 247.5324 
C 212.537875 247.5324 213.602442 247.094287 214.387242 246.31455 
C 215.172042 245.534813 215.613 244.477114 215.613 243.3744 
C 215.613 242.271686 215.172042 241.213987 214.387242 240.43425 
C 213.602442 239.654513 212.537875 239.2164 211.428 239.2164 
C 210.318125 239.2164 209.253558 239.654513 208.468758 240.43425 
C 207.683958 241.213987 207.243 242.271686 207.243 243.3744 
C 207.243 244.477114 207.683958 245.534813 208.468758 246.31455 
C 209.253558 247.094287 210.318125 247.5324 211.428 247.5324 
z
" clip-path="url(#pe673a3dede)" style="fill: #ff5f05"/>
   </g>
   <g id="patch_24">
    <path d="M 246.346798 230.0688 
Q 262.481393 230.0688 275.485493 230.0688 
" clip-path="url(#pe673a3dede)" style="fill: none; stroke: #7e57c2; stroke-width: 2.8; stroke-linecap: round"/>
    <path d="M 268.285493 226.4688 
L 275.485493 230.0688 
L 268.285493 233.6688 
z
" clip-path="url(#pe673a3dede)" style="fill: #7e57c2; stroke: #7e57c2; stroke-width: 2.8; stroke-linecap: round"/>
   </g>
   <g id="patch_25">
    <path d="M 292.896 256.9572 
C 293.561925 256.9572 294.200665 256.694332 294.671545 256.22649 
C 295.142425 255.758648 295.407 255.124029 295.407 254.4624 
C 295.407 253.800771 295.142425 253.166152 294.671545 252.69831 
C 294.200665 252.230468 293.561925 251.9676 292.896 251.9676 
C 292.230075 251.9676 291.591335 252.230468 291.120455 252.69831 
C 290.649575 253.166152 290.385 253.800771 290.385 254.4624 
C 290.385 255.124029 290.649575 255.758648 291.120455 256.22649 
C 291.591335 256.694332 292.230075 256.9572 292.896 256.9572 
z
" clip-path="url(#pe673a3dede)" style="fill: #13294b; opacity: 0.75"/>
   </g>
   <g id="patch_26">
    <path d="M 292.896 241.434 
C 293.561925 241.434 294.200665 241.171132 294.671545 240.70329 
C 295.142425 240.235448 295.407 239.600829 295.407 238.9392 
C 295.407 238.277571 295.142425 237.642952 294.671545 237.17511 
C 294.200665 236.707268 293.561925 236.4444 292.896 236.4444 
C 292.230075 236.4444 291.591335 236.707268 291.120455 237.17511 
C 290.649575 237.642952 290.385 238.277571 290.385 238.9392 
C 290.385 239.600829 290.649575 240.235448 291.120455 240.70329 
C 291.591335 241.171132 292.230075 241.434 292.896 241.434 
z
" clip-path="url(#pe673a3dede)" style="fill: #13294b; opacity: 0.75"/>
   </g>
   <g id="patch_27">
    <path d="M 292.896 225.9108 
C 293.561925 225.9108 294.200665 225.647932 294.671545 225.18009 
C 295.142425 224.712248 295.407 224.077629 295.407 223.416 
C 295.407 222.754371 295.142425 222.119752 294.671545 221.65191 
C 294.200665 221.184068 293.561925 220.9212 292.896 220.9212 
C 292.230075 220.9212 291.591335 221.184068 291.120455 221.65191 
C 290.649575 222.119752 290.385 222.754371 290.385 223.416 
C 290.385 224.077629 290.649575 224.712248 291.120455 225.18009 
C 291.591335 225.647932 292.230075 225.9108 292.896 225.9108 
z
" clip-path="url(#pe673a3dede)" style="fill: #13294b; opacity: 0.75"/>
   </g>
   <g id="patch_28">
    <path d="M 292.896 210.3876 
C 293.561925 210.3876 294.200665 210.124732 294.671545 209.65689 
C 295.142425 209.189048 295.407 208.554429 295.407 207.8928 
C 295.407 207.231171 295.142425 206.596552 294.671545 206.12871 
C 294.200665 205.660868 293.561925 205.398 292.896 205.398 
C 292.230075 205.398 291.591335 205.660868 291.120455 206.12871 
C 290.649575 206.596552 290.385 207.231171 290.385 207.8928 
C 290.385 208.554429 290.649575 209.189048 291.120455 209.65689 
C 291.591335 210.124732 292.230075 210.3876 292.896 210.3876 
z
" clip-path="url(#pe673a3dede)" style="fill: #13294b; opacity: 0.75"/>
   </g>
   <g id="patch_29">
    <path d="M 308.52 256.9572 
C 309.185925 256.9572 309.824665 256.694332 310.295545 256.22649 
C 310.766425 255.758648 311.031 255.124029 311.031 254.4624 
C 311.031 253.800771 310.766425 253.166152 310.295545 252.69831 
C 309.824665 252.230468 309.185925 251.9676 308.52 251.9676 
C 307.854075 251.9676 307.215335 252.230468 306.744455 252.69831 
C 306.273575 253.166152 306.009 253.800771 306.009 254.4624 
C 306.009 255.124029 306.273575 255.758648 306.744455 256.22649 
C 307.215335 256.694332 307.854075 256.9572 308.52 256.9572 
z
" clip-path="url(#pe673a3dede)" style="fill: #13294b; opacity: 0.75"/>
   </g>
   <g id="patch_30">
    <path d="M 308.52 241.434 
C 309.185925 241.434 309.824665 241.171132 310.295545 240.70329 
C 310.766425 240.235448 311.031 239.600829 311.031 238.9392 
C 311.031 238.277571 310.766425 237.642952 310.295545 237.17511 
C 309.824665 236.707268 309.185925 236.4444 308.52 236.4444 
C 307.854075 236.4444 307.215335 236.707268 306.744455 237.17511 
C 306.273575 237.642952 306.009 238.277571 306.009 238.9392 
C 306.009 239.600829 306.273575 240.235448 306.744455 240.70329 
C 307.215335 241.171132 307.854075 241.434 308.52 241.434 
z
" clip-path="url(#pe673a3dede)" style="fill: #13294b; opacity: 0.75"/>
   </g>
   <g id="patch_31">
    <path d="M 308.52 225.9108 
C 309.185925 225.9108 309.824665 225.647932 310.295545 225.18009 
C 310.766425 224.712248 311.031 224.077629 311.031 223.416 
C 311.031 222.754371 310.766425 222.119752 310.295545 221.65191 
C 309.824665 221.184068 309.185925 220.9212 308.52 220.9212 
C 307.854075 220.9212 307.215335 221.184068 306.744455 221.65191 
C 306.273575 222.119752 306.009 222.754371 306.009 223.416 
C 306.009 224.077629 306.273575 224.712248 306.744455 225.18009 
C 307.215335 225.647932 307.854075 225.9108 308.52 225.9108 
z
" clip-path="url(#pe673a3dede)" style="fill: #13294b; opacity: 0.75"/>
   </g>
   <g id="patch_32">
    <path d="M 308.52 210.3876 
C 309.185925 210.3876 309.824665 210.124732 310.295545 209.65689 
C 310.766425 209.189048 311.031 208.554429 311.031 207.8928 
C 311.031 207.231171 310.766425 206.596552 310.295545 206.12871 
C 309.824665 205.660868 309.185925 205.398 308.52 205.398 
C 307.854075 205.398 307.215335 205.660868 306.744455 206.12871 
C 306.273575 206.596552 306.009 207.231171 306.009 207.8928 
C 306.009 208.554429 306.273575 209.189048 306.744455 209.65689 
C 307.215335 210.124732 307.854075 210.3876 308.52 210.3876 
z
" clip-path="url(#pe673a3dede)" style="fill: #13294b; opacity: 0.75"/>
   </g>
   <g id="patch_33">
    <path d="M 324.144 256.9572 
C 324.809925 256.9572 325.448665 256.694332 325.919545 256.22649 
C 326.390425 255.758648 326.655 255.124029 326.655 254.4624 
C 326.655 253.800771 326.390425 253.166152 325.919545 252.69831 
C 325.448665 252.230468 324.809925 251.9676 324.144 251.9676 
C 323.478075 251.9676 322.839335 252.230468 322.368455 252.69831 
C 321.897575 253.166152 321.633 253.800771 321.633 254.4624 
C 321.633 255.124029 321.897575 255.758648 322.368455 256.22649 
C 322.839335 256.694332 323.478075 256.9572 324.144 256.9572 
z
" clip-path="url(#pe673a3dede)" style="fill: #13294b; opacity: 0.75"/>
   </g>
   <g id="patch_34">
    <path d="M 324.144 241.434 
C 324.809925 241.434 325.448665 241.171132 325.919545 240.70329 
C 326.390425 240.235448 326.655 239.600829 326.655 238.9392 
C 326.655 238.277571 326.390425 237.642952 325.919545 237.17511 
C 325.448665 236.707268 324.809925 236.4444 324.144 236.4444 
C 323.478075 236.4444 322.839335 236.707268 322.368455 237.17511 
C 321.897575 237.642952 321.633 238.277571 321.633 238.9392 
C 321.633 239.600829 321.897575 240.235448 322.368455 240.70329 
C 322.839335 241.171132 323.478075 241.434 324.144 241.434 
z
" clip-path="url(#pe673a3dede)" style="fill: #13294b; opacity: 0.75"/>
   </g>
   <g id="patch_35">
    <path d="M 324.144 225.9108 
C 324.809925 225.9108 325.448665 225.647932 325.919545 225.18009 
C 326.390425 224.712248 326.655 224.077629 326.655 223.416 
C 326.655 222.754371 326.390425 222.119752 325.919545 221.65191 
C 325.448665 221.184068 324.809925 220.9212 324.144 220.9212 
C 323.478075 220.9212 322.839335 221.184068 322.368455 221.65191 
C 321.897575 222.119752 321.633 222.754371 321.633 223.416 
C 321.633 224.077629 321.897575 224.712248 322.368455 225.18009 
C 322.839335 225.647932 323.478075 225.9108 324.144 225.9108 
z
" clip-path="url(#pe673a3dede)" style="fill: #13294b; opacity: 0.75"/>
   </g>
   <g id="patch_36">
    <path d="M 324.144 210.3876 
C 324.809925 210.3876 325.448665 210.124732 325.919545 209.65689 
C 326.390425 209.189048 326.655 208.554429 326.655 207.8928 
C 326.655 207.231171 326.390425 206.596552 325.919545 206.12871 
C 325.448665 205.660868 324.809925 205.398 324.144 205.398 
C 323.478075 205.398 322.839335 205.660868 322.368455 206.12871 
C 321.897575 206.596552 321.633 207.231171 321.633 207.8928 
C 321.633 208.554429 321.897575 209.189048 322.368455 209.65689 
C 322.839335 210.124732 323.478075 210.3876 324.144 210.3876 
z
" clip-path="url(#pe673a3dede)" style="fill: #13294b; opacity: 0.75"/>
   </g>
   <g id="patch_37">
    <path d="M 339.768 256.9572 
C 340.433925 256.9572 341.072665 256.694332 341.543545 256.22649 
C 342.014425 255.758648 342.279 255.124029 342.279 254.4624 
C 342.279 253.800771 342.014425 253.166152 341.543545 252.69831 
C 341.072665 252.230468 340.433925 251.9676 339.768 251.9676 
C 339.102075 251.9676 338.463335 252.230468 337.992455 252.69831 
C 337.521575 253.166152 337.257 253.800771 337.257 254.4624 
C 337.257 255.124029 337.521575 255.758648 337.992455 256.22649 
C 338.463335 256.694332 339.102075 256.9572 339.768 256.9572 
z
" clip-path="url(#pe673a3dede)" style="fill: #13294b; opacity: 0.75"/>
   </g>
   <g id="patch_38">
    <path d="M 339.768 241.434 
C 340.433925 241.434 341.072665 241.171132 341.543545 240.70329 
C 342.014425 240.235448 342.279 239.600829 342.279 238.9392 
C 342.279 238.277571 342.014425 237.642952 341.543545 237.17511 
C 341.072665 236.707268 340.433925 236.4444 339.768 236.4444 
C 339.102075 236.4444 338.463335 236.707268 337.992455 237.17511 
C 337.521575 237.642952 337.257 238.277571 337.257 238.9392 
C 337.257 239.600829 337.521575 240.235448 337.992455 240.70329 
C 338.463335 241.171132 339.102075 241.434 339.768 241.434 
z
" clip-path="url(#pe673a3dede)" style="fill: #13294b; opacity: 0.75"/>
   </g>
   <g id="patch_39">
    <path d="M 339.768 225.9108 
C 340.433925 225.9108 341.072665 225.647932 341.543545 225.18009 
C 342.014425 224.712248 342.279 224.077629 342.279 223.416 
C 342.279 222.754371 342.014425 222.119752 341.543545 221.65191 
C 341.072665 221.184068 340.433925 220.9212 339.768 220.9212 
C 339.102075 220.9212 338.463335 221.184068 337.992455 221.65191 
C 337.521575 222.119752 337.257 222.754371 337.257 223.416 
C 337.257 224.077629 337.521575 224.712248 337.992455 225.18009 
C 338.463335 225.647932 339.102075 225.9108 339.768 225.9108 
z
" clip-path="url(#pe673a3dede)" style="fill: #13294b; opacity: 0.75"/>
   </g>
   <g id="patch_40">
    <path d="M 339.768 210.3876 
C 340.433925 210.3876 341.072665 210.124732 341.543545 209.65689 
C 342.014425 209.189048 342.279 208.554429 342.279 207.8928 
C 342.279 207.231171 342.014425 206.596552 341.543545 206.12871 
C 341.072665 205.660868 340.433925 205.398 339.768 205.398 
C 339.102075 205.398 338.463335 205.660868 337.992455 206.12871 
C 337.521575 206.596552 337.257 207.231171 337.257 207.8928 
C 337.257 208.554429 337.521575 209.189048 337.992455 209.65689 
C 338.463335 210.124732 339.102075 210.3876 339.768 210.3876 
z
" clip-path="url(#pe673a3dede)" style="fill: #13294b; opacity: 0.75"/>
   </g>
   <g id="patch_41">
    <path d="M 355.392 256.9572 
C 356.057925 256.9572 356.696665 256.694332 357.167545 256.22649 
C 357.638425 255.758648 357.903 255.124029 357.903 254.4624 
C 357.903 253.800771 357.638425 253.166152 357.167545 252.69831 
C 356.696665 252.230468 356.057925 251.9676 355.392 251.9676 
C 354.726075 251.9676 354.087335 252.230468 353.616455 252.69831 
C 353.145575 253.166152 352.881 253.800771 352.881 254.4624 
C 352.881 255.124029 353.145575 255.758648 353.616455 256.22649 
C 354.087335 256.694332 354.726075 256.9572 355.392 256.9572 
z
" clip-path="url(#pe673a3dede)" style="fill: #13294b; opacity: 0.75"/>
   </g>
   <g id="patch_42">
    <path d="M 355.392 241.434 
C 356.057925 241.434 356.696665 241.171132 357.167545 240.70329 
C 357.638425 240.235448 357.903 239.600829 357.903 238.9392 
C 357.903 238.277571 357.638425 237.642952 357.167545 237.17511 
C 356.696665 236.707268 356.057925 236.4444 355.392 236.4444 
C 354.726075 236.4444 354.087335 236.707268 353.616455 237.17511 
C 353.145575 237.642952 352.881 238.277571 352.881 238.9392 
C 352.881 239.600829 353.145575 240.235448 353.616455 240.70329 
C 354.087335 241.171132 354.726075 241.434 355.392 241.434 
z
" clip-path="url(#pe673a3dede)" style="fill: #13294b; opacity: 0.75"/>
   </g>
   <g id="patch_43">
    <path d="M 355.392 225.9108 
C 356.057925 225.9108 356.696665 225.647932 357.167545 225.18009 
C 357.638425 224.712248 357.903 224.077629 357.903 223.416 
C 357.903 222.754371 357.638425 222.119752 357.167545 221.65191 
C 356.696665 221.184068 356.057925 220.9212 355.392 220.9212 
C 354.726075 220.9212 354.087335 221.184068 353.616455 221.65191 
C 353.145575 222.119752 352.881 222.754371 352.881 223.416 
C 352.881 224.077629 353.145575 224.712248 353.616455 225.18009 
C 354.087335 225.647932 354.726075 225.9108 355.392 225.9108 
z
" clip-path="url(#pe673a3dede)" style="fill: #13294b; opacity: 0.75"/>
   </g>
   <g id="patch_44">
    <path d="M 355.392 210.3876 
C 356.057925 210.3876 356.696665 210.124732 357.167545 209.65689 
C 357.638425 209.189048 357.903 208.554429 357.903 207.8928 
C 357.903 207.231171 357.638425 206.596552 357.167545 206.12871 
C 356.696665 205.660868 356.057925 205.398 355.392 205.398 
C 354.726075 205.398 354.087335 205.660868 353.616455 206.12871 
C 353.145575 206.596552 352.881 207.231171 352.881 207.8928 
C 352.881 208.554429 353.145575 209.189048 353.616455 209.65689 
C 354.087335 210.124732 354.726075 210.3876 355.392 210.3876 
z
" clip-path="url(#pe673a3dede)" style="fill: #13294b; opacity: 0.75"/>
   </g>
   <g id="patch_45">
    <path d="M 339.768 211.7736 
C 341.09985 211.7736 342.37733 211.247864 343.31909 210.31218 
C 344.26085 209.376496 344.79 208.107257 344.79 206.784 
C 344.79 205.460743 344.26085 204.191504 343.31909 203.25582 
C 342.37733 202.320136 341.09985 201.7944 339.768 201.7944 
C 338.43615 201.7944 337.15867 202.320136 336.21691 203.25582 
C 335.27515 204.191504 334.746 205.460743 334.746 206.784 
C 334.746 208.107257 335.27515 209.376496 336.21691 210.31218 
C 337.15867 211.247864 338.43615 211.7736 339.768 211.7736 
z
" clip-path="url(#pe673a3dede)" style="fill: #ff5f05; stroke: #ffffff; stroke-width: 2; stroke-linejoin: miter"/>
   </g>
   <g id="patch_46">
    <path d="M 614.626628 230.0688 
Q 647.50463 230.0688 677.252137 230.0688 
" clip-path="url(#pe673a3dede)" style="fill: none; stroke: #7e57c2; stroke-width: 2.8; stroke-linecap: round"/>
    <path d="M 670.052137 226.4688 
L 677.252137 230.0688 
L 670.052137 233.6688 
z
" clip-path="url(#pe673a3dede)" style="fill: #7e57c2; stroke: #7e57c2; stroke-width: 2.8; stroke-linecap: round"/>
   </g>
   <g id="patch_47">
    <path d="M 702.468 255.5712 
L 786.726 255.5712 
Q 794.538 255.5712 794.538 247.8096 
L 794.538 213.4368 
Q 794.538 205.6752 786.726 205.6752 
L 702.468 205.6752 
Q 694.656 205.6752 694.656 213.4368 
L 694.656 247.8096 
Q 694.656 255.5712 702.468 255.5712 
z
" clip-path="url(#pe673a3dede)" style="fill: #ffffff; stroke: #7e57c2; stroke-width: 2; stroke-linejoin: miter"/>
   </g>
   <g id="line2d_1">
    <path d="M 149.49 103.6656 
L 151.298045 96.579534 
L 152.202067 93.736052 
L 153.106089 91.670441 
L 153.558101 90.982669 
L 154.010112 90.544518 
L 154.462123 90.364611 
L 154.914134 90.446488 
L 155.366145 90.788538 
L 155.818156 91.384029 
L 156.722179 93.283696 
L 157.626201 95.99667 
L 158.982235 101.112765 
L 161.242291 110.149163 
L 162.146313 113.115271 
L 163.050335 115.341101 
L 163.502346 116.119247 
L 163.954358 116.652285 
L 164.406369 116.929724 
L 164.85838 116.946104 
L 165.310391 116.701103 
L 165.762402 116.199543 
L 166.214413 115.451295 
L 167.118436 113.278207 
L 168.022458 110.352078 
L 169.378492 105.064155 
L 171.638547 96.188675 
L 172.54257 93.431344 
L 173.446592 91.475754 
L 173.898603 90.849307 
L 174.350615 90.475105 
L 174.802626 90.360512 
L 175.254637 90.507785 
L 175.706648 90.914024 
L 176.158659 91.571235 
L 177.062682 93.582145 
L 177.966704 96.382983 
L 179.322737 101.572614 
L 181.582793 110.552933 
L 182.486816 113.438183 
L 183.390838 115.557859 
L 183.842849 116.275979 
L 184.29486 116.745907 
L 184.746872 116.958394 
L 185.198883 116.909258 
L 185.650894 116.599465 
L 186.102905 116.035114 
L 186.554916 115.227311 
L 187.458939 112.949424 
L 188.362961 109.944251 
L 190.171006 102.732272 
L 191.527039 97.386949 
L 192.431061 94.381776 
L 193.335084 92.103889 
L 193.787095 91.296086 
L 194.239106 90.731735 
L 194.691117 90.421942 
L 195.143128 90.372806 
L 195.59514 90.585293 
L 196.047151 91.055221 
L 196.499162 91.773341 
L 197.403184 93.893017 
L 198.307207 96.778267 
L 199.66324 102.035042 
L 201.923296 110.948217 
L 202.827318 113.749055 
L 203.731341 115.759965 
L 204.183352 116.417176 
L 204.635363 116.823415 
L 205.087374 116.970688 
L 205.539385 116.856095 
L 205.991397 116.481893 
L 206.443408 115.855446 
L 207.34743 113.899856 
L 208.251453 111.142525 
L 209.607486 105.988869 
L 211.867542 96.979122 
L 212.771564 94.052993 
L 213.675587 91.879905 
L 214.127598 91.131657 
L 214.579609 90.630097 
L 215.03162 90.385096 
L 215.483631 90.401476 
L 215.935642 90.678915 
L 216.387654 91.211953 
L 216.839665 91.990099 
L 217.743687 94.215929 
L 218.647709 97.182037 
L 220.455754 104.365848 
L 222.263799 111.33453 
L 223.167821 114.047504 
L 224.071844 115.947171 
L 224.523855 116.542662 
L 224.975866 116.884712 
L 225.427877 116.966589 
L 225.879888 116.786682 
L 226.331899 116.348531 
L 226.783911 115.660759 
L 227.687933 113.595148 
L 228.591955 110.751666 
L 229.947989 105.527659 
L 230.4 103.6656 
L 230.4 103.6656 
" clip-path="url(#pe673a3dede)" style="fill: none; stroke: #0072b2; stroke-width: 4; stroke-linecap: round"/>
   </g>
   <g id="line2d_2">
    <path d="M 298.476 112.536 
L 324.144 112.536 
" clip-path="url(#pe673a3dede)" style="fill: none; stroke: #13294b; stroke-width: 3; stroke-linecap: square"/>
   </g>
   <g id="line2d_3">
    <path d="M 146.7 205.6752 
L 226.494 205.6752 
" clip-path="url(#pe673a3dede)" style="fill: none; stroke: #0072b2; stroke-opacity: 0.25; stroke-width: 2; stroke-linecap: square"/>
   </g>
   <g id="line2d_4">
    <path d="M 146.7 224.5248 
L 226.494 224.5248 
" clip-path="url(#pe673a3dede)" style="fill: none; stroke: #7e57c2; stroke-opacity: 0.25; stroke-width: 2; stroke-linecap: square"/>
   </g>
   <g id="line2d_5">
    <path d="M 146.7 243.3744 
L 226.494 243.3744 
" clip-path="url(#pe673a3dede)" style="fill: none; stroke: #ff5f05; stroke-opacity: 0.25; stroke-width: 2; stroke-linecap: square"/>
   </g>
   <g id="line2d_6">
    <path d="M 293.454 253.3536 
L 339.768 206.784 
" clip-path="url(#pe673a3dede)" style="fill: none; stroke: #ff5f05; stroke-width: 4; stroke-linecap: square"/>
   </g>
   <g id="text_1">
    <!-- Two quantum routes to the same factors -->
    <g style="fill: #13294b" transform="translate(115.995234 34.727527) scale(0.27 -0.27)">
     <defs>
      <path id="DejaVuSans-Bold-37" d="M 31 4666 
L 4331 4666 
L 4331 3756 
L 2784 3756 
L 2784 0 
L 1581 0 
L 1581 3756 
L 31 3756 
L 31 4666 
z
" transform="scale(0.015625)"/>
      <path id="DejaVuSans-Bold-5a" d="M 225 3500 
L 1313 3500 
L 1900 1088 
L 2491 3500 
L 3425 3500 
L 4013 1113 
L 4603 3500 
L 5691 3500 
L 4769 0 
L 3547 0 
L 2956 2406 
L 2369 0 
L 1147 0 
L 225 3500 
z
" transform="scale(0.015625)"/>
      <path id="DejaVuSans-Bold-52" d="M 2203 2784 
Q 1831 2784 1636 2517 
Q 1441 2250 1441 1747 
Q 1441 1244 1636 976 
Q 1831 709 2203 709 
Q 2569 709 2762 976 
Q 2956 1244 2956 1747 
Q 2956 2250 2762 2517 
Q 2569 2784 2203 2784 
z
M 2203 3584 
Q 3106 3584 3614 3096 
Q 4122 2609 4122 1747 
Q 4122 884 3614 396 
Q 3106 -91 2203 -91 
Q 1297 -91 786 396 
Q 275 884 275 1747 
Q 275 2609 786 3096 
Q 1297 3584 2203 3584 
z
" transform="scale(0.015625)"/>
      <path id="DejaVuSans-Bold-3" transform="scale(0.015625)"/>
      <path id="DejaVuSans-Bold-54" d="M 2181 2772 
Q 1825 2772 1636 2509 
Q 1447 2247 1447 1747 
Q 1447 1247 1636 984 
Q 1825 722 2181 722 
Q 2541 722 2730 984 
Q 2919 1247 2919 1747 
Q 2919 2247 2730 2509 
Q 2541 2772 2181 2772 
z
M 2919 506 
Q 2688 197 2409 53 
Q 2131 -91 1766 -91 
Q 1119 -91 703 423 
Q 288 938 288 1747 
Q 288 2556 703 3067 
Q 1119 3578 1766 3578 
Q 2131 3578 2409 3434 
Q 2688 3291 2919 2981 
L 2919 3500 
L 4044 3500 
L 4044 -1331 
L 2919 -1331 
L 2919 506 
z
" transform="scale(0.015625)"/>
      <path id="DejaVuSans-Bold-58" d="M 500 1363 
L 500 3500 
L 1625 3500 
L 1625 3150 
Q 1625 2866 1622 2436 
Q 1619 2006 1619 1863 
Q 1619 1441 1641 1255 
Q 1663 1069 1716 984 
Q 1784 875 1895 815 
Q 2006 756 2150 756 
Q 2500 756 2700 1025 
Q 2900 1294 2900 1772 
L 2900 3500 
L 4019 3500 
L 4019 0 
L 2900 0 
L 2900 506 
Q 2647 200 2364 54 
Q 2081 -91 1741 -91 
Q 1134 -91 817 281 
Q 500 653 500 1363 
z
" transform="scale(0.015625)"/>
      <path id="DejaVuSans-Bold-44" d="M 2106 1575 
Q 1756 1575 1579 1456 
Q 1403 1338 1403 1106 
Q 1403 894 1545 773 
Q 1688 653 1941 653 
Q 2256 653 2472 879 
Q 2688 1106 2688 1447 
L 2688 1575 
L 2106 1575 
z
M 3816 1997 
L 3816 0 
L 2688 0 
L 2688 519 
Q 2463 200 2181 54 
Q 1900 -91 1497 -91 
Q 953 -91 614 226 
Q 275 544 275 1050 
Q 275 1666 698 1953 
Q 1122 2241 2028 2241 
L 2688 2241 
L 2688 2328 
Q 2688 2594 2478 2717 
Q 2269 2841 1825 2841 
Q 1466 2841 1156 2769 
Q 847 2697 581 2553 
L 581 3406 
Q 941 3494 1303 3539 
Q 1666 3584 2028 3584 
Q 2975 3584 3395 3211 
Q 3816 2838 3816 1997 
z
" transform="scale(0.015625)"/>
      <path id="DejaVuSans-Bold-51" d="M 4056 2131 
L 4056 0 
L 2931 0 
L 2931 347 
L 2931 1631 
Q 2931 2084 2911 2256 
Q 2891 2428 2841 2509 
Q 2775 2619 2662 2680 
Q 2550 2741 2406 2741 
Q 2056 2741 1856 2470 
Q 1656 2200 1656 1722 
L 1656 0 
L 538 0 
L 538 3500 
L 1656 3500 
L 1656 2988 
Q 1909 3294 2193 3439 
Q 2478 3584 2822 3584 
Q 3428 3584 3742 3212 
Q 4056 2841 4056 2131 
z
" transform="scale(0.015625)"/>
      <path id="DejaVuSans-Bold-57" d="M 1759 4494 
L 1759 3500 
L 2913 3500 
L 2913 2700 
L 1759 2700 
L 1759 1216 
Q 1759 972 1856 886 
Q 1953 800 2241 800 
L 2816 800 
L 2816 0 
L 1856 0 
Q 1194 0 917 276 
Q 641 553 641 1216 
L 641 2700 
L 84 2700 
L 84 3500 
L 641 3500 
L 641 4494 
L 1759 4494 
z
" transform="scale(0.015625)"/>
      <path id="DejaVuSans-Bold-50" d="M 3781 2919 
Q 3994 3244 4286 3414 
Q 4578 3584 4928 3584 
Q 5531 3584 5847 3212 
Q 6163 2841 6163 2131 
L 6163 0 
L 5038 0 
L 5038 1825 
Q 5041 1866 5042 1909 
Q 5044 1953 5044 2034 
Q 5044 2406 4934 2573 
Q 4825 2741 4581 2741 
Q 4263 2741 4089 2478 
Q 3916 2216 3909 1719 
L 3909 0 
L 2784 0 
L 2784 1825 
Q 2784 2406 2684 2573 
Q 2584 2741 2328 2741 
Q 2006 2741 1831 2477 
Q 1656 2213 1656 1722 
L 1656 0 
L 531 0 
L 531 3500 
L 1656 3500 
L 1656 2988 
Q 1863 3284 2130 3434 
Q 2397 3584 2719 3584 
Q 3081 3584 3359 3409 
Q 3638 3234 3781 2919 
z
" transform="scale(0.015625)"/>
      <path id="DejaVuSans-Bold-55" d="M 3138 2547 
Q 2991 2616 2845 2648 
Q 2700 2681 2553 2681 
Q 2122 2681 1889 2404 
Q 1656 2128 1656 1613 
L 1656 0 
L 538 0 
L 538 3500 
L 1656 3500 
L 1656 2925 
Q 1872 3269 2151 3426 
Q 2431 3584 2822 3584 
Q 2878 3584 2943 3579 
Q 3009 3575 3134 3559 
L 3138 2547 
z
" transform="scale(0.015625)"/>
      <path id="DejaVuSans-Bold-48" d="M 4031 1759 
L 4031 1441 
L 1416 1441 
Q 1456 1047 1700 850 
Q 1944 653 2381 653 
Q 2734 653 3104 758 
Q 3475 863 3866 1075 
L 3866 213 
Q 3469 63 3072 -14 
Q 2675 -91 2278 -91 
Q 1328 -91 801 392 
Q 275 875 275 1747 
Q 275 2603 792 3093 
Q 1309 3584 2216 3584 
Q 3041 3584 3536 3087 
Q 4031 2591 4031 1759 
z
M 2881 2131 
Q 2881 2450 2695 2645 
Q 2509 2841 2209 2841 
Q 1884 2841 1681 2658 
Q 1478 2475 1428 2131 
L 2881 2131 
z
" transform="scale(0.015625)"/>
      <path id="DejaVuSans-Bold-56" d="M 3272 3391 
L 3272 2541 
Q 2913 2691 2578 2766 
Q 2244 2841 1947 2841 
Q 1628 2841 1473 2761 
Q 1319 2681 1319 2516 
Q 1319 2381 1436 2309 
Q 1553 2238 1856 2203 
L 2053 2175 
Q 2913 2066 3209 1816 
Q 3506 1566 3506 1031 
Q 3506 472 3093 190 
Q 2681 -91 1863 -91 
Q 1516 -91 1145 -36 
Q 775 19 384 128 
L 384 978 
Q 719 816 1070 734 
Q 1422 653 1784 653 
Q 2113 653 2278 743 
Q 2444 834 2444 1013 
Q 2444 1163 2330 1236 
Q 2216 1309 1875 1350 
L 1678 1375 
Q 931 1469 631 1722 
Q 331 1975 331 2491 
Q 331 3047 712 3315 
Q 1094 3584 1881 3584 
Q 2191 3584 2531 3537 
Q 2872 3491 3272 3391 
z
" transform="scale(0.015625)"/>
      <path id="DejaVuSans-Bold-4b" d="M 4056 2131 
L 4056 0 
L 2931 0 
L 2931 347 
L 2931 1625 
Q 2931 2084 2911 2256 
Q 2891 2428 2841 2509 
Q 2775 2619 2662 2680 
Q 2550 2741 2406 2741 
Q 2056 2741 1856 2470 
Q 1656 2200 1656 1722 
L 1656 0 
L 538 0 
L 538 4863 
L 1656 4863 
L 1656 2988 
Q 1909 3294 2193 3439 
Q 2478 3584 2822 3584 
Q 3428 3584 3742 3212 
Q 4056 2841 4056 2131 
z
" transform="scale(0.015625)"/>
      <path id="DejaVuSans-Bold-49" d="M 2841 4863 
L 2841 4128 
L 2222 4128 
Q 1984 4128 1890 4042 
Q 1797 3956 1797 3744 
L 1797 3500 
L 2753 3500 
L 2753 2700 
L 1797 2700 
L 1797 0 
L 678 0 
L 678 2700 
L 122 2700 
L 122 3500 
L 678 3500 
L 678 3744 
Q 678 4316 997 4589 
Q 1316 4863 1984 4863 
L 2841 4863 
z
" transform="scale(0.015625)"/>
      <path id="DejaVuSans-Bold-46" d="M 3366 3391 
L 3366 2478 
Q 3138 2634 2908 2709 
Q 2678 2784 2431 2784 
Q 1963 2784 1702 2511 
Q 1441 2238 1441 1747 
Q 1441 1256 1702 982 
Q 1963 709 2431 709 
Q 2694 709 2930 787 
Q 3166 866 3366 1019 
L 3366 103 
Q 3103 6 2833 -42 
Q 2563 -91 2291 -91 
Q 1344 -91 809 395 
Q 275 881 275 1747 
Q 275 2613 809 3098 
Q 1344 3584 2291 3584 
Q 2566 3584 2833 3536 
Q 3100 3488 3366 3391 
z
" transform="scale(0.015625)"/>
     </defs>
     <use xlink:href="#DejaVuSans-Bold-37"/>
     <use xlink:href="#DejaVuSans-Bold-5a" transform="translate(57.234375 0)"/>
     <use xlink:href="#DejaVuSans-Bold-52" transform="translate(149.625 0)"/>
     <use xlink:href="#DejaVuSans-Bold-3" transform="translate(218.328125 0)"/>
     <use xlink:href="#DejaVuSans-Bold-54" transform="translate(253.140625 0)"/>
     <use xlink:href="#DejaVuSans-Bold-58" transform="translate(324.71875 0)"/>
     <use xlink:href="#DejaVuSans-Bold-44" transform="translate(395.90625 0)"/>
     <use xlink:href="#DejaVuSans-Bold-51" transform="translate(463.390625 0)"/>
     <use xlink:href="#DejaVuSans-Bold-57" transform="translate(534.578125 0)"/>
     <use xlink:href="#DejaVuSans-Bold-58" transform="translate(582.375 0)"/>
     <use xlink:href="#DejaVuSans-Bold-50" transform="translate(653.5625 0)"/>
     <use xlink:href="#DejaVuSans-Bold-3" transform="translate(757.765625 0)"/>
     <use xlink:href="#DejaVuSans-Bold-55" transform="translate(792.578125 0)"/>
     <use xlink:href="#DejaVuSans-Bold-52" transform="translate(841.890625 0)"/>
     <use xlink:href="#DejaVuSans-Bold-58" transform="translate(910.59375 0)"/>
     <use xlink:href="#DejaVuSans-Bold-57" transform="translate(981.78125 0)"/>
     <use xlink:href="#DejaVuSans-Bold-48" transform="translate(1029.578125 0)"/>
     <use xlink:href="#DejaVuSans-Bold-56" transform="translate(1097.40625 0)"/>
     <use xlink:href="#DejaVuSans-Bold-3" transform="translate(1156.921875 0)"/>
     <use xlink:href="#DejaVuSans-Bold-57" transform="translate(1191.734375 0)"/>
     <use xlink:href="#DejaVuSans-Bold-52" transform="translate(1239.53125 0)"/>
     <use xlink:href="#DejaVuSans-Bold-3" transform="translate(1308.234375 0)"/>
     <use xlink:href="#DejaVuSans-Bold-57" transform="translate(1343.046875 0)"/>
     <use xlink:href="#DejaVuSans-Bold-4b" transform="translate(1390.84375 0)"/>
     <use xlink:href="#DejaVuSans-Bold-48" transform="translate(1462.03125 0)"/>
     <use xlink:href="#DejaVuSans-Bold-3" transform="translate(1529.859375 0)"/>
     <use xlink:href="#DejaVuSans-Bold-56" transform="translate(1564.671875 0)"/>
     <use xlink:href="#DejaVuSans-Bold-44" transform="translate(1624.1875 0)"/>
     <use xlink:href="#DejaVuSans-Bold-50" transform="translate(1691.671875 0)"/>
     <use xlink:href="#DejaVuSans-Bold-48" transform="translate(1795.875 0)"/>
     <use xlink:href="#DejaVuSans-Bold-3" transform="translate(1863.703125 0)"/>
     <use xlink:href="#DejaVuSans-Bold-49" transform="translate(1898.515625 0)"/>
     <use xlink:href="#DejaVuSans-Bold-44" transform="translate(1942.015625 0)"/>
     <use xlink:href="#DejaVuSans-Bold-46" transform="translate(2009.5 0)"/>
     <use xlink:href="#DejaVuSans-Bold-57" transform="translate(2068.78125 0)"/>
     <use xlink:href="#DejaVuSans-Bold-52" transform="translate(2116.578125 0)"/>
     <use xlink:href="#DejaVuSans-Bold-55" transform="translate(2185.28125 0)"/>
     <use xlink:href="#DejaVuSans-Bold-56" transform="translate(2234.59375 0)"/>
    </g>
   </g>
   <g id="text_2">
    <!-- Shor recovers one period. Regev combines several Fourier clues. -->
    <g style="fill: #526273" transform="translate(182.019141 51.56827) scale(0.15 -0.15)">
     <defs>
      <path id="DejaVuSans-36" d="M 3425 4513 
L 3425 3897 
Q 3066 4069 2747 4153 
Q 2428 4238 2131 4238 
Q 1616 4238 1336 4038 
Q 1056 3838 1056 3469 
Q 1056 3159 1242 3001 
Q 1428 2844 1947 2747 
L 2328 2669 
Q 3034 2534 3370 2195 
Q 3706 1856 3706 1288 
Q 3706 609 3251 259 
Q 2797 -91 1919 -91 
Q 1588 -91 1214 -16 
Q 841 59 441 206 
L 441 856 
Q 825 641 1194 531 
Q 1563 422 1919 422 
Q 2459 422 2753 634 
Q 3047 847 3047 1241 
Q 3047 1584 2836 1778 
Q 2625 1972 2144 2069 
L 1759 2144 
Q 1053 2284 737 2584 
Q 422 2884 422 3419 
Q 422 4038 858 4394 
Q 1294 4750 2059 4750 
Q 2388 4750 2728 4690 
Q 3069 4631 3425 4513 
z
" transform="scale(0.015625)"/>
      <path id="DejaVuSans-4b" d="M 3513 2113 
L 3513 0 
L 2938 0 
L 2938 2094 
Q 2938 2591 2744 2837 
Q 2550 3084 2163 3084 
Q 1697 3084 1428 2787 
Q 1159 2491 1159 1978 
L 1159 0 
L 581 0 
L 581 4863 
L 1159 4863 
L 1159 2956 
Q 1366 3272 1645 3428 
Q 1925 3584 2291 3584 
Q 2894 3584 3203 3211 
Q 3513 2838 3513 2113 
z
" transform="scale(0.015625)"/>
      <path id="DejaVuSans-52" d="M 1959 3097 
Q 1497 3097 1228 2736 
Q 959 2375 959 1747 
Q 959 1119 1226 758 
Q 1494 397 1959 397 
Q 2419 397 2687 759 
Q 2956 1122 2956 1747 
Q 2956 2369 2687 2733 
Q 2419 3097 1959 3097 
z
M 1959 3584 
Q 2709 3584 3137 3096 
Q 3566 2609 3566 1747 
Q 3566 888 3137 398 
Q 2709 -91 1959 -91 
Q 1206 -91 779 398 
Q 353 888 353 1747 
Q 353 2609 779 3096 
Q 1206 3584 1959 3584 
z
" transform="scale(0.015625)"/>
      <path id="DejaVuSans-55" d="M 2631 2963 
Q 2534 3019 2420 3045 
Q 2306 3072 2169 3072 
Q 1681 3072 1420 2755 
Q 1159 2438 1159 1844 
L 1159 0 
L 581 0 
L 581 3500 
L 1159 3500 
L 1159 2956 
Q 1341 3275 1631 3429 
Q 1922 3584 2338 3584 
Q 2397 3584 2469 3576 
Q 2541 3569 2628 3553 
L 2631 2963 
z
" transform="scale(0.015625)"/>
      <path id="DejaVuSans-3" transform="scale(0.015625)"/>
      <path id="DejaVuSans-48" d="M 3597 1894 
L 3597 1613 
L 953 1613 
Q 991 1019 1311 708 
Q 1631 397 2203 397 
Q 2534 397 2845 478 
Q 3156 559 3463 722 
L 3463 178 
Q 3153 47 2828 -22 
Q 2503 -91 2169 -91 
Q 1331 -91 842 396 
Q 353 884 353 1716 
Q 353 2575 817 3079 
Q 1281 3584 2069 3584 
Q 2775 3584 3186 3129 
Q 3597 2675 3597 1894 
z
M 3022 2063 
Q 3016 2534 2758 2815 
Q 2500 3097 2075 3097 
Q 1594 3097 1305 2825 
Q 1016 2553 972 2059 
L 3022 2063 
z
" transform="scale(0.015625)"/>
      <path id="DejaVuSans-46" d="M 3122 3366 
L 3122 2828 
Q 2878 2963 2633 3030 
Q 2388 3097 2138 3097 
Q 1578 3097 1268 2742 
Q 959 2388 959 1747 
Q 959 1106 1268 751 
Q 1578 397 2138 397 
Q 2388 397 2633 464 
Q 2878 531 3122 666 
L 3122 134 
Q 2881 22 2623 -34 
Q 2366 -91 2075 -91 
Q 1284 -91 818 406 
Q 353 903 353 1747 
Q 353 2603 823 3093 
Q 1294 3584 2113 3584 
Q 2378 3584 2631 3529 
Q 2884 3475 3122 3366 
z
" transform="scale(0.015625)"/>
      <path id="DejaVuSans-59" d="M 191 3500 
L 800 3500 
L 1894 563 
L 2988 3500 
L 3597 3500 
L 2284 0 
L 1503 0 
L 191 3500 
z
" transform="scale(0.015625)"/>
      <path id="DejaVuSans-56" d="M 2834 3397 
L 2834 2853 
Q 2591 2978 2328 3040 
Q 2066 3103 1784 3103 
Q 1356 3103 1142 2972 
Q 928 2841 928 2578 
Q 928 2378 1081 2264 
Q 1234 2150 1697 2047 
L 1894 2003 
Q 2506 1872 2764 1633 
Q 3022 1394 3022 966 
Q 3022 478 2636 193 
Q 2250 -91 1575 -91 
Q 1294 -91 989 -36 
Q 684 19 347 128 
L 347 722 
Q 666 556 975 473 
Q 1284 391 1588 391 
Q 1994 391 2212 530 
Q 2431 669 2431 922 
Q 2431 1156 2273 1281 
Q 2116 1406 1581 1522 
L 1381 1569 
Q 847 1681 609 1914 
Q 372 2147 372 2553 
Q 372 3047 722 3315 
Q 1072 3584 1716 3584 
Q 2034 3584 2315 3537 
Q 2597 3491 2834 3397 
z
" transform="scale(0.015625)"/>
      <path id="DejaVuSans-51" d="M 3513 2113 
L 3513 0 
L 2938 0 
L 2938 2094 
Q 2938 2591 2744 2837 
Q 2550 3084 2163 3084 
Q 1697 3084 1428 2787 
Q 1159 2491 1159 1978 
L 1159 0 
L 581 0 
L 581 3500 
L 1159 3500 
L 1159 2956 
Q 1366 3272 1645 3428 
Q 1925 3584 2291 3584 
Q 2894 3584 3203 3211 
Q 3513 2838 3513 2113 
z
" transform="scale(0.015625)"/>
      <path id="DejaVuSans-53" d="M 1159 525 
L 1159 -1331 
L 581 -1331 
L 581 3500 
L 1159 3500 
L 1159 2969 
Q 1341 3281 1617 3432 
Q 1894 3584 2278 3584 
Q 2916 3584 3314 3078 
Q 3713 2572 3713 1747 
Q 3713 922 3314 415 
Q 2916 -91 2278 -91 
Q 1894 -91 1617 61 
Q 1341 213 1159 525 
z
M 3116 1747 
Q 3116 2381 2855 2742 
Q 2594 3103 2138 3103 
Q 1681 3103 1420 2742 
Q 1159 2381 1159 1747 
Q 1159 1113 1420 752 
Q 1681 391 2138 391 
Q 2594 391 2855 752 
Q 3116 1113 3116 1747 
z
" transform="scale(0.015625)"/>
      <path id="DejaVuSans-4c" d="M 603 3500 
L 1178 3500 
L 1178 0 
L 603 0 
L 603 3500 
z
M 603 4863 
L 1178 4863 
L 1178 4134 
L 603 4134 
L 603 4863 
z
" transform="scale(0.015625)"/>
      <path id="DejaVuSans-47" d="M 2906 2969 
L 2906 4863 
L 3481 4863 
L 3481 0 
L 2906 0 
L 2906 525 
Q 2725 213 2448 61 
Q 2172 -91 1784 -91 
Q 1150 -91 751 415 
Q 353 922 353 1747 
Q 353 2572 751 3078 
Q 1150 3584 1784 3584 
Q 2172 3584 2448 3432 
Q 2725 3281 2906 2969 
z
M 947 1747 
Q 947 1113 1208 752 
Q 1469 391 1925 391 
Q 2381 391 2643 752 
Q 2906 1113 2906 1747 
Q 2906 2381 2643 2742 
Q 2381 3103 1925 3103 
Q 1469 3103 1208 2742 
Q 947 2381 947 1747 
z
" transform="scale(0.015625)"/>
      <path id="DejaVuSans-11" d="M 684 794 
L 1344 794 
L 1344 0 
L 684 0 
L 684 794 
z
" transform="scale(0.015625)"/>
      <path id="DejaVuSans-35" d="M 2841 2188 
Q 3044 2119 3236 1894 
Q 3428 1669 3622 1275 
L 4263 0 
L 3584 0 
L 2988 1197 
Q 2756 1666 2539 1819 
Q 2322 1972 1947 1972 
L 1259 1972 
L 1259 0 
L 628 0 
L 628 4666 
L 2053 4666 
Q 2853 4666 3247 4331 
Q 3641 3997 3641 3322 
Q 3641 2881 3436 2590 
Q 3231 2300 2841 2188 
z
M 1259 4147 
L 1259 2491 
L 2053 2491 
Q 2509 2491 2742 2702 
Q 2975 2913 2975 3322 
Q 2975 3731 2742 3939 
Q 2509 4147 2053 4147 
L 1259 4147 
z
" transform="scale(0.015625)"/>
      <path id="DejaVuSans-4a" d="M 2906 1791 
Q 2906 2416 2648 2759 
Q 2391 3103 1925 3103 
Q 1463 3103 1205 2759 
Q 947 2416 947 1791 
Q 947 1169 1205 825 
Q 1463 481 1925 481 
Q 2391 481 2648 825 
Q 2906 1169 2906 1791 
z
M 3481 434 
Q 3481 -459 3084 -895 
Q 2688 -1331 1869 -1331 
Q 1566 -1331 1297 -1286 
Q 1028 -1241 775 -1147 
L 775 -588 
Q 1028 -725 1275 -790 
Q 1522 -856 1778 -856 
Q 2344 -856 2625 -561 
Q 2906 -266 2906 331 
L 2906 616 
Q 2728 306 2450 153 
Q 2172 0 1784 0 
Q 1141 0 747 490 
Q 353 981 353 1791 
Q 353 2603 747 3093 
Q 1141 3584 1784 3584 
Q 2172 3584 2450 3431 
Q 2728 3278 2906 2969 
L 2906 3500 
L 3481 3500 
L 3481 434 
z
" transform="scale(0.015625)"/>
      <path id="DejaVuSans-50" d="M 3328 2828 
Q 3544 3216 3844 3400 
Q 4144 3584 4550 3584 
Q 5097 3584 5394 3201 
Q 5691 2819 5691 2113 
L 5691 0 
L 5113 0 
L 5113 2094 
Q 5113 2597 4934 2840 
Q 4756 3084 4391 3084 
Q 3944 3084 3684 2787 
Q 3425 2491 3425 1978 
L 3425 0 
L 2847 0 
L 2847 2094 
Q 2847 2600 2669 2842 
Q 2491 3084 2119 3084 
Q 1678 3084 1418 2786 
Q 1159 2488 1159 1978 
L 1159 0 
L 581 0 
L 581 3500 
L 1159 3500 
L 1159 2956 
Q 1356 3278 1631 3431 
Q 1906 3584 2284 3584 
Q 2666 3584 2933 3390 
Q 3200 3197 3328 2828 
z
" transform="scale(0.015625)"/>
      <path id="DejaVuSans-45" d="M 3116 1747 
Q 3116 2381 2855 2742 
Q 2594 3103 2138 3103 
Q 1681 3103 1420 2742 
Q 1159 2381 1159 1747 
Q 1159 1113 1420 752 
Q 1681 391 2138 391 
Q 2594 391 2855 752 
Q 3116 1113 3116 1747 
z
M 1159 2969 
Q 1341 3281 1617 3432 
Q 1894 3584 2278 3584 
Q 2916 3584 3314 3078 
Q 3713 2572 3713 1747 
Q 3713 922 3314 415 
Q 2916 -91 2278 -91 
Q 1894 -91 1617 61 
Q 1341 213 1159 525 
L 1159 0 
L 581 0 
L 581 4863 
L 1159 4863 
L 1159 2969 
z
" transform="scale(0.015625)"/>
      <path id="DejaVuSans-44" d="M 2194 1759 
Q 1497 1759 1228 1600 
Q 959 1441 959 1056 
Q 959 750 1161 570 
Q 1363 391 1709 391 
Q 2188 391 2477 730 
Q 2766 1069 2766 1631 
L 2766 1759 
L 2194 1759 
z
M 3341 1997 
L 3341 0 
L 2766 0 
L 2766 531 
Q 2569 213 2275 61 
Q 1981 -91 1556 -91 
Q 1019 -91 701 211 
Q 384 513 384 1019 
Q 384 1609 779 1909 
Q 1175 2209 1959 2209 
L 2766 2209 
L 2766 2266 
Q 2766 2663 2505 2880 
Q 2244 3097 1772 3097 
Q 1472 3097 1187 3025 
Q 903 2953 641 2809 
L 641 3341 
Q 956 3463 1253 3523 
Q 1550 3584 1831 3584 
Q 2591 3584 2966 3190 
Q 3341 2797 3341 1997 
z
" transform="scale(0.015625)"/>
      <path id="DejaVuSans-4f" d="M 603 4863 
L 1178 4863 
L 1178 0 
L 603 0 
L 603 4863 
z
" transform="scale(0.015625)"/>
      <path id="DejaVuSans-29" d="M 628 4666 
L 3309 4666 
L 3309 4134 
L 1259 4134 
L 1259 2759 
L 3109 2759 
L 3109 2228 
L 1259 2228 
L 1259 0 
L 628 0 
L 628 4666 
z
" transform="scale(0.015625)"/>
      <path id="DejaVuSans-58" d="M 544 1381 
L 544 3500 
L 1119 3500 
L 1119 1403 
Q 1119 906 1312 657 
Q 1506 409 1894 409 
Q 2359 409 2629 706 
Q 2900 1003 2900 1516 
L 2900 3500 
L 3475 3500 
L 3475 0 
L 2900 0 
L 2900 538 
Q 2691 219 2414 64 
Q 2138 -91 1772 -91 
Q 1169 -91 856 284 
Q 544 659 544 1381 
z
M 1991 3584 
L 1991 3584 
z
" transform="scale(0.015625)"/>
     </defs>
     <use xlink:href="#DejaVuSans-36"/>
     <use xlink:href="#DejaVuSans-4b" transform="translate(63.484375 0)"/>
     <use xlink:href="#DejaVuSans-52" transform="translate(126.859375 0)"/>
     <use xlink:href="#DejaVuSans-55" transform="translate(188.046875 0)"/>
     <use xlink:href="#DejaVuSans-3" transform="translate(229.15625 0)"/>
     <use xlink:href="#DejaVuSans-55" transform="translate(260.9375 0)"/>
     <use xlink:href="#DejaVuSans-48" transform="translate(299.84375 0)"/>
     <use xlink:href="#DejaVuSans-46" transform="translate(361.375 0)"/>
     <use xlink:href="#DejaVuSans-52" transform="translate(416.359375 0)"/>
     <use xlink:href="#DejaVuSans-59" transform="translate(477.546875 0)"/>
     <use xlink:href="#DejaVuSans-48" transform="translate(536.734375 0)"/>
     <use xlink:href="#DejaVuSans-55" transform="translate(598.265625 0)"/>
     <use xlink:href="#DejaVuSans-56" transform="translate(639.375 0)"/>
     <use xlink:href="#DejaVuSans-3" transform="translate(691.46875 0)"/>
     <use xlink:href="#DejaVuSans-52" transform="translate(723.25 0)"/>
     <use xlink:href="#DejaVuSans-51" transform="translate(784.4375 0)"/>
     <use xlink:href="#DejaVuSans-48" transform="translate(847.8125 0)"/>
     <use xlink:href="#DejaVuSans-3" transform="translate(909.34375 0)"/>
     <use xlink:href="#DejaVuSans-53" transform="translate(941.125 0)"/>
     <use xlink:href="#DejaVuSans-48" transform="translate(1004.609375 0)"/>
     <use xlink:href="#DejaVuSans-55" transform="translate(1066.140625 0)"/>
     <use xlink:href="#DejaVuSans-4c" transform="translate(1107.25 0)"/>
     <use xlink:href="#DejaVuSans-52" transform="translate(1135.03125 0)"/>
     <use xlink:href="#DejaVuSans-47" transform="translate(1196.21875 0)"/>
     <use xlink:href="#DejaVuSans-11" transform="translate(1259.703125 0)"/>
     <use xlink:href="#DejaVuSans-3" transform="translate(1291.484375 0)"/>
     <use xlink:href="#DejaVuSans-35" transform="translate(1323.265625 0)"/>
     <use xlink:href="#DejaVuSans-48" transform="translate(1388.265625 0)"/>
     <use xlink:href="#DejaVuSans-4a" transform="translate(1449.796875 0)"/>
     <use xlink:href="#DejaVuSans-48" transform="translate(1513.28125 0)"/>
     <use xlink:href="#DejaVuSans-59" transform="translate(1574.8125 0)"/>
     <use xlink:href="#DejaVuSans-3" transform="translate(1634 0)"/>
     <use xlink:href="#DejaVuSans-46" transform="translate(1665.78125 0)"/>
     <use xlink:href="#DejaVuSans-52" transform="translate(1720.765625 0)"/>
     <use xlink:href="#DejaVuSans-50" transform="translate(1781.953125 0)"/>
     <use xlink:href="#DejaVuSans-45" transform="translate(1879.359375 0)"/>
     <use xlink:href="#DejaVuSans-4c" transform="translate(1942.84375 0)"/>
     <use xlink:href="#DejaVuSans-51" transform="translate(1970.625 0)"/>
     <use xlink:href="#DejaVuSans-48" transform="translate(2034 0)"/>
     <use xlink:href="#DejaVuSans-56" transform="translate(2095.53125 0)"/>
     <use xlink:href="#DejaVuSans-3" transform="translate(2147.625 0)"/>
     <use xlink:href="#DejaVuSans-56" transform="translate(2179.40625 0)"/>
     <use xlink:href="#DejaVuSans-48" transform="translate(2231.5 0)"/>
     <use xlink:href="#DejaVuSans-59" transform="translate(2293.03125 0)"/>
     <use xlink:href="#DejaVuSans-48" transform="translate(2352.21875 0)"/>
     <use xlink:href="#DejaVuSans-55" transform="translate(2413.75 0)"/>
     <use xlink:href="#DejaVuSans-44" transform="translate(2454.859375 0)"/>
     <use xlink:href="#DejaVuSans-4f" transform="translate(2516.140625 0)"/>
     <use xlink:href="#DejaVuSans-3" transform="translate(2543.921875 0)"/>
     <use xlink:href="#DejaVuSans-29" transform="translate(2575.703125 0)"/>
     <use xlink:href="#DejaVuSans-52" transform="translate(2629.65625 0)"/>
     <use xlink:href="#DejaVuSans-58" transform="translate(2690.84375 0)"/>
     <use xlink:href="#DejaVuSans-55" transform="translate(2754.21875 0)"/>
     <use xlink:href="#DejaVuSans-4c" transform="translate(2795.328125 0)"/>
     <use xlink:href="#DejaVuSans-48" transform="translate(2823.109375 0)"/>
     <use xlink:href="#DejaVuSans-55" transform="translate(2884.640625 0)"/>
     <use xlink:href="#DejaVuSans-3" transform="translate(2925.75 0)"/>
     <use xlink:href="#DejaVuSans-46" transform="translate(2957.53125 0)"/>
     <use xlink:href="#DejaVuSans-4f" transform="translate(3012.515625 0)"/>
     <use xlink:href="#DejaVuSans-58" transform="translate(3040.296875 0)"/>
     <use xlink:href="#DejaVuSans-48" transform="translate(3103.671875 0)"/>
     <use xlink:href="#DejaVuSans-56" transform="translate(3165.203125 0)"/>
     <use xlink:href="#DejaVuSans-11" transform="translate(3217.296875 0)"/>
    </g>
   </g>
   <g id="text_3">
    <!-- SHOR -->
    <g style="fill: #0072b2" transform="translate(37.622344 111.303409) scale(0.23 -0.23)">
     <defs>
      <path id="DejaVuSans-Bold-36" d="M 3834 4519 
L 3834 3531 
Q 3450 3703 3084 3790 
Q 2719 3878 2394 3878 
Q 1963 3878 1756 3759 
Q 1550 3641 1550 3391 
Q 1550 3203 1689 3098 
Q 1828 2994 2194 2919 
L 2706 2816 
Q 3484 2659 3812 2340 
Q 4141 2022 4141 1434 
Q 4141 663 3683 286 
Q 3225 -91 2284 -91 
Q 1841 -91 1394 -6 
Q 947 78 500 244 
L 500 1259 
Q 947 1022 1364 901 
Q 1781 781 2169 781 
Q 2563 781 2772 912 
Q 2981 1044 2981 1288 
Q 2981 1506 2839 1625 
Q 2697 1744 2272 1838 
L 1806 1941 
Q 1106 2091 782 2419 
Q 459 2747 459 3303 
Q 459 4000 909 4375 
Q 1359 4750 2203 4750 
Q 2588 4750 2994 4692 
Q 3400 4634 3834 4519 
z
" transform="scale(0.015625)"/>
      <path id="DejaVuSans-Bold-2b" d="M 588 4666 
L 1791 4666 
L 1791 2888 
L 3566 2888 
L 3566 4666 
L 4769 4666 
L 4769 0 
L 3566 0 
L 3566 1978 
L 1791 1978 
L 1791 0 
L 588 0 
L 588 4666 
z
" transform="scale(0.015625)"/>
      <path id="DejaVuSans-Bold-32" d="M 2719 3878 
Q 2169 3878 1866 3472 
Q 1563 3066 1563 2328 
Q 1563 1594 1866 1187 
Q 2169 781 2719 781 
Q 3272 781 3575 1187 
Q 3878 1594 3878 2328 
Q 3878 3066 3575 3472 
Q 3272 3878 2719 3878 
z
M 2719 4750 
Q 3844 4750 4481 4106 
Q 5119 3463 5119 2328 
Q 5119 1197 4481 553 
Q 3844 -91 2719 -91 
Q 1597 -91 958 553 
Q 319 1197 319 2328 
Q 319 3463 958 4106 
Q 1597 4750 2719 4750 
z
" transform="scale(0.015625)"/>
      <path id="DejaVuSans-Bold-35" d="M 2297 2597 
Q 2675 2597 2839 2737 
Q 3003 2878 3003 3200 
Q 3003 3519 2839 3656 
Q 2675 3794 2297 3794 
L 1791 3794 
L 1791 2597 
L 2297 2597 
z
M 1791 1766 
L 1791 0 
L 588 0 
L 588 4666 
L 2425 4666 
Q 3347 4666 3776 4356 
Q 4206 4047 4206 3378 
Q 4206 2916 3982 2619 
Q 3759 2322 3309 2181 
Q 3556 2125 3751 1926 
Q 3947 1728 4147 1325 
L 4800 0 
L 3519 0 
L 2950 1159 
Q 2778 1509 2601 1637 
Q 2425 1766 2131 1766 
L 1791 1766 
z
" transform="scale(0.015625)"/>
     </defs>
     <use xlink:href="#DejaVuSans-Bold-36"/>
     <use xlink:href="#DejaVuSans-Bold-2b" transform="translate(72.015625 0)"/>
     <use xlink:href="#DejaVuSans-Bold-32" transform="translate(155.703125 0)"/>
     <use xlink:href="#DejaVuSans-Bold-35" transform="translate(240.71875 0)"/>
    </g>
   </g>
   <g id="text_4">
    <!-- one period -->
    <g style="fill: #13294b" transform="translate(36.296719 131.861159) scale(0.125 -0.125)">
     <defs>
      <path id="DejaVuSans-Bold-53" d="M 1656 506 
L 1656 -1331 
L 538 -1331 
L 538 3500 
L 1656 3500 
L 1656 2988 
Q 1888 3294 2169 3439 
Q 2450 3584 2816 3584 
Q 3463 3584 3878 3070 
Q 4294 2556 4294 1747 
Q 4294 938 3878 423 
Q 3463 -91 2816 -91 
Q 2450 -91 2169 54 
Q 1888 200 1656 506 
z
M 2400 2772 
Q 2041 2772 1848 2508 
Q 1656 2244 1656 1747 
Q 1656 1250 1848 986 
Q 2041 722 2400 722 
Q 2759 722 2948 984 
Q 3138 1247 3138 1747 
Q 3138 2247 2948 2509 
Q 2759 2772 2400 2772 
z
" transform="scale(0.015625)"/>
      <path id="DejaVuSans-Bold-4c" d="M 538 3500 
L 1656 3500 
L 1656 0 
L 538 0 
L 538 3500 
z
M 538 4863 
L 1656 4863 
L 1656 3950 
L 538 3950 
L 538 4863 
z
" transform="scale(0.015625)"/>
      <path id="DejaVuSans-Bold-47" d="M 2919 2988 
L 2919 4863 
L 4044 4863 
L 4044 0 
L 2919 0 
L 2919 506 
Q 2688 197 2409 53 
Q 2131 -91 1766 -91 
Q 1119 -91 703 423 
Q 288 938 288 1747 
Q 288 2556 703 3070 
Q 1119 3584 1766 3584 
Q 2128 3584 2408 3439 
Q 2688 3294 2919 2988 
z
M 2181 722 
Q 2541 722 2730 984 
Q 2919 1247 2919 1747 
Q 2919 2247 2730 2509 
Q 2541 2772 2181 2772 
Q 1825 2772 1636 2509 
Q 1447 2247 1447 1747 
Q 1447 1247 1636 984 
Q 1825 722 2181 722 
z
" transform="scale(0.015625)"/>
     </defs>
     <use xlink:href="#DejaVuSans-Bold-52"/>
     <use xlink:href="#DejaVuSans-Bold-51" transform="translate(68.703125 0)"/>
     <use xlink:href="#DejaVuSans-Bold-48" transform="translate(139.890625 0)"/>
     <use xlink:href="#DejaVuSans-Bold-3" transform="translate(207.71875 0)"/>
     <use xlink:href="#DejaVuSans-Bold-53" transform="translate(242.53125 0)"/>
     <use xlink:href="#DejaVuSans-Bold-48" transform="translate(314.109375 0)"/>
     <use xlink:href="#DejaVuSans-Bold-55" transform="translate(381.9375 0)"/>
     <use xlink:href="#DejaVuSans-Bold-4c" transform="translate(431.25 0)"/>
     <use xlink:href="#DejaVuSans-Bold-52" transform="translate(465.53125 0)"/>
     <use xlink:href="#DejaVuSans-Bold-47" transform="translate(534.234375 0)"/>
    </g>
   </g>
   <g id="text_5">
    <!-- one-dimensional -->
    <g style="fill: #13294b" transform="translate(131.585625 138.21945) scale(0.125 -0.125)">
     <defs>
      <path id="DejaVuSans-Bold-10" d="M 347 2297 
L 2309 2297 
L 2309 1388 
L 347 1388 
L 347 2297 
z
" transform="scale(0.015625)"/>
      <path id="DejaVuSans-Bold-4f" d="M 538 4863 
L 1656 4863 
L 1656 0 
L 538 0 
L 538 4863 
z
" transform="scale(0.015625)"/>
     </defs>
     <use xlink:href="#DejaVuSans-Bold-52"/>
     <use xlink:href="#DejaVuSans-Bold-51" transform="translate(68.703125 0)"/>
     <use xlink:href="#DejaVuSans-Bold-48" transform="translate(139.890625 0)"/>
     <use xlink:href="#DejaVuSans-Bold-10" transform="translate(207.71875 0)"/>
     <use xlink:href="#DejaVuSans-Bold-47" transform="translate(249.21875 0)"/>
     <use xlink:href="#DejaVuSans-Bold-4c" transform="translate(320.796875 0)"/>
     <use xlink:href="#DejaVuSans-Bold-50" transform="translate(355.078125 0)"/>
     <use xlink:href="#DejaVuSans-Bold-48" transform="translate(459.28125 0)"/>
     <use xlink:href="#DejaVuSans-Bold-51" transform="translate(527.109375 0)"/>
     <use xlink:href="#DejaVuSans-Bold-56" transform="translate(598.296875 0)"/>
     <use xlink:href="#DejaVuSans-Bold-4c" transform="translate(657.8125 0)"/>
     <use xlink:href="#DejaVuSans-Bold-52" transform="translate(692.09375 0)"/>
     <use xlink:href="#DejaVuSans-Bold-51" transform="translate(760.796875 0)"/>
     <use xlink:href="#DejaVuSans-Bold-44" transform="translate(831.984375 0)"/>
     <use xlink:href="#DejaVuSans-Bold-4f" transform="translate(899.46875 0)"/>
    </g>
    <!-- Fourier pattern -->
    <g style="fill: #13294b" transform="translate(136.027031 153.222868) scale(0.125 -0.125)">
     <defs>
      <path id="DejaVuSans-Bold-29" d="M 588 4666 
L 3834 4666 
L 3834 3756 
L 1791 3756 
L 1791 2888 
L 3713 2888 
L 3713 1978 
L 1791 1978 
L 1791 0 
L 588 0 
L 588 4666 
z
" transform="scale(0.015625)"/>
     </defs>
     <use xlink:href="#DejaVuSans-Bold-29"/>
     <use xlink:href="#DejaVuSans-Bold-52" transform="translate(64.265625 0)"/>
     <use xlink:href="#DejaVuSans-Bold-58" transform="translate(132.96875 0)"/>
     <use xlink:href="#DejaVuSans-Bold-55" transform="translate(204.15625 0)"/>
     <use xlink:href="#DejaVuSans-Bold-4c" transform="translate(253.46875 0)"/>
     <use xlink:href="#DejaVuSans-Bold-48" transform="translate(287.75 0)"/>
     <use xlink:href="#DejaVuSans-Bold-55" transform="translate(355.578125 0)"/>
     <use xlink:href="#DejaVuSans-Bold-3" transform="translate(404.890625 0)"/>
     <use xlink:href="#DejaVuSans-Bold-53" transform="translate(439.703125 0)"/>
     <use xlink:href="#DejaVuSans-Bold-44" transform="translate(511.28125 0)"/>
     <use xlink:href="#DejaVuSans-Bold-57" transform="translate(578.765625 0)"/>
     <use xlink:href="#DejaVuSans-Bold-57" transform="translate(626.5625 0)"/>
     <use xlink:href="#DejaVuSans-Bold-48" transform="translate(674.359375 0)"/>
     <use xlink:href="#DejaVuSans-Bold-55" transform="translate(742.1875 0)"/>
     <use xlink:href="#DejaVuSans-Bold-51" transform="translate(791.5 0)"/>
    </g>
   </g>
   <g id="text_6">
    <!-- k -->
    <g style="fill: #0072b2" transform="translate(303.33 104.356912) scale(0.24 -0.24)">
     <defs>
      <path id="DejaVuSans-Bold-4e" d="M 538 4863 
L 1656 4863 
L 1656 2216 
L 2944 3500 
L 4244 3500 
L 2534 1894 
L 4378 0 
L 3022 0 
L 1656 1459 
L 1656 0 
L 538 0 
L 538 4863 
z
" transform="scale(0.015625)"/>
     </defs>
     <use xlink:href="#DejaVuSans-Bold-4e"/>
    </g>
   </g>
   <g id="text_7">
    <!-- M -->
    <g style="fill: #13294b" transform="translate(299.368125 132.630375) scale(0.24 -0.24)">
     <defs>
      <path id="DejaVuSans-Bold-30" d="M 588 4666 
L 2119 4666 
L 3181 2169 
L 4250 4666 
L 5778 4666 
L 5778 0 
L 4641 0 
L 4641 3413 
L 3566 897 
L 2803 897 
L 1728 3413 
L 1728 0 
L 588 0 
L 588 4666 
z
" transform="scale(0.015625)"/>
     </defs>
     <use xlink:href="#DejaVuSans-Bold-30"/>
    </g>
   </g>
   <g id="text_8">
    <!-- →  r -->
    <g style="fill: #0072b2" transform="translate(319.550531 119.289906) scale(0.26 -0.26)">
     <defs>
      <path id="DejaVuSans-Bold-c1c" d="M 5050 2225 
L 5050 1788 
L 3822 559 
L 3369 1013 
L 3988 1631 
L 366 1631 
L 366 2381 
L 3988 2381 
L 3369 3000 
L 3822 3453 
L 5050 2225 
z
" transform="scale(0.015625)"/>
     </defs>
     <use xlink:href="#DejaVuSans-Bold-c1c"/>
     <use xlink:href="#DejaVuSans-Bold-3" transform="translate(83.796875 0)"/>
     <use xlink:href="#DejaVuSans-Bold-3" transform="translate(118.609375 0)"/>
     <use xlink:href="#DejaVuSans-Bold-55" transform="translate(153.421875 0)"/>
    </g>
   </g>
   <g id="text_9">
    <!-- continued fractions -->
    <g style="fill: #13294b" transform="translate(400.59 116.98747) scale(0.15 -0.15)">
     <use xlink:href="#DejaVuSans-Bold-46"/>
     <use xlink:href="#DejaVuSans-Bold-52" transform="translate(59.28125 0)"/>
     <use xlink:href="#DejaVuSans-Bold-51" transform="translate(127.984375 0)"/>
     <use xlink:href="#DejaVuSans-Bold-57" transform="translate(199.171875 0)"/>
     <use xlink:href="#DejaVuSans-Bold-4c" transform="translate(246.96875 0)"/>
     <use xlink:href="#DejaVuSans-Bold-51" transform="translate(281.25 0)"/>
     <use xlink:href="#DejaVuSans-Bold-58" transform="translate(352.4375 0)"/>
     <use xlink:href="#DejaVuSans-Bold-48" transform="translate(423.625 0)"/>
     <use xlink:href="#DejaVuSans-Bold-47" transform="translate(491.453125 0)"/>
     <use xlink:href="#DejaVuSans-Bold-3" transform="translate(563.03125 0)"/>
     <use xlink:href="#DejaVuSans-Bold-49" transform="translate(597.84375 0)"/>
     <use xlink:href="#DejaVuSans-Bold-55" transform="translate(641.34375 0)"/>
     <use xlink:href="#DejaVuSans-Bold-44" transform="translate(690.65625 0)"/>
     <use xlink:href="#DejaVuSans-Bold-46" transform="translate(758.140625 0)"/>
     <use xlink:href="#DejaVuSans-Bold-57" transform="translate(817.421875 0)"/>
     <use xlink:href="#DejaVuSans-Bold-4c" transform="translate(865.21875 0)"/>
     <use xlink:href="#DejaVuSans-Bold-52" transform="translate(899.5 0)"/>
     <use xlink:href="#DejaVuSans-Bold-51" transform="translate(968.203125 0)"/>
     <use xlink:href="#DejaVuSans-Bold-56" transform="translate(1039.390625 0)"/>
    </g>
   </g>
   <g id="text_10">
    <!-- p × q -->
    <g style="fill: #0072b2" transform="translate(711.973406 119.914044) scale(0.22 -0.22)">
     <defs>
      <path id="DejaVuSans-Bold-99" d="M 4563 3359 
L 3206 2003 
L 4563 653 
L 4038 128 
L 2681 1478 
L 1325 128 
L 800 653 
L 2156 2003 
L 800 3359 
L 1325 3884 
L 2681 2528 
L 4038 3884 
L 4563 3359 
z
" transform="scale(0.015625)"/>
     </defs>
     <use xlink:href="#DejaVuSans-Bold-53"/>
     <use xlink:href="#DejaVuSans-Bold-3" transform="translate(71.578125 0)"/>
     <use xlink:href="#DejaVuSans-Bold-99" transform="translate(106.390625 0)"/>
     <use xlink:href="#DejaVuSans-Bold-3" transform="translate(190.1875 0)"/>
     <use xlink:href="#DejaVuSans-Bold-54" transform="translate(225 0)"/>
    </g>
   </g>
   <g id="text_11">
    <!-- REGEV -->
    <g style="fill: #7e57c2" transform="translate(31.254219 227.727409) scale(0.23 -0.23)">
     <defs>
      <path id="DejaVuSans-Bold-28" d="M 588 4666 
L 3834 4666 
L 3834 3756 
L 1791 3756 
L 1791 2888 
L 3713 2888 
L 3713 1978 
L 1791 1978 
L 1791 909 
L 3903 909 
L 3903 0 
L 588 0 
L 588 4666 
z
" transform="scale(0.015625)"/>
      <path id="DejaVuSans-Bold-2a" d="M 4781 347 
Q 4331 128 3847 18 
Q 3363 -91 2847 -91 
Q 1681 -91 1000 561 
Q 319 1213 319 2328 
Q 319 3456 1012 4103 
Q 1706 4750 2913 4750 
Q 3378 4750 3804 4662 
Q 4231 4575 4609 4403 
L 4609 3438 
Q 4219 3659 3833 3768 
Q 3447 3878 3059 3878 
Q 2341 3878 1952 3476 
Q 1563 3075 1563 2328 
Q 1563 1588 1938 1184 
Q 2313 781 3003 781 
Q 3191 781 3352 804 
Q 3513 828 3641 878 
L 3641 1784 
L 2906 1784 
L 2906 2591 
L 4781 2591 
L 4781 347 
z
" transform="scale(0.015625)"/>
      <path id="DejaVuSans-Bold-39" d="M 31 4666 
L 1241 4666 
L 2478 1222 
L 3713 4666 
L 4922 4666 
L 3194 0 
L 1759 0 
L 31 4666 
z
" transform="scale(0.015625)"/>
     </defs>
     <use xlink:href="#DejaVuSans-Bold-35"/>
     <use xlink:href="#DejaVuSans-Bold-28" transform="translate(77 0)"/>
     <use xlink:href="#DejaVuSans-Bold-2a" transform="translate(145.3125 0)"/>
     <use xlink:href="#DejaVuSans-Bold-28" transform="translate(227.390625 0)"/>
     <use xlink:href="#DejaVuSans-Bold-39" transform="translate(295.703125 0)"/>
    </g>
   </g>
   <g id="text_12">
    <!-- many clues -->
    <g style="fill: #13294b" transform="translate(34.474453 248.285159) scale(0.125 -0.125)">
     <defs>
      <path id="DejaVuSans-Bold-5c" d="M 78 3500 
L 1197 3500 
L 2138 1125 
L 2938 3500 
L 4056 3500 
L 2584 -331 
Q 2363 -916 2067 -1148 
Q 1772 -1381 1288 -1381 
L 641 -1381 
L 641 -647 
L 991 -647 
Q 1275 -647 1404 -556 
Q 1534 -466 1606 -231 
L 1638 -134 
L 78 3500 
z
" transform="scale(0.015625)"/>
     </defs>
     <use xlink:href="#DejaVuSans-Bold-50"/>
     <use xlink:href="#DejaVuSans-Bold-44" transform="translate(104.203125 0)"/>
     <use xlink:href="#DejaVuSans-Bold-51" transform="translate(171.6875 0)"/>
     <use xlink:href="#DejaVuSans-Bold-5c" transform="translate(242.875 0)"/>
     <use xlink:href="#DejaVuSans-Bold-3" transform="translate(308.0625 0)"/>
     <use xlink:href="#DejaVuSans-Bold-46" transform="translate(342.875 0)"/>
     <use xlink:href="#DejaVuSans-Bold-4f" transform="translate(402.15625 0)"/>
     <use xlink:href="#DejaVuSans-Bold-58" transform="translate(436.4375 0)"/>
     <use xlink:href="#DejaVuSans-Bold-48" transform="translate(507.625 0)"/>
     <use xlink:href="#DejaVuSans-Bold-56" transform="translate(575.453125 0)"/>
    </g>
   </g>
   <g id="text_13">
    <!-- multidimensional -->
    <g style="fill: #13294b" transform="translate(128.927422 258.52425) scale(0.125 -0.125)">
     <use xlink:href="#DejaVuSans-Bold-50"/>
     <use xlink:href="#DejaVuSans-Bold-58" transform="translate(104.203125 0)"/>
     <use xlink:href="#DejaVuSans-Bold-4f" transform="translate(175.390625 0)"/>
     <use xlink:href="#DejaVuSans-Bold-57" transform="translate(209.671875 0)"/>
     <use xlink:href="#DejaVuSans-Bold-4c" transform="translate(257.46875 0)"/>
     <use xlink:href="#DejaVuSans-Bold-47" transform="translate(291.75 0)"/>
     <use xlink:href="#DejaVuSans-Bold-4c" transform="translate(363.328125 0)"/>
     <use xlink:href="#DejaVuSans-Bold-50" transform="translate(397.609375 0)"/>
     <use xlink:href="#DejaVuSans-Bold-48" transform="translate(501.8125 0)"/>
     <use xlink:href="#DejaVuSans-Bold-51" transform="translate(569.640625 0)"/>
     <use xlink:href="#DejaVuSans-Bold-56" transform="translate(640.828125 0)"/>
     <use xlink:href="#DejaVuSans-Bold-4c" transform="translate(700.34375 0)"/>
     <use xlink:href="#DejaVuSans-Bold-52" transform="translate(734.625 0)"/>
     <use xlink:href="#DejaVuSans-Bold-51" transform="translate(803.328125 0)"/>
     <use xlink:href="#DejaVuSans-Bold-44" transform="translate(874.515625 0)"/>
     <use xlink:href="#DejaVuSans-Bold-4f" transform="translate(942 0)"/>
    </g>
    <!-- Fourier samples -->
    <g style="fill: #13294b" transform="translate(133.438164 273.527668) scale(0.125 -0.125)">
     <use xlink:href="#DejaVuSans-Bold-29"/>
     <use xlink:href="#DejaVuSans-Bold-52" transform="translate(64.265625 0)"/>
     <use xlink:href="#DejaVuSans-Bold-58" transform="translate(132.96875 0)"/>
     <use xlink:href="#DejaVuSans-Bold-55" transform="translate(204.15625 0)"/>
     <use xlink:href="#DejaVuSans-Bold-4c" transform="translate(253.46875 0)"/>
     <use xlink:href="#DejaVuSans-Bold-48" transform="translate(287.75 0)"/>
     <use xlink:href="#DejaVuSans-Bold-55" transform="translate(355.578125 0)"/>
     <use xlink:href="#DejaVuSans-Bold-3" transform="translate(404.890625 0)"/>
     <use xlink:href="#DejaVuSans-Bold-56" transform="translate(439.703125 0)"/>
     <use xlink:href="#DejaVuSans-Bold-44" transform="translate(499.21875 0)"/>
     <use xlink:href="#DejaVuSans-Bold-50" transform="translate(566.703125 0)"/>
     <use xlink:href="#DejaVuSans-Bold-53" transform="translate(670.90625 0)"/>
     <use xlink:href="#DejaVuSans-Bold-4f" transform="translate(742.484375 0)"/>
     <use xlink:href="#DejaVuSans-Bold-48" transform="translate(776.765625 0)"/>
     <use xlink:href="#DejaVuSans-Bold-56" transform="translate(844.59375 0)"/>
    </g>
   </g>
   <g id="text_14">
    <!-- lattice reduction (LLL) -->
    <g style="fill: #13294b" transform="translate(400.59 233.41147) scale(0.15 -0.15)">
     <defs>
      <path id="DejaVuSans-Bold-b" d="M 2413 -844 
L 1484 -844 
Q 1006 -72 778 623 
Q 550 1319 550 2003 
Q 550 2688 779 3389 
Q 1009 4091 1484 4856 
L 2413 4856 
Q 2013 4116 1813 3408 
Q 1613 2700 1613 2009 
Q 1613 1319 1811 609 
Q 2009 -100 2413 -844 
z
" transform="scale(0.015625)"/>
      <path id="DejaVuSans-Bold-2f" d="M 588 4666 
L 1791 4666 
L 1791 909 
L 3903 909 
L 3903 0 
L 588 0 
L 588 4666 
z
" transform="scale(0.015625)"/>
      <path id="DejaVuSans-Bold-c" d="M 513 -844 
Q 913 -100 1113 609 
Q 1313 1319 1313 2009 
Q 1313 2700 1113 3408 
Q 913 4116 513 4856 
L 1441 4856 
Q 1916 4091 2145 3389 
Q 2375 2688 2375 2003 
Q 2375 1319 2147 623 
Q 1919 -72 1441 -844 
L 513 -844 
z
" transform="scale(0.015625)"/>
     </defs>
     <use xlink:href="#DejaVuSans-Bold-4f"/>
     <use xlink:href="#DejaVuSans-Bold-44" transform="translate(34.28125 0)"/>
     <use xlink:href="#DejaVuSans-Bold-57" transform="translate(101.765625 0)"/>
     <use xlink:href="#DejaVuSans-Bold-57" transform="translate(149.5625 0)"/>
     <use xlink:href="#DejaVuSans-Bold-4c" transform="translate(197.359375 0)"/>
     <use xlink:href="#DejaVuSans-Bold-46" transform="translate(231.640625 0)"/>
     <use xlink:href="#DejaVuSans-Bold-48" transform="translate(290.921875 0)"/>
     <use xlink:href="#DejaVuSans-Bold-3" transform="translate(358.75 0)"/>
     <use xlink:href="#DejaVuSans-Bold-55" transform="translate(393.5625 0)"/>
     <use xlink:href="#DejaVuSans-Bold-48" transform="translate(442.875 0)"/>
     <use xlink:href="#DejaVuSans-Bold-47" transform="translate(510.703125 0)"/>
     <use xlink:href="#DejaVuSans-Bold-58" transform="translate(582.28125 0)"/>
     <use xlink:href="#DejaVuSans-Bold-46" transform="translate(653.46875 0)"/>
     <use xlink:href="#DejaVuSans-Bold-57" transform="translate(712.75 0)"/>
     <use xlink:href="#DejaVuSans-Bold-4c" transform="translate(760.546875 0)"/>
     <use xlink:href="#DejaVuSans-Bold-52" transform="translate(794.828125 0)"/>
     <use xlink:href="#DejaVuSans-Bold-51" transform="translate(863.53125 0)"/>
     <use xlink:href="#DejaVuSans-Bold-3" transform="translate(934.71875 0)"/>
     <use xlink:href="#DejaVuSans-Bold-b" transform="translate(969.53125 0)"/>
     <use xlink:href="#DejaVuSans-Bold-2f" transform="translate(1015.234375 0)"/>
     <use xlink:href="#DejaVuSans-Bold-2f" transform="translate(1078.953125 0)"/>
     <use xlink:href="#DejaVuSans-Bold-2f" transform="translate(1142.671875 0)"/>
     <use xlink:href="#DejaVuSans-Bold-c" transform="translate(1206.390625 0)"/>
    </g>
   </g>
   <g id="text_15">
    <!-- p × q -->
    <g style="fill: #7e57c2" transform="translate(711.973406 236.338044) scale(0.22 -0.22)">
     <use xlink:href="#DejaVuSans-Bold-53"/>
     <use xlink:href="#DejaVuSans-Bold-3" transform="translate(71.578125 0)"/>
     <use xlink:href="#DejaVuSans-Bold-99" transform="translate(106.390625 0)"/>
     <use xlink:href="#DejaVuSans-Bold-3" transform="translate(190.1875 0)"/>
     <use xlink:href="#DejaVuSans-Bold-54" transform="translate(225 0)"/>
    </g>
   </g>
  </g>
 </g>
 <defs>
  <clipPath id="pe673a3dede">
   <rect x="7.2" y="7.2" width="837" height="299.376"/>
  </clipPath>
 </defs>
</svg>
