<?xml version="1.0" encoding="utf-8" standalone="no"?>
<!DOCTYPE svg PUBLIC "-//W3C//DTD SVG 1.1//EN"
  "http://www.w3.org/Graphics/SVG/1.1/DTD/svg11.dtd">
<svg xmlns:xlink="http://www.w3.org/1999/xlink" width="686.88pt" height="377.64pt" viewBox="0 0 686.88 377.64" xmlns="http://www.w3.org/2000/svg" version="1.1">
 <metadata>
  <rdf:RDF xmlns:dc="http://purl.org/dc/elements/1.1/" xmlns:cc="http://creativecommons.org/ns#" xmlns:rdf="http://www.w3.org/1999/02/22-rdf-syntax-ns#">
   <cc:Work>
    <dc:type rdf:resource="http://purl.org/dc/dcmitype/StillImage"/>
    <dc:date>2026-07-22T16:22:51.115180</dc:date>
    <dc:format>image/svg+xml</dc:format>
    <dc:creator>
     <cc:Agent>
      <dc:title>Matplotlib v3.11.0, https://matplotlib.org/</dc:title>
     </cc:Agent>
    </dc:creator>
   </cc:Work>
  </rdf:RDF>
 </metadata>
 <defs>
  <style type="text/css">*{stroke-linejoin: round; stroke-linecap: butt}</style>
 </defs>
 <g id="figure_1">
  <g id="patch_1">
   <path d="M 0 377.64 
L 686.88 377.64 
L 686.88 0 
L 0 0 
z
" style="fill: #13294b"/>
  </g>
  <g id="axes_1">
   <g id="patch_2">
    <path d="M 318.6648 258.00912 
L 388.3032 258.00912 
Q 405.0432 258.00912 405.0432 249.00012 
L 405.0432 150.26148 
Q 405.0432 141.25248 388.3032 141.25248 
L 318.6648 141.25248 
Q 301.9248 141.25248 301.9248 150.26148 
L 301.9248 249.00012 
Q 301.9248 258.00912 318.6648 258.00912 
z
" clip-path="url(#p2f0c45e5a0)" style="fill: #213e67; stroke: #ff5f05; stroke-width: 2; stroke-linejoin: miter"/>
   </g>
   <g id="patch_3">
    <path d="M 437.184 246.4776 
L 453.924 246.4776 
L 453.924 229.18032 
L 437.184 229.18032 
z
" clip-path="url(#p2f0c45e5a0)" style="fill: #28a9c7"/>
   </g>
   <g id="patch_4">
    <path d="M 462.6288 246.4776 
L 479.3688 246.4776 
L 479.3688 221.108256 
L 462.6288 221.108256 
z
" clip-path="url(#p2f0c45e5a0)" style="fill: #28a9c7"/>
   </g>
   <g id="patch_5">
    <path d="M 488.0736 246.4776 
L 504.8136 246.4776 
L 504.8136 156.531744 
L 488.0736 156.531744 
z
" clip-path="url(#p2f0c45e5a0)" style="fill: #7e57c2"/>
   </g>
   <g id="patch_6">
    <path d="M 513.5184 246.4776 
L 530.2584 246.4776 
L 530.2584 216.495648 
L 513.5184 216.495648 
z
" clip-path="url(#p2f0c45e5a0)" style="fill: #28a9c7"/>
   </g>
   <g id="patch_7">
    <path d="M 538.9632 246.4776 
L 555.7032 246.4776 
L 555.7032 232.639776 
L 538.9632 232.639776 
z
" clip-path="url(#p2f0c45e5a0)" style="fill: #28a9c7"/>
   </g>
   <g id="patch_8">
    <path d="M 564.408 246.4776 
L 581.148 246.4776 
L 581.148 183.05424 
L 564.408 183.05424 
z
" clip-path="url(#p2f0c45e5a0)" style="fill: #7e57c2"/>
   </g>
   <g id="patch_9">
    <path d="M 589.8528 246.4776 
L 606.5928 246.4776 
L 606.5928 225.720864 
L 589.8528 225.720864 
z
" clip-path="url(#p2f0c45e5a0)" style="fill: #28a9c7"/>
   </g>
   <g id="patch_10">
    <path d="M 615.2976 246.4776 
L 632.0376 246.4776 
L 632.0376 234.94608 
L 615.2976 234.94608 
z
" clip-path="url(#p2f0c45e5a0)" style="fill: #28a9c7"/>
   </g>
   <g id="line2d_1">
    <path d="M 42.12 196.0272 
L 44.056193 181.066389 
L 45.992386 167.953361 
L 46.960482 162.610573 
L 47.928578 158.307682 
L 48.896675 155.17859 
L 49.864771 153.320672 
L 50.832867 152.791744 
L 51.800964 153.608267 
L 52.76906 155.74483 
L 53.737157 159.134947 
L 54.705253 163.673119 
L 55.673349 169.218122 
L 57.609542 182.612438 
L 62.450024 219.280924 
L 63.41812 225.325584 
L 64.386217 230.458504 
L 65.354313 234.51995 
L 66.32241 237.383536 
L 67.290506 238.960147 
L 68.258602 239.200722 
L 69.226699 238.097773 
L 70.194795 235.685625 
L 71.162892 232.03934 
L 72.130988 227.272388 
L 73.099084 221.533113 
L 75.035277 207.876697 
L 78.907663 178.04077 
L 80.843855 165.54624 
L 81.811952 160.630542 
L 82.780048 156.816358 
L 83.748145 154.222382 
L 84.716241 152.929336 
L 85.684337 152.977458 
L 86.652434 154.365252 
L 87.62053 157.04953 
L 88.588627 160.94676 
L 89.556723 165.935663 
L 90.524819 171.860989 
L 92.461012 185.759943 
L 96.333398 215.488867 
L 97.301494 221.971654 
L 98.26959 227.647072 
L 99.237687 232.338507 
L 100.205783 235.899965 
L 101.17388 238.220616 
L 102.141976 239.228244 
L 103.110072 238.891493 
L 104.078169 237.220842 
L 105.046265 234.26828 
L 106.014361 230.125688 
L 106.982458 224.92198 
L 107.950554 218.819092 
L 109.886747 204.69751 
L 113.759133 175.118175 
L 114.727229 168.792178 
L 115.695325 163.313711 
L 116.663422 158.85326 
L 117.631518 155.54963 
L 118.599614 153.505628 
L 119.567711 152.78486 
L 120.535807 153.409758 
L 121.503904 155.360873 
L 122.472 158.57749 
L 123.440096 162.95951 
L 124.408193 168.370568 
L 126.344386 181.579466 
L 131.184867 218.353631 
L 132.152964 224.513777 
L 133.12106 229.787444 
L 134.089157 234.010522 
L 135.057253 237.051591 
L 136.025349 238.816017 
L 136.993446 239.24889 
L 137.961542 238.336742 
L 138.929639 236.107957 
L 139.897735 232.631893 
L 140.865831 228.016723 
L 141.833928 222.406065 
L 143.77012 208.922232 
L 148.610602 172.315345 
L 149.578699 166.329876 
L 150.546795 161.268562 
L 151.514892 157.288907 
L 152.482988 154.514754 
L 153.451084 153.032434 
L 154.419181 152.888073 
L 155.387277 154.086166 
L 156.355373 156.589428 
L 157.32347 160.319959 
L 158.291566 165.161669 
L 159.259663 170.963888 
L 161.195855 184.703342 
L 165.068241 214.508344 
L 166.036337 221.090512 
L 167.004434 226.892731 
L 167.97253 231.734441 
L 168.940627 235.464972 
L 169.908723 237.968234 
L 170.876819 239.166327 
L 171.844916 239.021966 
L 172.813012 237.539646 
L 173.781108 234.765493 
L 174.749205 230.785838 
L 175.717301 225.724524 
L 176.685398 219.739055 
L 178.62159 205.763663 
L 182.493976 176.07988 
L 183.462072 169.648335 
L 184.430169 164.037677 
L 185.398265 159.422507 
L 186.366361 155.946443 
L 187.334458 153.717658 
L 188.302554 152.80551 
L 189.270651 153.238383 
L 190.238747 155.002809 
L 191.206843 158.043878 
L 192.17494 162.266956 
L 193.143036 167.540623 
L 195.079229 180.555694 
L 199.919711 217.412123 
L 200.887807 223.683832 
L 201.855904 229.09489 
L 202.824 233.47691 
L 203.792096 236.693527 
L 204.760193 238.644642 
L 205.728289 239.26954 
L 206.696386 238.548772 
L 207.664482 236.50477 
L 208.632578 233.20114 
L 209.600675 228.740689 
L 210.568771 223.262222 
L 212.504964 209.959557 
L 217.345446 173.235308 
L 218.313542 167.13242 
L 219.281639 161.928712 
L 220.249735 157.78612 
L 221.217831 154.833558 
L 222.185928 153.162907 
L 223.154024 152.826156 
L 224.12212 153.833784 
L 225.090217 156.154435 
L 226.058313 159.715893 
L 227.02641 164.407328 
L 227.994506 170.082746 
L 229.930699 183.653951 
L 234.771181 220.193411 
L 235.739277 226.118737 
L 236.707373 231.10764 
L 237.67547 235.00487 
L 238.643566 237.689148 
L 239.611663 239.076942 
L 240.579759 239.125064 
L 241.547855 237.832018 
L 242.515952 235.238042 
L 243.484048 231.423858 
L 244.452145 226.50816 
L 245.420241 220.643921 
L 247.356434 206.823617 
L 251.228819 177.054285 
L 252.196916 170.521287 
L 253.165012 164.782012 
L 254.133108 160.01506 
L 255.101205 156.368775 
L 256.069301 153.956627 
L 257.037398 152.853678 
L 258.005494 153.094253 
L 258.97359 154.670864 
L 259.941687 157.53445 
L 260.909783 161.595896 
L 261.87788 166.728816 
L 262.845976 172.773476 
L 264.782169 186.823081 
L 268.654554 216.456999 
L 269.622651 222.836278 
L 270.590747 228.381281 
L 271.558843 232.919453 
L 272.52694 236.30957 
L 273.495036 238.446133 
L 274.463133 239.262656 
L 275.431229 238.733728 
L 276.399325 236.87581 
L 277.367422 233.746718 
L 278.335518 229.443827 
L 279.303614 224.101039 
L 281.239807 210.988011 
L 283.176 196.0272 
L 283.176 196.0272 
" clip-path="url(#p2f0c45e5a0)" style="fill: none; stroke: #28a9c7; stroke-width: 3; stroke-linecap: square"/>
   </g>
   <g id="patch_11">
    <path d="M 278.478501 196.0272 
Q 293.21816 196.0272 304.603718 196.0272 
" clip-path="url(#p2f0c45e5a0)" style="fill: none; stroke: #ff5f05; stroke-width: 3; stroke-linecap: round"/>
    <path d="M 297.803718 192.6272 
L 304.603718 196.0272 
L 297.803718 199.4272 
z
" clip-path="url(#p2f0c45e5a0)" style="fill: #ff5f05; stroke: #ff5f05; stroke-width: 3; stroke-linecap: round"/>
   </g>
   <g id="patch_12">
    <path d="M 399.006501 196.0272 
Q 413.74616 196.0272 425.131718 196.0272 
" clip-path="url(#p2f0c45e5a0)" style="fill: none; stroke: #ff5f05; stroke-width: 3; stroke-linecap: round"/>
    <path d="M 418.331718 192.6272 
L 425.131718 196.0272 
L 418.331718 199.4272 
z
" clip-path="url(#p2f0c45e5a0)" style="fill: #ff5f05; stroke: #ff5f05; stroke-width: 3; stroke-linecap: round"/>
   </g>
   <g id="text_1">
    <text style="font-weight: 700; font-size: 25px; font-family: 'DejaVu Sans'; text-anchor: start; fill: #ffffff" x="35.424" y="59.269581" transform="rotate(-0 35.424 59.269581)">The QFT is a frequency lens</text>
   </g>
   <g id="text_2">
    <text style="font-size: 11.5px; font-family: 'DejaVu Sans'; text-anchor: start; fill: #bfd4e5" x="35.424" y="76.370881" transform="rotate(-0 35.424 76.370881)">It converts repeating phase structure into concentrated measurement peaks.</text>
   </g>
   <g id="text_3">
    <text style="font-weight: 700; font-size: 13px; font-family: 'DejaVu Sans'; text-anchor: middle; fill: #ffffff" x="162.648" y="275.289987" transform="rotate(-0 162.648 275.289987)">structured amplitudes</text>
   </g>
   <g id="text_4">
    <text style="font-weight: 700; font-size: 24px; font-family: 'DejaVu Sans'; text-anchor: middle; fill: #ff5f05" x="353.484" y="206.7858" transform="rotate(-0 353.484 206.7858)">QFT⁻¹</text>
   </g>
   <g id="text_5">
    <text style="font-weight: 700; font-size: 13px; font-family: 'DejaVu Sans'; text-anchor: middle; fill: #ffffff" x="544.32" y="275.289987" transform="rotate(-0 544.32 275.289987)">measured frequencies</text>
   </g>
   <g id="text_6">
    <text style="font-weight: 700; font-size: 8.5px; font-family: 'DejaVu Sans'; text-anchor: start; fill: #bdd0e4" x="22.032" y="357.984867" transform="rotate(-0 22.032 357.984867)">CONCEPTUAL SCHEMATIC</text>
   </g>
  </g>
 </g>
 <defs>
  <clipPath id="p2f0c45e5a0">
   <rect x="8.64" y="8.64" width="669.6" height="360.36"/>
  </clipPath>
 </defs>
</svg>
