<?xml version="1.0" encoding="utf-8" standalone="no"?>
<!DOCTYPE svg PUBLIC "-//W3C//DTD SVG 1.1//EN"
  "http://www.w3.org/Graphics/SVG/1.1/DTD/svg11.dtd">
<svg xmlns:xlink="http://www.w3.org/1999/xlink" width="686.88pt" height="391.5pt" viewBox="0 0 686.88 391.5" xmlns="http://www.w3.org/2000/svg" version="1.1">
 <metadata>
  <rdf:RDF xmlns:dc="http://purl.org/dc/elements/1.1/" xmlns:cc="http://creativecommons.org/ns#" xmlns:rdf="http://www.w3.org/1999/02/22-rdf-syntax-ns#">
   <cc:Work>
    <dc:type rdf:resource="http://purl.org/dc/dcmitype/StillImage"/>
    <dc:date>2026-07-22T16:22:53.712809</dc:date>
    <dc:format>image/svg+xml</dc:format>
    <dc:creator>
     <cc:Agent>
      <dc:title>Matplotlib v3.11.0, https://matplotlib.org/</dc:title>
     </cc:Agent>
    </dc:creator>
   </cc:Work>
  </rdf:RDF>
 </metadata>
 <defs>
  <style type="text/css">*{stroke-linejoin: round; stroke-linecap: butt}</style>
 </defs>
 <g id="figure_1">
  <g id="patch_1">
   <path d="M 0 391.5 
L 686.88 391.5 
L 686.88 0 
L 0 0 
z
" style="fill: #13294b"/>
  </g>
  <g id="axes_1">
   <g id="patch_2">
    <path d="M 529.5888 189.01404 
L 626.0112 189.01404 
Q 646.0992 189.01404 646.0992 177.78744 
L 646.0992 123.89976 
Q 646.0992 112.67316 626.0112 112.67316 
L 529.5888 112.67316 
Q 509.5008 112.67316 509.5008 123.89976 
L 509.5008 177.78744 
Q 509.5008 189.01404 529.5888 189.01404 
z
" clip-path="url(#pce487d8dfd)" style="fill: #203d65; stroke: #009e73; stroke-width: 2; stroke-linejoin: miter"/>
   </g>
   <g id="patch_3">
    <path d="M 54.1728 327.47544 
L 632.7072 327.47544 
Q 649.4472 327.47544 649.4472 318.11994 
L 649.4472 223.06806 
Q 649.4472 213.71256 632.7072 213.71256 
L 54.1728 213.71256 
Q 37.4328 213.71256 37.4328 223.06806 
L 37.4328 318.11994 
Q 37.4328 327.47544 54.1728 327.47544 
z
" clip-path="url(#pce487d8dfd)" style="fill: #1c385f; stroke: #36587b; stroke-width: 1.5; stroke-linejoin: miter"/>
   </g>
   <g id="text_1">
    <text style="font-weight: 700; font-size: 11px; font-family: 'DejaVu Sans'; text-anchor: start; fill: #009e73" x="48.816" y="64.150228" transform="rotate(-0 48.816 64.150228)">CONSERVATIVE PASSING OPTION</text>
   </g>
   <g id="text_2">
    <text style="font-weight: 700; font-size: 29px; font-family: 'DejaVu Sans'; fill: #ffffff" transform="translate(48.816 113.937306)">Omit one layer: −2 CP</text>
    <text style="font-weight: 700; font-size: 29px; font-family: 'DejaVu Sans'; fill: #ffffff" transform="translate(48.816 147.019962)">and −4 CX</text>
   </g>
   <g id="text_3">
    <text style="font-weight: 700; font-size: 28px; font-family: 'DejaVu Sans'; text-anchor: middle; fill: #009e73" x="577.8" y="159.921725" transform="rotate(-0 577.8 159.921725)">6 / 6</text>
   </g>
   <g id="text_4">
    <text style="font-size: 16px; font-family: 'DejaVu Sans'; fill: #c4d3e1" transform="translate(68.904 264.209)">This cutoff met the frozen 0.10 non-inferiority rule in all six model–M cells.</text>
    <text style="font-size: 16px; font-family: 'DejaVu Sans'; fill: #c4d3e1" transform="translate(68.904 285.809)">Depth savings depend on M and are zero at M=16 and 32.</text>
   </g>
   <g id="text_5">
    <text style="font-weight: 700; font-size: 8.5px; font-family: 'DejaVu Sans'; text-anchor: start; fill: #bdd0e4" x="22.032" y="370.938562" transform="rotate(-0 22.032 370.938562)">VERIFIED QFT-ONLY RESOURCE + ENDPOINT RESULT</text>
   </g>
  </g>
 </g>
 <defs>
  <clipPath id="pce487d8dfd">
   <rect x="8.64" y="8.64" width="669.6" height="374.22"/>
  </clipPath>
 </defs>
</svg>
