<?xml version="1.0" encoding="utf-8" standalone="no"?>
<!DOCTYPE svg PUBLIC "-//W3C//DTD SVG 1.1//EN"
  "http://www.w3.org/Graphics/SVG/1.1/DTD/svg11.dtd">
<svg xmlns:xlink="http://www.w3.org/1999/xlink" width="742.68pt" height="366.552pt" viewBox="0 0 742.68 366.552" xmlns="http://www.w3.org/2000/svg" version="1.1">
 <metadata>
  <rdf:RDF xmlns:dc="http://purl.org/dc/elements/1.1/" xmlns:cc="http://creativecommons.org/ns#" xmlns:rdf="http://www.w3.org/1999/02/22-rdf-syntax-ns#">
   <cc:Work>
    <dc:type rdf:resource="http://purl.org/dc/dcmitype/StillImage"/>
    <dc:date>2026-07-22T16:22:53.843486</dc:date>
    <dc:format>image/svg+xml</dc:format>
    <dc:creator>
     <cc:Agent>
      <dc:title>Matplotlib v3.11.0, https://matplotlib.org/</dc:title>
     </cc:Agent>
    </dc:creator>
   </cc:Work>
  </rdf:RDF>
 </metadata>
 <defs>
  <style type="text/css">*{stroke-linejoin: round; stroke-linecap: butt}</style>
 </defs>
 <g id="figure_1">
  <g id="patch_1">
   <path d="M 0 366.552 
L 742.68 366.552 
L 742.68 0 
L 0 0 
z
" style="fill: #fffdf7"/>
  </g>
  <g id="axes_1">
   <g id="patch_2">
    <path d="M 255.276 129.13884 
C 260.085458 129.13884 264.698581 128.218802 268.099381 126.581355 
C 271.500182 124.943908 273.411 122.72274 273.411 120.40704 
C 273.411 118.09134 271.500182 115.870172 268.099381 114.232725 
C 264.698581 112.595278 260.085458 111.67524 255.276 111.67524 
C 250.466542 111.67524 245.853419 112.595278 242.452619 114.232725 
C 239.051818 115.870172 237.141 118.09134 237.141 120.40704 
C 237.141 122.72274 239.051818 124.943908 242.452619 126.581355 
C 245.853419 128.218802 250.466542 129.13884 255.276 129.13884 
z
" clip-path="url(#p318adaf472)" style="fill: #13294b"/>
   </g>
   <g id="patch_3">
    <path d="M 331.443 129.13884 
C 336.252458 129.13884 340.865581 128.218802 344.266381 126.581355 
C 347.667182 124.943908 349.578 122.72274 349.578 120.40704 
C 349.578 118.09134 347.667182 115.870172 344.266381 114.232725 
C 340.865581 112.595278 336.252458 111.67524 331.443 111.67524 
C 326.633542 111.67524 322.020419 112.595278 318.619619 114.232725 
C 315.218818 115.870172 313.308 118.09134 313.308 120.40704 
C 313.308 122.72274 315.218818 124.943908 318.619619 126.581355 
C 322.020419 128.218802 326.633542 129.13884 331.443 129.13884 
z
" clip-path="url(#p318adaf472)" style="fill: #13294b"/>
   </g>
   <g id="patch_4">
    <path d="M 407.61 129.13884 
C 412.419458 129.13884 417.032581 128.218802 420.433381 126.581355 
C 423.834182 124.943908 425.745 122.72274 425.745 120.40704 
C 425.745 118.09134 423.834182 115.870172 420.433381 114.232725 
C 417.032581 112.595278 412.419458 111.67524 407.61 111.67524 
C 402.800542 111.67524 398.187419 112.595278 394.786619 114.232725 
C 391.385818 115.870172 389.475 118.09134 389.475 120.40704 
C 389.475 122.72274 391.385818 124.943908 394.786619 126.581355 
C 398.187419 128.218802 402.800542 129.13884 407.61 129.13884 
z
" clip-path="url(#p318adaf472)" style="fill: #13294b"/>
   </g>
   <g id="patch_5">
    <path d="M 483.777 129.13884 
C 488.586458 129.13884 493.199581 128.218802 496.600381 126.581355 
C 500.001182 124.943908 501.912 122.72274 501.912 120.40704 
C 501.912 118.09134 500.001182 115.870172 496.600381 114.232725 
C 493.199581 112.595278 488.586458 111.67524 483.777 111.67524 
C 478.967542 111.67524 474.354419 112.595278 470.953619 114.232725 
C 467.552818 115.870172 465.642 118.09134 465.642 120.40704 
C 465.642 122.72274 467.552818 124.943908 470.953619 126.581355 
C 474.354419 128.218802 478.967542 129.13884 483.777 129.13884 
z
" clip-path="url(#p318adaf472)" style="fill: #13294b"/>
   </g>
   <g id="patch_6">
    <path d="M 255.276 171.05148 
C 260.085458 171.05148 264.698581 170.131442 268.099381 168.493995 
C 271.500182 166.856548 273.411 164.63538 273.411 162.31968 
C 273.411 160.00398 271.500182 157.782812 268.099381 156.145365 
C 264.698581 154.507918 260.085458 153.58788 255.276 153.58788 
C 250.466542 153.58788 245.853419 154.507918 242.452619 156.145365 
C 239.051818 157.782812 237.141 160.00398 237.141 162.31968 
C 237.141 164.63538 239.051818 166.856548 242.452619 168.493995 
C 245.853419 170.131442 250.466542 171.05148 255.276 171.05148 
z
" clip-path="url(#p318adaf472)" style="fill: #0072b2"/>
   </g>
   <g id="patch_7">
    <path d="M 331.443 171.05148 
C 336.252458 171.05148 340.865581 170.131442 344.266381 168.493995 
C 347.667182 166.856548 349.578 164.63538 349.578 162.31968 
C 349.578 160.00398 347.667182 157.782812 344.266381 156.145365 
C 340.865581 154.507918 336.252458 153.58788 331.443 153.58788 
C 326.633542 153.58788 322.020419 154.507918 318.619619 156.145365 
C 315.218818 157.782812 313.308 160.00398 313.308 162.31968 
C 313.308 164.63538 315.218818 166.856548 318.619619 168.493995 
C 322.020419 170.131442 326.633542 171.05148 331.443 171.05148 
z
" clip-path="url(#p318adaf472)" style="fill: #0072b2"/>
   </g>
   <g id="patch_8">
    <path d="M 407.61 171.05148 
C 412.419458 171.05148 417.032581 170.131442 420.433381 168.493995 
C 423.834182 166.856548 425.745 164.63538 425.745 162.31968 
C 425.745 160.00398 423.834182 157.782812 420.433381 156.145365 
C 417.032581 154.507918 412.419458 153.58788 407.61 153.58788 
C 402.800542 153.58788 398.187419 154.507918 394.786619 156.145365 
C 391.385818 157.782812 389.475 160.00398 389.475 162.31968 
C 389.475 164.63538 391.385818 166.856548 394.786619 168.493995 
C 398.187419 170.131442 402.800542 171.05148 407.61 171.05148 
z
" clip-path="url(#p318adaf472)" style="fill: #0072b2"/>
   </g>
   <g id="patch_9">
    <path d="M 255.276 212.96412 
C 260.085458 212.96412 264.698581 212.044082 268.099381 210.406635 
C 271.500182 208.769188 273.411 206.54802 273.411 204.23232 
C 273.411 201.91662 271.500182 199.695452 268.099381 198.058005 
C 264.698581 196.420558 260.085458 195.50052 255.276 195.50052 
C 250.466542 195.50052 245.853419 196.420558 242.452619 198.058005 
C 239.051818 199.695452 237.141 201.91662 237.141 204.23232 
C 237.141 206.54802 239.051818 208.769188 242.452619 210.406635 
C 245.853419 212.044082 250.466542 212.96412 255.276 212.96412 
z
" clip-path="url(#p318adaf472)" style="fill: #28a9c7"/>
   </g>
   <g id="patch_10">
    <path d="M 331.443 212.96412 
C 336.252458 212.96412 340.865581 212.044082 344.266381 210.406635 
C 347.667182 208.769188 349.578 206.54802 349.578 204.23232 
C 349.578 201.91662 347.667182 199.695452 344.266381 198.058005 
C 340.865581 196.420558 336.252458 195.50052 331.443 195.50052 
C 326.633542 195.50052 322.020419 196.420558 318.619619 198.058005 
C 315.218818 199.695452 313.308 201.91662 313.308 204.23232 
C 313.308 206.54802 315.218818 208.769188 318.619619 210.406635 
C 322.020419 212.044082 326.633542 212.96412 331.443 212.96412 
z
" clip-path="url(#p318adaf472)" style="fill: #28a9c7"/>
   </g>
   <g id="patch_11">
    <path d="M 583.8822 220.648104 
L 681.0858 220.648104 
Q 699.2208 220.648104 699.2208 211.916304 
L 699.2208 196.548336 
Q 699.2208 187.816536 681.0858 187.816536 
L 583.8822 187.816536 
Q 565.7472 187.816536 565.7472 196.548336 
L 565.7472 211.916304 
Q 565.7472 220.648104 583.8822 220.648104 
z
" clip-path="url(#p318adaf472)" style="fill: #fff0e8; stroke: #ff5f05; stroke-width: 1.5; stroke-linejoin: miter"/>
   </g>
   <g id="patch_12">
    <path d="M 255.276 254.87676 
C 260.085458 254.87676 264.698581 253.956722 268.099381 252.319275 
C 271.500182 250.681828 273.411 248.46066 273.411 246.14496 
C 273.411 243.82926 271.500182 241.608092 268.099381 239.970645 
C 264.698581 238.333198 260.085458 237.41316 255.276 237.41316 
C 250.466542 237.41316 245.853419 238.333198 242.452619 239.970645 
C 239.051818 241.608092 237.141 243.82926 237.141 246.14496 
C 237.141 248.46066 239.051818 250.681828 242.452619 252.319275 
C 245.853419 253.956722 250.466542 254.87676 255.276 254.87676 
z
" clip-path="url(#p318adaf472)" style="fill: #7e57c2"/>
   </g>
   <g id="patch_13">
    <path d="M 583.8822 262.560744 
L 681.0858 262.560744 
Q 699.2208 262.560744 699.2208 253.828944 
L 699.2208 238.460976 
Q 699.2208 229.729176 681.0858 229.729176 
L 583.8822 229.729176 
Q 565.7472 229.729176 565.7472 238.460976 
L 565.7472 253.828944 
Q 565.7472 262.560744 583.8822 262.560744 
z
" clip-path="url(#p318adaf472)" style="fill: #fff0e8; stroke: #ff5f05; stroke-width: 1.5; stroke-linejoin: miter"/>
   </g>
   <g id="text_1">
    <text style="font-weight: 700; font-size: 25px; font-family: 'DejaVu Sans'; text-anchor: start; fill: #13294b" x="37.656" y="58.382541" transform="rotate(-0 37.656 58.382541)">Which controlled-phase layers are removed?</text>
   </g>
   <g id="text_2">
    <text style="font-size: 11.5px; font-family: 'DejaVu Sans'; text-anchor: start; fill: #5d6b7e" x="37.656" y="74.596801" transform="rotate(-0 37.656 74.596801)">M=32 uses q=5 Fourier qubits per register; d=2 registers.</text>
   </g>
   <g id="text_3">
    <text style="font-weight: 700; font-size: 11px; font-family: 'DejaVu Sans'; text-anchor: start; fill: #5d6b7e" x="52.164" y="123.442352" transform="rotate(-0 52.164 123.442352)">separation 1</text>
   </g>
   <g id="text_4">
    <text style="font-weight: 700; font-size: 11px; font-family: 'DejaVu Sans'; text-anchor: start; fill: #5d6b7e" x="52.164" y="165.354992" transform="rotate(-0 52.164 165.354992)">separation 2</text>
   </g>
   <g id="text_5">
    <text style="font-weight: 700; font-size: 11px; font-family: 'DejaVu Sans'; text-anchor: start; fill: #5d6b7e" x="52.164" y="207.267632" transform="rotate(-0 52.164 207.267632)">separation 3</text>
   </g>
   <g id="text_6">
    <text style="font-weight: 700; font-size: 8.5px; font-family: 'DejaVu Sans'; text-anchor: middle; fill: #ff5f05" x="632.484" y="206.544586" transform="rotate(-0 632.484 206.544586)">omitted at 2 layers</text>
   </g>
   <g id="text_7">
    <text style="font-weight: 700; font-size: 11px; font-family: 'DejaVu Sans'; text-anchor: start; fill: #5d6b7e" x="52.164" y="249.180272" transform="rotate(-0 52.164 249.180272)">separation 4</text>
   </g>
   <g id="text_8">
    <text style="font-weight: 700; font-size: 8.5px; font-family: 'DejaVu Sans'; text-anchor: middle; fill: #ff5f05" x="632.484" y="248.457226" transform="rotate(-0 632.484 248.457226)">omitted at 2 layers</text>
   </g>
   <g id="text_9">
    <text style="font-weight: 700; font-size: 14px; font-family: 'DejaVu Sans'; text-anchor: middle; fill: #13294b" x="385.848" y="302.344197" transform="rotate(-0 385.848 302.344197)">Farthest, smallest-angle interactions are removed first</text>
   </g>
   <g id="text_10">
    <text style="font-weight: 700; font-size: 8.5px; font-family: 'DejaVu Sans'; text-anchor: start; fill: #5d6b7e" x="23.148" y="346.630864" transform="rotate(-0 23.148 346.630864)">CONCEPTUAL LAYER MAP; COUNTS VERIFIED FOR M=32, D=2</text>
   </g>
  </g>
 </g>
 <defs>
  <clipPath id="p318adaf472">
   <rect x="8.64" y="8.64" width="725.4" height="349.272"/>
  </clipPath>
 </defs>
</svg>
