<?xml version="1.0" encoding="utf-8" standalone="no"?>
<!DOCTYPE svg PUBLIC "-//W3C//DTD SVG 1.1//EN"
  "http://www.w3.org/Graphics/SVG/1.1/DTD/svg11.dtd">
<svg xmlns:xlink="http://www.w3.org/1999/xlink" width="974.4pt" height="355.201797pt" viewBox="0 0 974.4 355.201797" xmlns="http://www.w3.org/2000/svg" version="1.1">
 <metadata>
  <rdf:RDF xmlns:dc="http://purl.org/dc/elements/1.1/" xmlns:cc="http://creativecommons.org/ns#" xmlns:rdf="http://www.w3.org/1999/02/22-rdf-syntax-ns#">
   <cc:Work>
    <dc:type rdf:resource="http://purl.org/dc/dcmitype/StillImage"/>
    <dc:date>2026-07-22T16:25:19.463806</dc:date>
    <dc:format>image/svg+xml</dc:format>
    <dc:creator>
     <cc:Agent>
      <dc:title>Matplotlib v3.11.0, https://matplotlib.org/</dc:title>
     </cc:Agent>
    </dc:creator>
   </cc:Work>
  </rdf:RDF>
 </metadata>
 <defs>
  <style type="text/css">*{stroke-linejoin: round; stroke-linecap: butt}</style>
 </defs>
 <g id="figure_1">
  <g id="patch_1">
   <path d="M 0 355.201797 
L 974.4 355.201797 
L 974.4 0 
L 0 0 
z
" style="fill: #f7f8fa"/>
  </g>
  <g id="axes_1">
   <g id="patch_2">
    <path d="M 47.52 316.450607 
L 211.68 316.450607 
Q 250.08 316.450607 250.08 304.077591 
L 250.08 94.973627 
Q 250.08 82.600612 211.68 82.600612 
L 47.52 82.600612 
Q 9.12 82.600612 9.12 94.973627 
L 9.12 304.077591 
Q 9.12 316.450607 47.52 316.450607 
z
" clip-path="url(#pf84395d94c)" style="fill: #ffffff; stroke: #6f4a8e; stroke-width: 4; stroke-linejoin: miter"/>
   </g>
   <g id="patch_3">
    <path d="M 282.72 316.450607 
L 446.88 316.450607 
Q 485.28 316.450607 485.28 304.077591 
L 485.28 94.973627 
Q 485.28 82.600612 446.88 82.600612 
L 282.72 82.600612 
Q 244.32 82.600612 244.32 94.973627 
L 244.32 304.077591 
Q 244.32 316.450607 282.72 316.450607 
z
" clip-path="url(#pf84395d94c)" style="fill: #ffffff; stroke: #009e73; stroke-width: 4; stroke-linejoin: miter"/>
   </g>
   <g id="patch_4">
    <path d="M 517.92 316.450607 
L 682.08 316.450607 
Q 720.48 316.450607 720.48 304.077591 
L 720.48 94.973627 
Q 720.48 82.600612 682.08 82.600612 
L 517.92 82.600612 
Q 479.52 82.600612 479.52 94.973627 
L 479.52 304.077591 
Q 479.52 316.450607 517.92 316.450607 
z
" clip-path="url(#pf84395d94c)" style="fill: #ffffff; stroke: #7e57c2; stroke-width: 4; stroke-linejoin: miter"/>
   </g>
   <g id="patch_5">
    <path d="M 753.12 316.450607 
L 917.28 316.450607 
Q 955.68 316.450607 955.68 304.077591 
L 955.68 94.973627 
Q 955.68 82.600612 917.28 82.600612 
L 753.12 82.600612 
Q 714.72 82.600612 714.72 94.973627 
L 714.72 304.077591 
Q 714.72 316.450607 753.12 316.450607 
z
" clip-path="url(#pf84395d94c)" style="fill: #ffffff; stroke: #ff5f05; stroke-width: 4; stroke-linejoin: miter"/>
   </g>
   <g id="text_1">
    <text style="font-weight: 700; font-size: 49px; font-family: 'DejaVu Sans'; text-anchor: middle; fill: #6f4a8e" x="129.6" y="172.041824" transform="rotate(-0 129.6 172.041824)">0</text>
   </g>
   <g id="text_2">
    <text style="font-size: 16px; font-family: 'DejaVu Sans'; fill: #13294b" transform="translate(62.9425 243.432672)">non-exact layers</text>
    <text style="font-size: 16px; font-family: 'DejaVu Sans'; fill: #13294b" transform="translate(96.59125 264.982672)">certified</text>
   </g>
   <g id="text_3">
    <text style="font-weight: 700; font-size: 49px; font-family: 'DejaVu Sans'; text-anchor: middle; fill: #009e73" x="364.8" y="172.041824" transform="rotate(-0 364.8 172.041824)">6/6</text>
   </g>
   <g id="text_4">
    <text style="font-size: 16px; font-family: 'DejaVu Sans'; fill: #13294b" transform="translate(288.1 243.432672)">tested cells passed</text>
    <text style="font-size: 16px; font-family: 'DejaVu Sans'; fill: #13294b" transform="translate(274.05875 263.432672)">with one layer omitted</text>
   </g>
   <g id="text_5">
    <text style="font-weight: 700; font-size: 49px; font-family: 'DejaVu Sans'; text-anchor: middle; fill: #7e57c2" x="600" y="172.041824" transform="rotate(-0 600 172.041824)">2</text>
   </g>
   <g id="text_6">
    <text style="font-size: 16px; font-family: 'DejaVu Sans'; fill: #13294b" transform="translate(511.9625 243.432672)">Gaussian cells passed</text>
    <text style="font-size: 16px; font-family: 'DejaVu Sans'; fill: #13294b" transform="translate(505.405 263.432672)">with two layers omitted</text>
   </g>
   <g id="text_7">
    <text style="font-weight: 700; font-size: 49px; font-family: 'DejaVu Sans'; text-anchor: middle; fill: #ff5f05" x="835.2" y="172.041824" transform="rotate(-0 835.2 172.041824)">12</text>
   </g>
   <g id="text_8">
    <text style="font-size: 16px; font-family: 'DejaVu Sans'; fill: #13294b" transform="translate(757.69875 243.432672)">QFT-only transpiled</text>
    <text style="font-size: 16px; font-family: 'DejaVu Sans'; fill: #13294b" transform="translate(737.3775 263.432672)">CX gates saved, at most</text>
   </g>
   <g id="text_9">
    <text style="font-weight: 700; font-size: 23px; font-family: 'DejaVu Sans'; text-anchor: middle; fill: #13294b" x="487.2" y="24.676406" transform="rotate(-0 487.2 24.676406)">The finite held-out result in four numbers</text>
   </g>
  </g>
 </g>
 <defs>
  <clipPath id="pf84395d94c">
   <rect x="7.2" y="38.676406" width="960" height="309.325391"/>
  </clipPath>
 </defs>
</svg>
