<?xml version="1.0" encoding="utf-8" standalone="no"?>
<!DOCTYPE svg PUBLIC "-//W3C//DTD SVG 1.1//EN"
  "http://www.w3.org/Graphics/SVG/1.1/DTD/svg11.dtd">
<svg xmlns:xlink="http://www.w3.org/1999/xlink" width="902.4pt" height="398.401797pt" viewBox="0 0 902.4 398.401797" xmlns="http://www.w3.org/2000/svg" version="1.1">
 <metadata>
  <rdf:RDF xmlns:dc="http://purl.org/dc/elements/1.1/" xmlns:cc="http://creativecommons.org/ns#" xmlns:rdf="http://www.w3.org/1999/02/22-rdf-syntax-ns#">
   <cc:Work>
    <dc:type rdf:resource="http://purl.org/dc/dcmitype/StillImage"/>
    <dc:date>2026-07-22T16:25:22.301058</dc:date>
    <dc:format>image/svg+xml</dc:format>
    <dc:creator>
     <cc:Agent>
      <dc:title>Matplotlib v3.11.0, https://matplotlib.org/</dc:title>
     </cc:Agent>
    </dc:creator>
   </cc:Work>
  </rdf:RDF>
 </metadata>
 <defs>
  <style type="text/css">*{stroke-linejoin: round; stroke-linecap: butt}</style>
 </defs>
 <g id="figure_1">
  <g id="patch_1">
   <path d="M 0 398.401797 
L 902.4 398.401797 
L 902.4 0 
L 0 0 
z
" style="fill: #f7f8fa"/>
  </g>
  <g id="axes_1">
   <g id="patch_2">
    <path d="M 62.256 351.942953 
L 396.144 351.942953 
Q 431.664 351.942953 431.664 337.921937 
L 431.664 100.966773 
Q 431.664 86.945758 396.144 86.945758 
L 62.256 86.945758 
Q 26.736 86.945758 26.736 100.966773 
L 26.736 337.921937 
Q 26.736 351.942953 62.256 351.942953 
z
" clip-path="url(#p620c4cf66d)" style="fill: #e8f7f2; stroke: #009e73; stroke-width: 4; stroke-linejoin: miter"/>
   </g>
   <g id="patch_3">
    <path d="M 506.256 351.942953 
L 840.144 351.942953 
Q 875.664 351.942953 875.664 337.921937 
L 875.664 100.966773 
Q 875.664 86.945758 840.144 86.945758 
L 506.256 86.945758 
Q 470.736 86.945758 470.736 100.966773 
L 470.736 337.921937 
Q 470.736 351.942953 506.256 351.942953 
z
" clip-path="url(#p620c4cf66d)" style="fill: #fff1eb; stroke: #d55e00; stroke-width: 4; stroke-linejoin: miter"/>
   </g>
   <g id="text_1">
    <text style="font-weight: 700; font-size: 21px; font-family: 'DejaVu Sans'; text-anchor: middle; fill: #009e73" x="229.2" y="128.307754" transform="rotate(-0 229.2 128.307754)">INSIDE THE EVIDENCE</text>
   </g>
   <g id="text_2">
    <text style="font-weight: 700; font-size: 21px; font-family: 'DejaVu Sans'; text-anchor: middle; fill: #d55e00" x="673.2" y="128.307754" transform="rotate(-0 673.2 128.307754)">OUTSIDE THE EVIDENCE</text>
   </g>
   <g id="text_3">
    <text style="font-size: 16px; font-family: 'DejaVu Sans'; text-anchor: start; fill: #13294b" x="87.12" y="174.527676" transform="rotate(-0 87.12 174.527676)">✓  8 small held-out semiprimes</text>
   </g>
   <g id="text_4">
    <text style="font-size: 16px; font-family: 'DejaVu Sans'; text-anchor: start; fill: #13294b" x="87.12" y="209.580215" transform="rotate(-0 87.12 209.580215)">✓  d=2 and M≤32</text>
   </g>
   <g id="text_5">
    <text style="font-size: 16px; font-family: 'DejaVu Sans'; text-anchor: start; fill: #13294b" x="87.12" y="244.632754" transform="rotate(-0 87.12 244.632754)">✓  hard-box + finite Gaussian</text>
   </g>
   <g id="text_6">
    <text style="font-size: 16px; font-family: 'DejaVu Sans'; text-anchor: start; fill: #13294b" x="87.12" y="279.685293" transform="rotate(-0 87.12 279.685293)">✓  m=7, 64 coupled replicates</text>
   </g>
   <g id="text_7">
    <text style="font-size: 16px; font-family: 'DejaVu Sans'; text-anchor: start; fill: #13294b" x="87.12" y="314.737832" transform="rotate(-0 87.12 314.737832)">✓  current exact-integer LLL endpoint</text>
   </g>
   <g id="text_8">
    <text style="font-size: 16px; font-family: 'DejaVu Sans'; text-anchor: start; fill: #13294b" x="531.12" y="174.527676" transform="rotate(-0 531.12 174.527676)">×  cryptographic-scale N</text>
   </g>
   <g id="text_9">
    <text style="font-size: 16px; font-family: 'DejaVu Sans'; text-anchor: start; fill: #13294b" x="531.12" y="209.580215" transform="rotate(-0 531.12 209.580215)">×  calibrated hardware execution</text>
   </g>
   <g id="text_10">
    <text style="font-size: 16px; font-family: 'DejaVu Sans'; text-anchor: start; fill: #13294b" x="531.12" y="244.632754" transform="rotate(-0 531.12 244.632754)">×  full-circuit runtime speedup</text>
   </g>
   <g id="text_11">
    <text style="font-size: 16px; font-family: 'DejaVu Sans'; text-anchor: start; fill: #13294b" x="531.12" y="279.685293" transform="rotate(-0 531.12 279.685293)">×  all Regev parameter regimes</text>
   </g>
   <g id="text_12">
    <text style="font-size: 16px; font-family: 'DejaVu Sans'; text-anchor: start; fill: #13294b" x="531.12" y="314.737832" transform="rotate(-0 531.12 314.737832)">×  every possible postprocessor</text>
   </g>
   <g id="text_13">
    <text style="font-weight: 700; font-size: 23px; font-family: 'DejaVu Sans'; text-anchor: middle; fill: #13294b" x="451.2" y="24.676406" transform="rotate(-0 451.2 24.676406)">Exact limitation of the result</text>
   </g>
  </g>
 </g>
 <defs>
  <clipPath id="p620c4cf66d">
   <rect x="7.2" y="40.676406" width="888" height="350.525391"/>
  </clipPath>
 </defs>
</svg>
